{
.appVersion = "1287";
copyright = "Copyright 2011 Monotype Imaging Inc. All rights reserved.";
customParameters = (
{
name = trademark;
value = "\"Harmonia Sans\" is a trademark of Monotype Imaging Inc. and may be registered in certain jurisdictions.";
},
{
name = licenseURL;
value = "http://www.monotypeimaging.com/html/license.aspx";
},
{
name = license;

glyphs = (
{
glyphname = .notdef;
layers = (
{
hints = (
{
horizontal = 1;
place = "{0, 48}";
type = Stem;
},
{
horizontal = 1;
place = "{618, 47}";
type = Stem;
},
{
place = "{12, 48}";
type = Stem;
},
{
place = "{440, 47}";
type = Stem;
}
);
layerId = "D2FC741B-AB3D-47FE-B7ED-22FDCD907D24";
paths = (
{
closed = 1;
nodes = (
"12 0 LINE",
"487 0 LINE",
"487 665 LINE",
"12 665 LINE"
);
},
{
closed = 1;
nodes = (
"88 618 LINE",
"411 618 LINE",
"250 375 LINE"
);
},
{
closed = 1;
nodes = (
"60 575 LINE",
"221 333 LINE",
"221 333 OFFCURVE",
"60 90 OFFCURVE",
"60 91 CURVE SMOOTH"
);
},
{
closed = 1;
nodes = (
"440 575 LINE",
"440 90 LINE",
"278 333 LINE"
);
},
{
closed = 1;
nodes = (
"411 48 LINE",
"88 48 LINE",
"250 290 LINE"
);
}
);
width = 500;
}
);
note = .notdef;
},
{
glyphname = exclam;
layers = (
{
hints = (
{
horizontal = 1;
place = "{0, 112}";
type = Stem;
},
{
horizontal = 1;
place = "{682, -20}";
target = down;
type = TopGhost;
},
{
place = "{73, 111}";
type = Stem;
}
);
layerId = "D2FC741B-AB3D-47FE-B7ED-22FDCD907D24";
paths = (
{
closed = 1;
nodes = (
"69 0 LINE",
"188 0 LINE",
"188 112 LINE",
"69 112 LINE"
);
},
{
closed = 1;
nodes = (
"67 682 LINE",
"79 202 LINE",
"178 202 LINE",
"190 682 LINE"
);
}
);
width = 256;
}
);
leftKerningGroup = exclam;
note = exclam;
unicode = 0021;
},
{
glyphname = quotedbl;
layers = (
{
hints = (
{
horizontal = 1;
place = "{489, 21}";
target = up;
type = BottomGhost;
},
{
horizontal = 1;
place = "{721, -20}";
target = down;
type = TopGhost;
},
{
place = "{60, 96}";
type = Stem;
},
{
place = "{250, 95}";
type = Stem;
}
);
layerId = "D2FC741B-AB3D-47FE-B7ED-22FDCD907D24";
paths = (
{
closed = 1;
nodes = (
"56 721 LINE",
"65 489 LINE",
"151 489 LINE",
"161 721 LINE"
);
},
{
closed = 1;
nodes = (
"246 721 LINE",
"254 489 LINE",
"340 489 LINE",
"350 721 LINE"
);
}
);
width = 406;
}
);
note = quotedbl;
unicode = 0022;
},
{
glyphname = numbersign;
layers = (
{
hints = (
{
horizontal = 1;
place = "{0, 21}";
target = up;
type = BottomGhost;
},
{
horizontal = 1;
place = "{193, 72}";
type = Stem;
},
{
horizontal = 1;
place = "{413, 70}";
type = Stem;
},
{
horizontal = 1;
place = "{682, -20}";
target = down;
type = TopGhost;
}
);
layerId = "D2FC741B-AB3D-47FE-B7ED-22FDCD907D24";
paths = (
{
closed = 1;
nodes = (
"473 483 LINE",
"516 682 LINE",
"436 682 LINE",
"393 483 LINE",
"269 483 LINE",
"313 682 LINE",
"232 682 LINE",
"190 483 LINE",
"72 483 LINE",
"57 413 LINE",
"175 413 LINE",
"142 265 LINE",
"28 265 LINE",
"13 193 LINE",
"128 193 LINE",
"85 0 LINE",
"165 0 LINE",
"208 193 LINE",
"331 193 LINE",
"289 0 LINE",
"369 0 LINE",
"411 193 LINE",
"530 193 LINE",
"544 265 LINE",
"426 265 LINE",
"458 413 LINE",
"574 413 LINE",
"590 483 LINE"
);
},
{
closed = 1;
nodes = (
"378 413 LINE",
"346 265 LINE",
"221 265 LINE",
"254 413 LINE"
);
}
);
width = 603;
}
);
note = numbersign;
unicode = 0023;
},
{
glyphname = dollar;
layers = (
{
hints = (
{
horizontal = 1;
place = "{-60, 21}";
target = up;
type = BottomGhost;
},
{
horizontal = 1;
place = "{730, -20}";
target = down;
type = TopGhost;
},
{
place = "{77, 111}";
type = Stem;
},
{
place = "{240, 90}";
type = Stem;
},
{
place = "{394, 112}";
type = Stem;
}
);
layerId = "D2FC741B-AB3D-47FE-B7ED-22FDCD907D24";
paths = (
{
closed = 1;
nodes = (
"494 501 LINE",
"486 581 OFFCURVE",
"429 645 OFFCURVE",
"330 660 CURVE",
"330 730 LINE",
"240 730 LINE",
"240 659 LINE",
"145 646 OFFCURVE",
"77 584 OFFCURVE",
"77 502 CURVE SMOOTH",
"77 416 OFFCURVE",
"125 357 OFFCURVE",
"260 318 CURVE SMOOTH",
"361 289 OFFCURVE",
"394 258 OFFCURVE",
"394 199 CURVE SMOOTH",
"394 153 OFFCURVE",
"357 107 OFFCURVE",
"287 107 CURVE SMOOTH",
"216 107 OFFCURVE",
"181 145 OFFCURVE",
"168 203 CURVE",
"52 203 LINE",
"69 97 OFFCURVE",
"139 36 OFFCURVE",
"240 22 CURVE",
"240 -60 LINE",
"330 -60 LINE",
"330 23 LINE",
"448 41 OFFCURVE",
"506 127 OFFCURVE",
"506 207 CURVE SMOOTH",
"506 298 OFFCURVE",
"455 363 OFFCURVE",
"312 407 CURVE SMOOTH",
"219 436 OFFCURVE",
"188 454 OFFCURVE",
"188 502 CURVE SMOOTH",
"188 547 OFFCURVE",
"225 576 OFFCURVE",
"284 576 CURVE SMOOTH",
"341 576 OFFCURVE",
"375 546 OFFCURVE",
"382 501 CURVE"
);
}
);
width = 569;
}
);
note = dollar;
unicode = 0024;
},
{
glyphname = percent;
layers = (
{
hints = (
{
horizontal = 1;
place = "{-22, 77}";
type = Stem;
},
{
horizontal = 1;
place = "{325, 76}";
type = Stem;
},
{
horizontal = 1;
place = "{627, 76}";
type = Stem;
},
{
place = "{41, 87}";
type = Stem;
},
{
place = "{268, 86}";
type = Stem;
},
{
place = "{437, 86}";
type = Stem;
},
{
place = "{663, 86}";
type = Stem;
},
{
horizontal = 1;
place = "{280, 76}";
type = Stem;
},
{
horizontal = 1;
place = "{682, -20}";
target = down;
type = TopGhost;
},
{
horizontal = 1;
place = "{0, 21}";
target = up;
type = BottomGhost;
}
);
layerId = "D2FC741B-AB3D-47FE-B7ED-22FDCD907D24";
paths = (
{
closed = 1;
nodes = (
"41 371 OFFCURVE",
"127 325 OFFCURVE",
"199 325 CURVE SMOOTH",
"259 325 OFFCURVE",
"354 364 OFFCURVE",
"354 517 CURVE SMOOTH",
"354 656 OFFCURVE",
"271 703 OFFCURVE",
"202 703 CURVE SMOOTH",
"126 703 OFFCURVE",
"41 649 OFFCURVE",
"41 515 CURVE SMOOTH"
);
},
{
closed = 1;
nodes = (
"268 434 OFFCURVE",
"235 401 OFFCURVE",
"199 401 CURVE SMOOTH",
"156 401 OFFCURVE",
"128 436 OFFCURVE",
"128 516 CURVE SMOOTH",
"128 595 OFFCURVE",
"160 627 OFFCURVE",
"198 627 CURVE SMOOTH",
"242 627 OFFCURVE",
"268 588 OFFCURVE",
"268 515 CURVE SMOOTH"
);
},
{
closed = 1;
nodes = (
"437 24 OFFCURVE",
"522 -22 OFFCURVE",
"593 -22 CURVE SMOOTH",
"654 -22 OFFCURVE",
"749 17 OFFCURVE",
"749 171 CURVE SMOOTH",
"749 309 OFFCURVE",
"666 356 OFFCURVE",
"596 356 CURVE SMOOTH",
"521 356 OFFCURVE",
"437 302 OFFCURVE",
"437 169 CURVE SMOOTH"
);
},
{
closed = 1;
nodes = (
"663 86 OFFCURVE",
"630 55 OFFCURVE",
"594 55 CURVE SMOOTH",
"551 55 OFFCURVE",
"523 89 OFFCURVE",
"523 170 CURVE SMOOTH",
"523 248 OFFCURVE",
"555 280 OFFCURVE",
"593 280 CURVE SMOOTH",
"637 280 OFFCURVE",
"663 242 OFFCURVE",
"663 169 CURVE SMOOTH"
);
},
{
closed = 1;
nodes = (
"583 682 LINE",
"121 0 LINE",
"210 0 LINE",
"671 682 LINE"
);
}
);
width = 791;
}
);
note = percent;
unicode = 0025;
},
{
glyphname = ampersand;
layers = (
{
hints = (
{
horizontal = 1;
place = "{-18, 91}";
type = Stem;
},
{
horizontal = 1;
place = "{614, 88}";
type = Stem;
},
{
place = "{35, 107}";
type = Stem;
},
{
place = "{480, 102}";
type = Stem;
},
{
place = "{123, 106}";
type = Stem;
},
{
place = "{380, 101}";
type = Stem;
},
{
horizontal = 1;
place = "{-16, 21}";
target = up;
type = BottomGhost;
}
);
layerId = "D2FC741B-AB3D-47FE-B7ED-22FDCD907D24";
paths = (
{
closed = 1;
nodes = (
"480 331 LINE SMOOTH",
"480 279 OFFCURVE",
"470 237 OFFCURVE",
"450 199 CURVE",
"324 363 LINE",
"418 413 OFFCURVE",
"481 465 OFFCURVE",
"481 550 CURVE SMOOTH",
"481 645 OFFCURVE",
"403 702 OFFCURVE",
"305 702 CURVE SMOOTH",
"179 702 OFFCURVE",
"123 624 OFFCURVE",
"123 544 CURVE SMOOTH",
"123 482 OFFCURVE",
"156 425 OFFCURVE",
"183 385 CURVE",
"92 337 OFFCURVE",
"35 276 OFFCURVE",
"35 182 CURVE SMOOTH",
"35 78 OFFCURVE",
"105 -18 OFFCURVE",
"255 -18 CURVE SMOOTH",
"342 -18 OFFCURVE",
"406 19 OFFCURVE",
"447 53 CURVE",
"491 2 OFFCURVE",
"525 -16 OFFCURVE",
"572 -16 CURVE SMOOTH",
"588 -16 OFFCURVE",
"611 -12 OFFCURVE",
"619 -10 CURVE",
"619 80 LINE",
"614 78 OFFCURVE",
"600 76 OFFCURVE",
"590 76 CURVE SMOOTH",
"567 76 OFFCURVE",
"545 89 OFFCURVE",
"514 126 CURVE",
"553 176 OFFCURVE",
"582 254 OFFCURVE",
"582 333 CURVE SMOOTH",
"582 342 LINE",
"480 342 LINE"
);
},
{
closed = 1;
nodes = (
"187 73 OFFCURVE",
"142 124 OFFCURVE",
"142 184 CURVE SMOOTH",
"142 238 OFFCURVE",
"175 279 OFFCURVE",
"235 315 CURVE",
"385 121 LINE",
"361 98 OFFCURVE",
"315 73 OFFCURVE",
"259 73 CURVE SMOOTH"
);
},
{
closed = 1;
nodes = (
"229 575 OFFCURVE",
"251 614 OFFCURVE",
"304 614 CURVE SMOOTH",
"355 614 OFFCURVE",
"380 580 OFFCURVE",
"380 547 CURVE SMOOTH",
"380 496 OFFCURVE",
"340 463 OFFCURVE",
"273 431 CURVE",
"245 471 OFFCURVE",
"229 499 OFFCURVE",
"229 542 CURVE SMOOTH"
);
}
);
width = 630;
}
);
note = ampersand;
unicode = 0026;
},
{
glyphname = quoteright;
layers = (
{
hints = (
{
horizontal = 1;
place = "{473, 21}";
target = up;
type = BottomGhost;
},
{
horizontal = 1;
place = "{720, -20}";
target = down;
type = TopGhost;
},
{
place = "{63, 130}";
type = Stem;
}
);
layerId = "D2FC741B-AB3D-47FE-B7ED-22FDCD907D24";
paths = (
{
closed = 1;
nodes = (
"63 596 LINE",
"113 596 LINE",
"110 552 OFFCURVE",
"98 508 OFFCURVE",
"75 473 CURVE",
"140 473 LINE",
"171 522 OFFCURVE",
"193 583 OFFCURVE",
"193 660 CURVE SMOOTH",
"193 720 LINE",
"63 720 LINE"
);
}
);
width = 256;
}
);
leftKerningGroup = quoteright;
note = quoteright;
rightKerningGroup = quoteright;
unicode = 2019;
},
{
glyphname = parenleft;
layers = (
{
hints = (
{
horizontal = 1;
place = "{-215, 21}";
target = up;
type = BottomGhost;
},
{
horizontal = 1;
place = "{743, -20}";
target = down;
type = TopGhost;
},
{
place = "{67, 110}";
type = Stem;
}
);
layerId = "D2FC741B-AB3D-47FE-B7ED-22FDCD907D24";
paths = (
{
closed = 1;
nodes = (
"327 -215 LINE",
"219 -79 OFFCURVE",
"177 105 OFFCURVE",
"177 263 CURVE SMOOTH",
"177 424 OFFCURVE",
"219 605 OFFCURVE",
"327 743 CURVE",
"219 743 LINE",
"113 605 OFFCURVE",
"67 424 OFFCURVE",
"67 263 CURVE SMOOTH",
"67 105 OFFCURVE",
"113 -79 OFFCURVE",
"219 -215 CURVE"
);
}
);
width = 344;
}
);
note = parenleft;
rightKerningGroup = parenleft;
unicode = 0028;
},
{
glyphname = parenright;
layers = (
{
hints = (
{
horizontal = 1;
place = "{-215, 21}";
target = up;
type = BottomGhost;
},
{
horizontal = 1;
place = "{743, -20}";
target = down;
type = TopGhost;
},
{
place = "{167, 110}";
type = Stem;
}
);
layerId = "D2FC741B-AB3D-47FE-B7ED-22FDCD907D24";
paths = (
{
closed = 1;
nodes = (
"125 -215 LINE",
"231 -78 OFFCURVE",
"277 104 OFFCURVE",
"277 264 CURVE SMOOTH",
"277 423 OFFCURVE",
"231 606 OFFCURVE",
"125 743 CURVE",
"16 743 LINE",
"125 606 OFFCURVE",
"167 423 OFFCURVE",
"167 264 CURVE SMOOTH",
"167 104 OFFCURVE",
"125 -78 OFFCURVE",
"16 -215 CURVE"
);
}
);
width = 344;
}
);
leftKerningGroup = parenright;
note = parenright;
unicode = 0029;
},
{
glyphname = asterisk;
layers = (
{
hints = (
{
horizontal = 1;
place = "{344, 21}";
target = up;
type = BottomGhost;
},
{
horizontal = 1;
place = "{721, -20}";
target = down;
type = TopGhost;
},
{
place = "{169, 83}";
type = Stem;
}
);
layerId = "D2FC741B-AB3D-47FE-B7ED-22FDCD907D24";
paths = (
{
closed = 1;
nodes = (
"14 543 LINE",
"150 507 LINE",
"60 395 LINE",
"133 344 LINE",
"211 464 LINE",
"287 344 LINE",
"361 395 LINE",
"271 507 LINE",
"409 544 LINE",
"381 627 LINE",
"248 577 LINE",
"256 721 LINE",
"166 721 LINE",
"173 577 LINE",
"40 627 LINE"
);
}
);
width = 423;
}
);
note = asterisk;
unicode = 002A;
},
{
glyphname = plus;
layers = (
{
hints = (
{
horizontal = 1;
place = "{0, 21}";
target = up;
type = BottomGhost;
},
{
horizontal = 1;
place = "{219, 91}";
type = Stem;
},
{
horizontal = 1;
place = "{530, -20}";
target = down;
type = TopGhost;
},
{
place = "{290, 91}";
type = Stem;
}
);
layerId = "D2FC741B-AB3D-47FE-B7ED-22FDCD907D24";
paths = (
{
closed = 1;
nodes = (
"594 219 LINE",
"594 310 LINE",
"381 310 LINE",
"381 530 LINE",
"290 530 LINE",
"290 310 LINE",
"78 310 LINE",
"78 219 LINE",
"290 219 LINE",
"290 0 LINE",
"381 0 LINE",
"381 219 LINE"
);
}
);
width = 672;
}
);
note = plus;
unicode = 002B;
},
{
glyphname = comma;
layers = (
{
hints = (
{
horizontal = 1;
place = "{-135, 21}";
target = up;
type = BottomGhost;
},
{
horizontal = 1;
place = "{0, 21}";
target = up;
type = BottomGhost;
},
{
horizontal = 1;
place = "{135, -20}";
target = down;
type = TopGhost;
}
);
layerId = "D2FC741B-AB3D-47FE-B7ED-22FDCD907D24";
paths = (
{
closed = 1;
nodes = (
"58 0 LINE",
"114 0 LINE",
"109 -40 OFFCURVE",
"96 -90 OFFCURVE",
"69 -135 CURVE",
"138 -135 LINE",
"164 -94 OFFCURVE",
"199 -28 OFFCURVE",
"199 71 CURVE SMOOTH",
"199 135 LINE",
"58 135 LINE"
);
}
);
width = 256;
}
);
leftKerningGroup = comma;
note = comma;
rightKerningGroup = comma;
unicode = 002C;
},
{
glyphname = hyphen;
layers = (
{
hints = (
{
horizontal = 1;
place = "{217, 94}";
type = Stem;
}
);
layerId = "D2FC741B-AB3D-47FE-B7ED-22FDCD907D24";
paths = (
{
closed = 1;
nodes = (
"398 217 LINE",
"398 311 LINE",
"76 311 LINE",
"76 217 LINE"
);
}
);
width = 467;
}
);
leftKerningGroup = hyphen;
note = hyphen;
rightKerningGroup = hyphen;
unicode = 002D;
},
{
glyphname = period;
layers = (
{
hints = (
{
horizontal = 1;
place = "{0, 21}";
target = up;
type = BottomGhost;
},
{
horizontal = 1;
place = "{135, -20}";
target = down;
type = TopGhost;
}
);
layerId = "D2FC741B-AB3D-47FE-B7ED-22FDCD907D24";
paths = (
{
closed = 1;
nodes = (
"58 0 LINE",
"199 0 LINE",
"199 135 LINE",
"58 135 LINE"
);
}
);
width = 256;
}
);
leftKerningGroup = comma;
note = period;
rightKerningGroup = comma;
unicode = 002E;
},
{
glyphname = slash;
layers = (
{
hints = (
{
horizontal = 1;
place = "{-114, 21}";
target = up;
type = BottomGhost;
},
{
horizontal = 1;
place = "{720, -20}";
target = down;
type = TopGhost;
}
);
layerId = "D2FC741B-AB3D-47FE-B7ED-22FDCD907D24";
paths = (
{
closed = 1;
nodes = (
"276 720 LINE",
"-22 -114 LINE",
"79 -114 LINE",
"378 720 LINE"
);
}
);
width = 392;
}
);
note = slash;
unicode = 002F;
},
{
glyphname = zero;
layers = (
{
hints = (
{
horizontal = 1;
place = "{-22, 101}";
type = Stem;
},
{
horizontal = 1;
place = "{603, 101}";
type = Stem;
},
{
place = "{33, 119}";
type = Stem;
},
{
place = "{418, 117}";
type = Stem;
}
);
layerId = "D2FC741B-AB3D-47FE-B7ED-22FDCD907D24";
paths = (
{
closed = 1;
nodes = (
"33 59 OFFCURVE",
"170 -22 OFFCURVE",
"285 -22 CURVE SMOOTH",
"382 -22 OFFCURVE",
"535 47 OFFCURVE",
"535 348 CURVE SMOOTH",
"535 621 OFFCURVE",
"403 704 OFFCURVE",
"288 704 CURVE SMOOTH",
"167 704 OFFCURVE",
"33 607 OFFCURVE",
"33 345 CURVE SMOOTH"
);
},
{
closed = 1;
nodes = (
"418 149 OFFCURVE",
"353 79 OFFCURVE",
"287 79 CURVE SMOOTH",
"208 79 OFFCURVE",
"152 154 OFFCURVE",
"152 348 CURVE SMOOTH",
"152 533 OFFCURVE",
"215 603 OFFCURVE",
"285 603 CURVE SMOOTH",
"367 603 OFFCURVE",
"418 519 OFFCURVE",
"418 345 CURVE SMOOTH"
);
}
);
width = 569;
}
);
note = zero;
unicode = 0030;
},
{
glyphname = one;
layers = (
{
hints = (
{
horizontal = 1;
place = "{0, 21}";
target = up;
type = BottomGhost;
},
{
horizontal = 1;
place = "{579, 103}";
type = Stem;
},
{
place = "{233, 114}";
type = Stem;
}
);
layerId = "D2FC741B-AB3D-47FE-B7ED-22FDCD907D24";
paths = (
{
closed = 1;
nodes = (
"233 0 LINE",
"347 0 LINE",
"347 682 LINE",
"136 682 LINE",
"136 579 LINE",
"233 579 LINE"
);
}
);
width = 569;
}
);
note = one;
unicode = 0031;
},
{
glyphname = two;
layers = (
{
hints = (
{
horizontal = 1;
place = "{0, 103}";
type = Stem;
},
{
horizontal = 1;
place = "{494, -20}";
target = down;
type = TopGhost;
},
{
horizontal = 1;
place = "{603, 101}";
type = Stem;
},
{
place = "{74, 118}";
type = Stem;
},
{
place = "{384, 119}";
type = Stem;
}
);
layerId = "D2FC741B-AB3D-47FE-B7ED-22FDCD907D24";
paths = (
{
closed = 1;
nodes = (
"74 0 LINE",
"514 0 LINE",
"514 103 LINE",
"219 103 LINE",
"363 258 LINE SMOOTH",
"451 353 OFFCURVE",
"503 424 OFFCURVE",
"503 516 CURVE SMOOTH",
"503 619 OFFCURVE",
"428 704 OFFCURVE",
"292 704 CURVE SMOOTH",
"155 704 OFFCURVE",
"77 613 OFFCURVE",
"74 494 CURVE",
"192 494 LINE",
"192 559 OFFCURVE",
"232 603 OFFCURVE",
"289 603 CURVE SMOOTH",
"350 603 OFFCURVE",
"384 562 OFFCURVE",
"384 510 CURVE SMOOTH",
"384 447 OFFCURVE",
"339 388 OFFCURVE",
"285 327 CURVE SMOOTH",
"74 92 LINE"
);
}
);
width = 569;
}
);
note = two;
unicode = 0032;
},
{
glyphname = three;
layers = (
{
hints = (
{
horizontal = 1;
place = "{-21, 97}";
type = Stem;
},
{
horizontal = 1;
place = "{317, 96}";
type = Stem;
},
{
horizontal = 1;
place = "{606, 98}";
type = Stem;
},
{
place = "{382, 119}";
type = Stem;
},
{
place = "{407, 117}";
type = Stem;
}
);
layerId = "D2FC741B-AB3D-47FE-B7ED-22FDCD907D24";
paths = (
{
closed = 1;
nodes = (
"192 516 LINE",
"196 561 OFFCURVE",
"223 606 OFFCURVE",
"290 606 CURVE SMOOTH",
"354 606 OFFCURVE",
"382 561 OFFCURVE",
"382 517 CURVE SMOOTH",
"382 452 OFFCURVE",
"337 413 OFFCURVE",
"268 413 CURVE SMOOTH",
"228 413 LINE",
"228 317 LINE",
"268 317 LINE SMOOTH",
"364 317 OFFCURVE",
"407 263 OFFCURVE",
"407 197 CURVE SMOOTH",
"407 128 OFFCURVE",
"361 76 OFFCURVE",
"293 76 CURVE SMOOTH",
"223 76 OFFCURVE",
"182 120 OFFCURVE",
"174 182 CURVE",
"59 182 LINE",
"67 66 OFFCURVE",
"142 -21 OFFCURVE",
"290 -21 CURVE SMOOTH",
"446 -21 OFFCURVE",
"524 81 OFFCURVE",
"524 194 CURVE SMOOTH",
"524 293 OFFCURVE",
"465 356 OFFCURVE",
"383 373 CURVE",
"383 375 LINE",
"443 392 OFFCURVE",
"501 447 OFFCURVE",
"501 527 CURVE SMOOTH",
"501 627 OFFCURVE",
"422 704 OFFCURVE",
"292 704 CURVE SMOOTH",
"156 704 OFFCURVE",
"83 616 OFFCURVE",
"78 516 CURVE"
);
}
);
width = 569;
}
);
note = three;
unicode = 0033;
},
{
glyphname = four;
layers = (
{
hints = (
{
horizontal = 1;
place = "{0, 21}";
target = up;
type = BottomGhost;
},
{
horizontal = 1;
place = "{142, 99}";
type = Stem;
},
{
horizontal = 1;
place = "{682, -20}";
target = down;
type = TopGhost;
},
{
place = "{335, 112}";
type = Stem;
}
);
layerId = "D2FC741B-AB3D-47FE-B7ED-22FDCD907D24";
paths = (
{
closed = 1;
nodes = (
"534 142 LINE",
"534 241 LINE",
"447 241 LINE",
"447 682 LINE",
"336 682 LINE",
"32 236 LINE",
"32 142 LINE",
"335 142 LINE",
"335 0 LINE",
"447 0 LINE",
"447 142 LINE"
);
},
{
closed = 1;
nodes = (
"284 449 LINE SMOOTH",
"309 486 OFFCURVE",
"321 507 OFFCURVE",
"333 531 CURVE",
"336 531 LINE",
"335 503 OFFCURVE",
"335 491 OFFCURVE",
"335 451 CURVE SMOOTH",
"335 241 LINE",
"140 241 LINE"
);
}
);
width = 569;
}
);
note = four;
unicode = 0034;
},
{
glyphname = five;
layers = (
{
hints = (
{
horizontal = 1;
place = "{-22, 103}";
type = Stem;
},
{
horizontal = 1;
place = "{338, 102}";
type = Stem;
},
{
horizontal = 1;
place = "{579, 103}";
type = Stem;
},
{
place = "{397, 121}";
type = Stem;
}
);
layerId = "D2FC741B-AB3D-47FE-B7ED-22FDCD907D24";
paths = (
{
closed = 1;
nodes = (
"226 579 LINE",
"471 579 LINE",
"471 682 LINE",
"124 682 LINE",
"89 316 LINE",
"141 329 OFFCURVE",
"201 338 OFFCURVE",
"248 338 CURVE SMOOTH",
"346 338 OFFCURVE",
"397 289 OFFCURVE",
"397 206 CURVE SMOOTH",
"397 130 OFFCURVE",
"345 81 OFFCURVE",
"283 81 CURVE SMOOTH",
"211 81 OFFCURVE",
"176 125 OFFCURVE",
"169 175 CURVE",
"48 175 LINE",
"56 70 OFFCURVE",
"134 -22 OFFCURVE",
"280 -22 CURVE SMOOTH",
"434 -22 OFFCURVE",
"518 99 OFFCURVE",
"518 216 CURVE SMOOTH",
"518 355 OFFCURVE",
"421 440 OFFCURVE",
"276 440 CURVE SMOOTH",
"255 440 OFFCURVE",
"230 437 OFFCURVE",
"211 432 CURVE"
);
}
);
width = 569;
}
);
note = five;
unicode = 0035;
},
{
glyphname = six;
layers = (
{
hints = (
{
horizontal = 1;
place = "{-22, 101}";
type = Stem;
},
{
horizontal = 1;
place = "{371, 100}";
type = Stem;
},
{
horizontal = 1;
place = "{682, -20}";
target = down;
type = TopGhost;
},
{
place = "{29, 118}";
type = Stem;
},
{
place = "{421, 118}";
type = Stem;
}
);
layerId = "D2FC741B-AB3D-47FE-B7ED-22FDCD907D24";
paths = (
{
closed = 1;
nodes = (
"29 81 OFFCURVE",
"134 -22 OFFCURVE",
"283 -22 CURVE SMOOTH",
"431 -22 OFFCURVE",
"539 89 OFFCURVE",
"539 225 CURVE SMOOTH",
"539 363 OFFCURVE",
"442 467 OFFCURVE",
"312 471 CURVE SMOOTH",
"293 471 OFFCURVE",
"267 468 OFFCURVE",
"254 463 CURVE",
"412 682 LINE",
"284 682 LINE",
"113 443 LINE SMOOTH",
"66 375 OFFCURVE",
"29 308 OFFCURVE",
"29 225 CURVE SMOOTH"
);
},
{
closed = 1;
nodes = (
"147 311 OFFCURVE",
"203 371 OFFCURVE",
"283 371 CURVE SMOOTH",
"366 371 OFFCURVE",
"421 307 OFFCURVE",
"421 224 CURVE SMOOTH",
"421 140 OFFCURVE",
"362 79 OFFCURVE",
"283 79 CURVE SMOOTH",
"207 79 OFFCURVE",
"147 140 OFFCURVE",
"147 224 CURVE SMOOTH"
);
}
);
width = 569;
}
);
note = six;
unicode = 0036;
},
{
glyphname = seven;
layers = (
{
hints = (
{
horizontal = 1;
place = "{0, 21}";
target = up;
type = BottomGhost;
},
{
horizontal = 1;
place = "{579, 103}";
type = Stem;
}
);
layerId = "D2FC741B-AB3D-47FE-B7ED-22FDCD907D24";
paths = (
{
closed = 1;
nodes = (
"507 682 LINE",
"72 682 LINE",
"72 579 LINE",
"387 579 LINE",
"107 0 LINE",
"233 0 LINE",
"507 586 LINE"
);
}
);
width = 569;
}
);
note = seven;
unicode = 0037;
},
{
glyphname = eight;
layers = (
{
hints = (
{
horizontal = 1;
place = "{-21, 97}";
type = Stem;
},
{
horizontal = 1;
place = "{315, 90}";
type = Stem;
},
{
horizontal = 1;
place = "{606, 98}";
type = Stem;
},
{
place = "{68, 116}";
type = Stem;
},
{
place = "{385, 115}";
type = Stem;
},
{
place = "{48, 118}";
type = Stem;
},
{
place = "{404, 117}";
type = Stem;
}
);
layerId = "D2FC741B-AB3D-47FE-B7ED-22FDCD907D24";
paths = (
{
closed = 1;
nodes = (
"184 568 OFFCURVE",
"230 606 OFFCURVE",
"284 606 CURVE SMOOTH",
"342 606 OFFCURVE",
"385 568 OFFCURVE",
"385 508 CURVE SMOOTH",
"385 448 OFFCURVE",
"344 405 OFFCURVE",
"283 405 CURVE SMOOTH",
"232 405 OFFCURVE",
"184 447 OFFCURVE",
"184 508 CURVE SMOOTH"
);
},
{
closed = 1;
nodes = (
"166 265 OFFCURVE",
"217 315 OFFCURVE",
"287 315 CURVE SMOOTH",
"355 315 OFFCURVE",
"404 266 OFFCURVE",
"404 195 CURVE SMOOTH",
"404 118 OFFCURVE",
"355 76 OFFCURVE",
"286 76 CURVE SMOOTH",
"215 76 OFFCURVE",
"166 126 OFFCURVE",
"166 195 CURVE SMOOTH"
);
},
{
closed = 1;
nodes = (
"521 273 OFFCURVE",
"480 336 OFFCURVE",
"400 365 CURVE",
"400 367 LINE",
"458 388 OFFCURVE",
"500 445 OFFCURVE",
"500 522 CURVE SMOOTH",
"500 619 OFFCURVE",
"417 704 OFFCURVE",
"285 704 CURVE SMOOTH",
"151 704 OFFCURVE",
"68 619 OFFCURVE",
"68 518 CURVE SMOOTH",
"68 448 OFFCURVE",
"103 395 OFFCURVE",
"169 367 CURVE",
"169 365 LINE",
"94 335 OFFCURVE",
"48 276 OFFCURVE",
"48 185 CURVE SMOOTH",
"48 76 OFFCURVE",
"126 -21 OFFCURVE",
"285 -21 CURVE SMOOTH",
"445 -21 OFFCURVE",
"521 80 OFFCURVE",
"521 190 CURVE SMOOTH"
);
}
);
width = 569;
}
);
note = eight;
unicode = 0038;
},
{
glyphname = nine;
layers = (
{
hints = (
{
horizontal = 1;
place = "{0, 21}";
target = up;
type = BottomGhost;
},
{
horizontal = 1;
place = "{211, 100}";
type = Stem;
},
{
horizontal = 1;
place = "{603, 101}";
type = Stem;
},
{
place = "{30, 118}";
type = Stem;
},
{
place = "{421, 118}";
type = Stem;
}
);
layerId = "D2FC741B-AB3D-47FE-B7ED-22FDCD907D24";
paths = (
{
closed = 1;
nodes = (
"539 601 OFFCURVE",
"434 704 OFFCURVE",
"286 704 CURVE SMOOTH",
"137 704 OFFCURVE",
"30 593 OFFCURVE",
"30 457 CURVE SMOOTH",
"30 319 OFFCURVE",
"123 214 OFFCURVE",
"256 211 CURVE SMOOTH",
"275 211 OFFCURVE",
"302 214 OFFCURVE",
"314 219 CURVE",
"157 0 LINE",
"284 0 LINE",
"455 239 LINE SMOOTH",
"503 307 OFFCURVE",
"539 374 OFFCURVE",
"539 457 CURVE SMOOTH"
);
},
{
closed = 1;
nodes = (
"421 371 OFFCURVE",
"366 311 OFFCURVE",
"285 311 CURVE SMOOTH",
"203 311 OFFCURVE",
"148 375 OFFCURVE",
"148 458 CURVE SMOOTH",
"148 542 OFFCURVE",
"207 603 OFFCURVE",
"285 603 CURVE SMOOTH",
"362 603 OFFCURVE",
"421 542 OFFCURVE",
"421 458 CURVE SMOOTH"
);
}
);
width = 569;
}
);
note = nine;
unicode = 0039;
},
{
glyphname = colon;
layers = (
{
hints = (
{
horizontal = 1;
place = "{0, 21}";
target = up;
type = BottomGhost;
},
{
horizontal = 1;
place = "{468, -20}";
target = down;
type = TopGhost;
}
);
layerId = "D2FC741B-AB3D-47FE-B7ED-22FDCD907D24";
paths = (
{
closed = 1;
nodes = (
"62 333 LINE",
"202 333 LINE",
"202 468 LINE",
"62 468 LINE"
);
},
{
closed = 1;
nodes = (
"62 0 LINE",
"202 0 LINE",
"202 135 LINE",
"62 135 LINE"
);
}
);
width = 264;
}
);
leftKerningGroup = colon;
note = colon;
rightKerningGroup = colon;
unicode = 003A;
},
{
glyphname = semicolon;
layers = (
{
hints = (
{
horizontal = 1;
place = "{-135, 21}";
target = up;
type = BottomGhost;
},
{
horizontal = 1;
place = "{0, 21}";
target = up;
type = BottomGhost;
},
{
horizontal = 1;
place = "{468, -20}";
target = down;
type = TopGhost;
}
);
layerId = "D2FC741B-AB3D-47FE-B7ED-22FDCD907D24";
paths = (
{
closed = 1;
nodes = (
"62 0 LINE",
"118 0 LINE",
"113 -40 OFFCURVE",
"100 -90 OFFCURVE",
"72 -135 CURVE",
"141 -135 LINE",
"167 -94 OFFCURVE",
"202 -28 OFFCURVE",
"202 71 CURVE SMOOTH",
"202 135 LINE",
"62 135 LINE"
);
},
{
closed = 1;
nodes = (
"62 333 LINE",
"202 333 LINE",
"202 468 LINE",
"62 468 LINE"
);
}
);
width = 264;
}
);
leftKerningGroup = colon;
note = semicolon;
rightKerningGroup = colon;
unicode = 003B;
},
{
glyphname = less;
layers = (
{
hints = (
{
horizontal = 1;
place = "{-4, 21}";
target = up;
type = BottomGhost;
},
{
horizontal = 1;
place = "{534, -20}";
target = down;
type = TopGhost;
}
);
layerId = "D2FC741B-AB3D-47FE-B7ED-22FDCD907D24";
paths = (
{
closed = 1;
nodes = (
"588 -4 LINE",
"588 99 LINE",
"210 264 LINE",
"210 266 LINE",
"588 432 LINE",
"588 534 LINE",
"83 304 LINE",
"83 226 LINE"
);
}
);
width = 672;
}
);
note = less;
unicode = 003C;
},
{
glyphname = equal;
layers = (
{
hints = (
{
horizontal = 1;
place = "{107, 90}";
type = Stem;
},
{
horizontal = 1;
place = "{333, 90}";
type = Stem;
}
);
layerId = "D2FC741B-AB3D-47FE-B7ED-22FDCD907D24";
paths = (
{
closed = 1;
nodes = (
"595 333 LINE",
"595 423 LINE",
"76 423 LINE",
"76 333 LINE"
);
},
{
closed = 1;
nodes = (
"595 107 LINE",
"595 197 LINE",
"76 197 LINE",
"76 107 LINE"
);
}
);
width = 672;
}
);
note = equal;
unicode = 003D;
},
{
glyphname = greater;
layers = (
{
hints = (
{
horizontal = 1;
place = "{-4, 21}";
target = up;
type = BottomGhost;
},
{
horizontal = 1;
place = "{534, -20}";
target = down;
type = TopGhost;
}
);
layerId = "D2FC741B-AB3D-47FE-B7ED-22FDCD907D24";
paths = (
{
closed = 1;
nodes = (
"588 226 LINE",
"588 304 LINE",
"83 534 LINE",
"83 432 LINE",
"462 266 LINE",
"462 263 LINE",
"83 98 LINE",
"83 -4 LINE"
);
}
);
width = 672;
}
);
note = greater;
unicode = 003E;
},
{
glyphname = question;
layers = (
{
hints = (
{
horizontal = 1;
place = "{0, 112}";
type = Stem;
},
{
horizontal = 1;
place = "{603, 101}";
type = Stem;
},
{
place = "{17, 114}";
type = Stem;
},
{
place = "{165, 119}";
type = Stem;
},
{
place = "{314, 118}";
type = Stem;
}
);
layerId = "D2FC741B-AB3D-47FE-B7ED-22FDCD907D24";
paths = (
{
closed = 1;
nodes = (
"384 376 OFFCURVE",
"432 435 OFFCURVE",
"432 520 CURVE SMOOTH",
"432 621 OFFCURVE",
"358 704 OFFCURVE",
"227 704 CURVE SMOOTH",
"104 704 OFFCURVE",
"20 624 OFFCURVE",
"17 501 CURVE",
"131 501 LINE",
"131 565 OFFCURVE",
"172 603 OFFCURVE",
"223 603 CURVE SMOOTH",
"280 603 OFFCURVE",
"314 563 OFFCURVE",
"314 512 CURVE SMOOTH",
"314 454 OFFCURVE",
"281 427 OFFCURVE",
"227 367 CURVE SMOOTH",
"183 317 OFFCURVE",
"175 275 OFFCURVE",
"175 202 CURVE",
"275 202 LINE",
"275 257 OFFCURVE",
"290 289 OFFCURVE",
"327 325 CURVE SMOOTH"
);
},
{
closed = 1;
nodes = (
"165 0 LINE",
"284 0 LINE",
"284 112 LINE",
"165 112 LINE"
);
}
);
width = 454;
}
);
note = question;
unicode = 003F;
},
{
glyphname = at;
layers = (
{
hints = (
{
horizontal = 1;
place = "{-91, 71}";
type = Stem;
},
{
horizontal = 1;
place = "{90, 71}";
type = Stem;
},
{
horizontal = 1;
place = "{450, 73}";
type = Stem;
},
{
horizontal = 1;
place = "{633, 71}";
type = Stem;
},
{
place = "{58, 85}";
type = Stem;
},
{
place = "{261, 94}";
type = Stem;
},
{
place = "{561, 74}";
type = Stem;
},
{
place = "{797, 85}";
type = Stem;
}
);
layerId = "D2FC741B-AB3D-47FE-B7ED-22FDCD907D24";
paths = (
{
closed = 1;
nodes = (
"882 538 OFFCURVE",
"757 704 OFFCURVE",
"484 704 CURVE SMOOTH",
"231 704 OFFCURVE",
"58 520 OFFCURVE",
"58 289 CURVE SMOOTH",
"58 57 OFFCURVE",
"226 -91 OFFCURVE",
"465 -91 CURVE SMOOTH",
"561 -91 OFFCURVE",
"647 -74 OFFCURVE",
"702 -44 CURVE",
"675 16 LINE",
"631 -5 OFFCURVE",
"555 -20 OFFCURVE",
"473 -20 CURVE SMOOTH",
"270 -20 OFFCURVE",
"143 104 OFFCURVE",
"143 288 CURVE SMOOTH",
"143 472 OFFCURVE",
"269 633 OFFCURVE",
"479 633 CURVE SMOOTH",
"691 633 OFFCURVE",
"797 527 OFFCURVE",
"797 351 CURVE SMOOTH",
"797 241 OFFCURVE",
"754 161 OFFCURVE",
"693 161 CURVE SMOOTH",
"650 161 OFFCURVE",
"635 187 OFFCURVE",
"635 217 CURVE SMOOTH",
"635 231 OFFCURVE",
"638 249 OFFCURVE",
"640 268 CURVE SMOOTH",
"678 513 LINE",
"588 513 LINE",
"578 455 LINE",
"576 455 LINE",
"554 495 OFFCURVE",
"515 523 OFFCURVE",
"465 523 CURVE SMOOTH",
"339 523 OFFCURVE",
"261 399 OFFCURVE",
"261 274 CURVE SMOOTH",
"261 169 OFFCURVE",
"317 90 OFFCURVE",
"416 90 CURVE SMOOTH",
"468 90 OFFCURVE",
"528 122 OFFCURVE",
"559 181 CURVE",
"563 181 LINE",
"570 123 OFFCURVE",
"616 90 OFFCURVE",
"685 90 CURVE SMOOTH",
"795 90 OFFCURVE",
"882 200 OFFCURVE",
"882 356 CURVE SMOOTH"
);
},
{
closed = 1;
nodes = (
"561 255 OFFCURVE",
"515 163 OFFCURVE",
"436 163 CURVE SMOOTH",
"386 163 OFFCURVE",
"355 207 OFFCURVE",
"355 276 CURVE SMOOTH",
"355 364 OFFCURVE",
"399 450 OFFCURVE",
"477 450 CURVE SMOOTH",
"532 450 OFFCURVE",
"561 409 OFFCURVE",
"561 345 CURVE SMOOTH"
);
}
);
width = 941;
}
);
note = at;
unicode = 0040;
},
{
glyphname = A;
layers = (
{
hints = (
{
horizontal = 1;
place = "{0, 21}";
target = up;
type = BottomGhost;
},
{
horizontal = 1;
place = "{167, 90}";
type = Stem;
},
{
horizontal = 1;
place = "{682, -20}";
target = down;
type = TopGhost;
}
);
layerId = "D2FC741B-AB3D-47FE-B7ED-22FDCD907D24";
paths = (
{
closed = 1;
nodes = (
"7 0 LINE",
"127 0 LINE",
"189 167 LINE",
"461 167 LINE",
"522 0 LINE",
"645 0 LINE",
"386 682 LINE",
"278 682 LINE"
);
},
{
closed = 1;
nodes = (
"284 431 LINE SMOOTH",
"298 468 OFFCURVE",
"313 513 OFFCURVE",
"324 550 CURVE",
"329 550 LINE",
"339 514 OFFCURVE",
"353 470 OFFCURVE",
"367 432 CURVE SMOOTH",
"430 257 LINE",
"220 257 LINE"
);
}
);
width = 652;
}
);
leftKerningGroup = A;
note = A;
rightKerningGroup = A;
unicode = 0041;
},
{
glyphname = B;
layers = (
{
hints = (
{
horizontal = 1;
place = "{0, 95}";
type = Stem;
},
{
horizontal = 1;
place = "{309, 93}";
type = Stem;
},
{
horizontal = 1;
place = "{588, 94}";
type = Stem;
},
{
place = "{71, 113}";
type = Stem;
},
{
place = "{396, 120}";
type = Stem;
},
{
place = "{396, 78}";
type = Stem;
},
{
place = "{356, 118}";
type = Stem;
}
);
layerId = "D2FC741B-AB3D-47FE-B7ED-22FDCD907D24";
paths = (
{
closed = 1;
nodes = (
"71 0 LINE",
"282 0 LINE SMOOTH",
"414 0 OFFCURVE",
"516 66 OFFCURVE",
"516 193 CURVE SMOOTH",
"516 276 OFFCURVE",
"462 350 OFFCURVE",
"357 363 CURVE",
"357 365 LINE",
"420 384 OFFCURVE",
"474 432 OFFCURVE",
"474 509 CURVE SMOOTH",
"474 620 OFFCURVE",
"385 682 OFFCURVE",
"244 682 CURVE SMOOTH",
"71 682 LINE"
);
},
{
closed = 1;
nodes = (
"396 136 OFFCURVE",
"356 95 OFFCURVE",
"276 95 CURVE SMOOTH",
"184 95 LINE",
"184 309 LINE",
"267 309 LINE SMOOTH",
"350 309 OFFCURVE",
"396 267 OFFCURVE",
"396 202 CURVE SMOOTH"
);
},
{
closed = 1;
nodes = (
"356 440 OFFCURVE",
"318 402 OFFCURVE",
"245 402 CURVE SMOOTH",
"184 402 LINE",
"184 588 LINE",
"240 588 LINE SMOOTH",
"310 588 OFFCURVE",
"356 559 OFFCURVE",
"356 498 CURVE SMOOTH"
);
}
);
width = 554;
}
);
leftKerningGroup = B;
note = B;
rightKerningGroup = B;
unicode = 0042;
},
{
glyphname = C;
layers = (
{
hints = (
{
horizontal = 1;
place = "{-22, 102}";
type = Stem;
},
{
horizontal = 1;
place = "{482, -20}";
target = down;
type = TopGhost;
},
{
horizontal = 1;
place = "{602, 102}";
type = Stem;
},
{
place = "{35, 121}";
type = Stem;
}
);
layerId = "D2FC741B-AB3D-47FE-B7ED-22FDCD907D24";
paths = (
{
closed = 1;
nodes = (
"186 704 OFFCURVE",
"35 551 OFFCURVE",
"35 343 CURVE SMOOTH",
"35 135 OFFCURVE",
"176 -22 OFFCURVE",
"387 -22 CURVE SMOOTH",
"565 -22 OFFCURVE",
"670 79 OFFCURVE",
"719 212 CURVE",
"587 212 LINE",
"560 140 OFFCURVE",
"495 80 OFFCURVE",
"391 80 CURVE SMOOTH",
"252 80 OFFCURVE",
"156 198 OFFCURVE",
"156 342 CURVE SMOOTH",
"156 503 OFFCURVE",
"260 602 OFFCURVE",
"387 602 CURVE SMOOTH",
"488 602 OFFCURVE",
"555 547 OFFCURVE",
"579 482 CURVE",
"708 482 LINE",
"679 585 OFFCURVE",
"578 704 OFFCURVE",
"388 704 CURVE SMOOTH"
);
}
);
width = 764;
}
);
leftKerningGroup = C;
note = C;
rightKerningGroup = C;
unicode = 0043;
},
{
glyphname = D;
layers = (
{
hints = (
{
horizontal = 1;
place = "{0, 105}";
type = Stem;
},
{
horizontal = 1;
place = "{577, 105}";
type = Stem;
},
{
place = "{71, 118}";
type = Stem;
},
{
place = "{552, 121}";
type = Stem;
}
);
layerId = "D2FC741B-AB3D-47FE-B7ED-22FDCD907D24";
paths = (
{
closed = 1;
nodes = (
"71 682 LINE",
"71 0 LINE",
"297 0 LINE SMOOTH",
"537 0 OFFCURVE",
"673 156 OFFCURVE",
"673 341 CURVE SMOOTH",
"673 527 OFFCURVE",
"545 682 OFFCURVE",
"299 682 CURVE SMOOTH"
);
},
{
closed = 1;
nodes = (
"189 105 LINE",
"189 577 LINE",
"297 577 LINE SMOOTH",
"464 577 OFFCURVE",
"552 480 OFFCURVE",
"552 341 CURVE SMOOTH",
"552 212 OFFCURVE",
"470 105 OFFCURVE",
"297 105 CURVE SMOOTH"
);
}
);
width = 708;
}
);
leftKerningGroup = B;
note = D;
rightKerningGroup = D;
unicode = 0044;
},
{
glyphname = E;
layers = (
{
hints = (
{
horizontal = 1;
place = "{0, 104}";
type = Stem;
},
{
horizontal = 1;
place = "{302, 101}";
type = Stem;
},
{
horizontal = 1;
place = "{578, 104}";
type = Stem;
},
{
place = "{70, 118}";
type = Stem;
}
);
layerId = "D2FC741B-AB3D-47FE-B7ED-22FDCD907D24";
paths = (
{
closed = 1;
nodes = (
"464 682 LINE",
"70 682 LINE",
"70 0 LINE",
"475 0 LINE",
"475 104 LINE",
"188 104 LINE",
"188 302 LINE",
"454 302 LINE",
"454 403 LINE",
"188 403 LINE",
"188 578 LINE",
"464 578 LINE"
);
}
);
width = 535;
}
);
leftKerningGroup = B;
note = E;
rightKerningGroup = E;
unicode = 0045;
},
{
glyphname = F;
layers = (
{
hints = (
{
horizontal = 1;
place = "{0, 21}";
target = up;
type = BottomGhost;
},
{
horizontal = 1;
place = "{288, 100}";
type = Stem;
},
{
horizontal = 1;
place = "{578, 104}";
type = Stem;
},
{
place = "{70, 119}";
type = Stem;
}
);
layerId = "D2FC741B-AB3D-47FE-B7ED-22FDCD907D24";
paths = (
{
closed = 1;
nodes = (
"464 682 LINE",
"70 682 LINE",
"70 0 LINE",
"189 0 LINE",
"189 288 LINE",
"454 288 LINE",
"454 388 LINE",
"189 388 LINE",
"189 578 LINE",
"464 578 LINE"
);
}
);
width = 508;
}
);
leftKerningGroup = B;
note = F;
unicode = 0046;
},
{
glyphname = G;
layers = (
{
hints = (
{
horizontal = 1;
place = "{-21, 102}";
type = Stem;
},
{
horizontal = 1;
place = "{273, 100}";
type = Stem;
},
{
horizontal = 1;
place = "{601, 102}";
type = Stem;
},
{
place = "{35, 121}";
type = Stem;
}
);
layerId = "D2FC741B-AB3D-47FE-B7ED-22FDCD907D24";
paths = (
{
closed = 1;
nodes = (
"355 373 LINE",
"355 273 LINE",
"612 273 LINE",
"600 165 OFFCURVE",
"515 81 OFFCURVE",
"398 81 CURVE SMOOTH",
"259 81 OFFCURVE",
"156 182 OFFCURVE",
"156 342 CURVE SMOOTH",
"156 494 OFFCURVE",
"253 601 OFFCURVE",
"392 601 CURVE SMOOTH",
"484 601 OFFCURVE",
"554 560 OFFCURVE",
"587 497 CURVE",
"715 497 LINE",
"669 620 OFFCURVE",
"555 703 OFFCURVE",
"389 703 CURVE SMOOTH",
"186 703 OFFCURVE",
"35 544 OFFCURVE",
"35 339 CURVE SMOOTH",
"35 144 OFFCURVE",
"179 -21 OFFCURVE",
"389 -21 CURVE SMOOTH",
"620 -21 OFFCURVE",
"738 158 OFFCURVE",
"738 351 CURVE SMOOTH",
"738 373 LINE"
);
}
);
width = 773;
}
);
leftKerningGroup = C;
note = G;
rightKerningGroup = G;
unicode = 0047;
},
{
glyphname = H;
layers = (
{
hints = (
{
horizontal = 1;
place = "{0, 21}";
target = up;
type = BottomGhost;
},
{
horizontal = 1;
place = "{300, 105}";
type = Stem;
},
{
horizontal = 1;
place = "{682, -20}";
target = down;
type = TopGhost;
},
{
place = "{71, 118}";
type = Stem;
},
{
place = "{504, 118}";
type = Stem;
}
);
layerId = "D2FC741B-AB3D-47FE-B7ED-22FDCD907D24";
paths = (
{
closed = 1;
nodes = (
"504 0 LINE",
"622 0 LINE",
"622 682 LINE",
"504 682 LINE",
"504 405 LINE",
"189 405 LINE",
"189 682 LINE",
"71 682 LINE",
"71 0 LINE",
"189 0 LINE",
"189 300 LINE",
"504 300 LINE"
);
}
);
width = 693;
}
);
leftKerningGroup = B;
note = H;
rightKerningGroup = H;
unicode = 0048;
},
{
glyphname = I;
layers = (
{
hints = (
{
horizontal = 1;
place = "{0, 21}";
target = up;
type = BottomGhost;
},
{
horizontal = 1;
place = "{682, -20}";
target = down;
type = TopGhost;
},
{
place = "{70, 118}";
type = Stem;
}
);
layerId = "D2FC741B-AB3D-47FE-B7ED-22FDCD907D24";
paths = (
{
closed = 1;
nodes = (
"70 0 LINE",
"188 0 LINE",
"188 682 LINE",
"70 682 LINE"
);
}
);
width = 259;
}
);
leftKerningGroup = B;
note = I;
rightKerningGroup = H;
unicode = 0049;
},
{
glyphname = J;
layers = (
{
hints = (
{
horizontal = 1;
place = "{-21, 102}";
type = Stem;
},
{
horizontal = 1;
place = "{682, -20}";
target = down;
type = TopGhost;
},
{
place = "{189, 118}";
type = Stem;
}
);
layerId = "D2FC741B-AB3D-47FE-B7ED-22FDCD907D24";
paths = (
{
closed = 1;
nodes = (
"189 190 LINE SMOOTH",
"189 110 OFFCURVE",
"161 81 OFFCURVE",
"99 81 CURVE SMOOTH",
"74 81 OFFCURVE",
"32 90 OFFCURVE",
"10 100 CURVE",
"10 -1 LINE",
"34 -11 OFFCURVE",
"79 -21 OFFCURVE",
"114 -21 CURVE SMOOTH",
"238 -21 OFFCURVE",
"307 38 OFFCURVE",
"307 195 CURVE SMOOTH",
"307 682 LINE",
"189 682 LINE"
);
}
);
width = 369;
}
);
leftKerningGroup = J;
note = J;
rightKerningGroup = J;
unicode = 004A;
},
{
glyphname = K;
layers = (
{
hints = (
{
horizontal = 1;
place = "{0, 21}";
target = up;
type = BottomGhost;
},
{
horizontal = 1;
place = "{682, -20}";
target = down;
type = TopGhost;
},
{
place = "{71, 118}";
type = Stem;
}
);
layerId = "D2FC741B-AB3D-47FE-B7ED-22FDCD907D24";
paths = (
{
closed = 1;
nodes = (
"494 0 LINE",
"645 0 LINE",
"325 388 LINE",
"612 682 LINE",
"461 682 LINE",
"189 396 LINE",
"189 682 LINE",
"71 682 LINE",
"71 0 LINE",
"189 0 LINE",
"189 252 LINE",
"204 267 OFFCURVE",
"227 292 OFFCURVE",
"243 308 CURVE"
);
}
);
width = 629;
}
);
leftKerningGroup = B;
note = K;
rightKerningGroup = K;
unicode = 004B;
},
{
glyphname = L;
layers = (
{
hints = (
{
horizontal = 1;
place = "{0, 104}";
type = Stem;
},
{
horizontal = 1;
place = "{682, -20}";
target = down;
type = TopGhost;
},
{
place = "{70, 118}";
type = Stem;
}
);
layerId = "D2FC741B-AB3D-47FE-B7ED-22FDCD907D24";
paths = (
{
closed = 1;
nodes = (
"70 0 LINE",
"475 0 LINE",
"475 104 LINE",
"188 104 LINE",
"188 682 LINE",
"70 682 LINE"
);
}
);
width = 485;
}
);
leftKerningGroup = B;
note = L;
rightKerningGroup = L;
unicode = 004C;
},
{
glyphname = M;
layers = (
{
hints = (
{
horizontal = 1;
place = "{0, 21}";
target = up;
type = BottomGhost;
},
{
horizontal = 1;
place = "{682, -20}";
target = down;
type = TopGhost;
}
);
layerId = "D2FC741B-AB3D-47FE-B7ED-22FDCD907D24";
paths = (
{
closed = 1;
nodes = (
"702 682 LINE",
"568 682 LINE",
"449 311 LINE SMOOTH",
"438 276 OFFCURVE",
"421 223 OFFCURVE",
"412 186 CURVE",
"408 186 LINE",
"399 223 OFFCURVE",
"384 274 OFFCURVE",
"372 311 CURVE SMOOTH",
"252 682 LINE",
"117 682 LINE",
"38 0 LINE",
"146 0 LINE",
"184 369 LINE SMOOTH",
"189 417 OFFCURVE",
"194 475 OFFCURVE",
"196 524 CURVE",
"203 524 LINE",
"214 472 OFFCURVE",
"234 414 OFFCURVE",
"249 368 CURVE SMOOTH",
"363 0 LINE",
"451 0 LINE",
"564 360 LINE SMOOTH",
"580 410 OFFCURVE",
"599 476 OFFCURVE",
"612 524 CURVE",
"617 524 LINE",
"621 481 OFFCURVE",
"627 410 OFFCURVE",
"632 361 CURVE SMOOTH",
"668 0 LINE",
"782 0 LINE"
);
}
);
width = 819;
}
);
leftKerningGroup = M;
note = M;
rightKerningGroup = M;
unicode = 004D;
},
{
glyphname = N;
layers = (
{
hints = (
{
horizontal = 1;
place = "{0, 21}";
target = up;
type = BottomGhost;
},
{
horizontal = 1;
place = "{682, -20}";
target = down;
type = TopGhost;
},
{
place = "{70, 105}";
type = Stem;
},
{
place = "{500, 104}";
type = Stem;
}
);
layerId = "D2FC741B-AB3D-47FE-B7ED-22FDCD907D24";
paths = (
{
closed = 1;
nodes = (
"175 503 LINE",
"196 465 OFFCURVE",
"222 420 OFFCURVE",
"306 293 CURVE SMOOTH",
"500 0 LINE",
"604 0 LINE",
"604 682 LINE",
"500 682 LINE",
"500 309 LINE SMOOTH",
"500 276 OFFCURVE",
"501 212 OFFCURVE",
"502 176 CURVE",
"500 176 LINE",
"480 214 OFFCURVE",
"448 269 OFFCURVE",
"378 374 CURVE SMOOTH",
"175 682 LINE",
"70 682 LINE",
"70 0 LINE",
"175 0 LINE",
"175 367 LINE SMOOTH",
"175 401 OFFCURVE",
"173 469 OFFCURVE",
"172 503 CURVE"
);
}
);
width = 675;
}
);
leftKerningGroup = B;
note = N;
rightKerningGroup = H;
unicode = 004E;
},
{
glyphname = O;
layers = (
{
hints = (
{
horizontal = 1;
place = "{-22, 106}";
type = Stem;
},
{
horizontal = 1;
place = "{598, 106}";
type = Stem;
},
{
place = "{35, 121}";
type = Stem;
},
{
place = "{637, 121}";
type = Stem;
}
);
layerId = "D2FC741B-AB3D-47FE-B7ED-22FDCD907D24";
paths = (
{
closed = 1;
nodes = (
"156 489 OFFCURVE",
"261 598 OFFCURVE",
"397 598 CURVE SMOOTH",
"541 598 OFFCURVE",
"637 485 OFFCURVE",
"637 341 CURVE SMOOTH",
"637 194 OFFCURVE",
"533 84 OFFCURVE",
"396 84 CURVE SMOOTH",
"260 84 OFFCURVE",
"156 194 OFFCURVE",
"156 341 CURVE SMOOTH"
);
},
{
closed = 1;
nodes = (
"35 172 OFFCURVE",
"147 -22 OFFCURVE",
"397 -22 CURVE SMOOTH",
"603 -22 OFFCURVE",
"758 142 OFFCURVE",
"758 341 CURVE SMOOTH",
"758 531 OFFCURVE",
"622 704 OFFCURVE",
"398 704 CURVE SMOOTH",
"187 704 OFFCURVE",
"35 536 OFFCURVE",
"35 341 CURVE SMOOTH"
);
}
);
width = 793;
}
);
leftKerningGroup = C;
note = O;
rightKerningGroup = D;
unicode = 004F;
},
{
glyphname = P;
layers = (
{
hints = (
{
horizontal = 1;
place = "{0, 21}";
target = up;
type = BottomGhost;
},
{
horizontal = 1;
place = "{249, 98}";
type = Stem;
},
{
horizontal = 1;
place = "{583, 99}";
type = Stem;
},
{
place = "{70, 118}";
type = Stem;
},
{
place = "{415, 120}";
type = Stem;
}
);
layerId = "D2FC741B-AB3D-47FE-B7ED-22FDCD907D24";
paths = (
{
closed = 1;
nodes = (
"415 403 OFFCURVE",
"387 347 OFFCURVE",
"279 347 CURVE SMOOTH",
"188 347 LINE",
"188 583 LINE",
"281 583 LINE SMOOTH",
"377 583 OFFCURVE",
"415 531 OFFCURVE",
"415 465 CURVE SMOOTH"
);
},
{
closed = 1;
nodes = (
"70 0 LINE",
"188 0 LINE",
"188 249 LINE",
"274 249 LINE SMOOTH",
"453 249 OFFCURVE",
"535 332 OFFCURVE",
"535 467 CURVE SMOOTH",
"535 614 OFFCURVE",
"426 682 OFFCURVE",
"280 682 CURVE SMOOTH",
"70 682 LINE"
);
}
);
width = 554;
}
);
leftKerningGroup = B;
note = P;
rightKerningGroup = P;
unicode = 0050;
},
{
glyphname = Q;
layers = (
{
hints = (
{
horizontal = 1;
place = "{-106, 21}";
target = up;
type = BottomGhost;
},
{
horizontal = 1;
place = "{-22, 106}";
type = Stem;
},
{
horizontal = 1;
place = "{598, 106}";
type = Stem;
},
{
place = "{34, 121}";
type = Stem;
},
{
place = "{636, 121}";
type = Stem;
}
);
layerId = "D2FC741B-AB3D-47FE-B7ED-22FDCD907D24";
paths = (
{
closed = 1;
nodes = (
"650 -106 LINE",
"731 -40 LINE",
"640 72 LINE",
"713 138 OFFCURVE",
"757 234 OFFCURVE",
"757 341 CURVE SMOOTH",
"757 531 OFFCURVE",
"621 704 OFFCURVE",
"397 704 CURVE SMOOTH",
"186 704 OFFCURVE",
"34 536 OFFCURVE",
"34 341 CURVE SMOOTH",
"34 172 OFFCURVE",
"147 -22 OFFCURVE",
"396 -22 CURVE SMOOTH",
"453 -22 OFFCURVE",
"506 -9 OFFCURVE",
"553 13 CURVE"
);
},
{
closed = 1;
nodes = (
"155 489 OFFCURVE",
"260 598 OFFCURVE",
"396 598 CURVE SMOOTH",
"540 598 OFFCURVE",
"636 485 OFFCURVE",
"636 341 CURVE SMOOTH",
"636 268 OFFCURVE",
"611 206 OFFCURVE",
"568 160 CURVE",
"474 277 LINE",
"393 211 LINE",
"482 101 LINE",
"455 90 OFFCURVE",
"427 84 OFFCURVE",
"395 84 CURVE SMOOTH",
"260 84 OFFCURVE",
"155 194 OFFCURVE",
"155 341 CURVE SMOOTH"
);
}
);
width = 793;
}
);
leftKerningGroup = C;
note = Q;
rightKerningGroup = D;
unicode = 0051;
},
{
glyphname = R;
layers = (
{
hints = (
{
horizontal = 1;
place = "{0, 21}";
target = up;
type = BottomGhost;
},
{
horizontal = 1;
place = "{275, 93}";
type = Stem;
},
{
horizontal = 1;
place = "{583, 99}";
type = Stem;
},
{
place = "{70, 118}";
type = Stem;
},
{
place = "{402, 122}";
type = Stem;
}
);
layerId = "D2FC741B-AB3D-47FE-B7ED-22FDCD907D24";
paths = (
{
closed = 1;
nodes = (
"377 290 LINE",
"457 310 OFFCURVE",
"524 380 OFFCURVE",
"524 477 CURVE SMOOTH",
"524 582 OFFCURVE",
"459 682 OFFCURVE",
"276 682 CURVE SMOOTH",
"70 682 LINE",
"70 0 LINE",
"188 0 LINE",
"188 275 LINE",
"253 275 LINE",
"447 0 LINE",
"589 0 LINE"
);
},
{
closed = 1;
nodes = (
"402 413 OFFCURVE",
"360 368 OFFCURVE",
"285 368 CURVE SMOOTH",
"188 368 LINE",
"188 583 LINE",
"284 583 LINE SMOOTH",
"360 583 OFFCURVE",
"402 543 OFFCURVE",
"402 474 CURVE SMOOTH"
);
}
);
width = 589;
}
);
leftKerningGroup = B;
note = R;
rightKerningGroup = R;
unicode = 0052;
},
{
glyphname = S;
layers = (
{
hints = (
{
horizontal = 1;
place = "{-22, 98}";
type = Stem;
},
{
horizontal = 1;
place = "{606, 98}";
type = Stem;
},
{
place = "{68, 116}";
type = Stem;
},
{
place = "{386, 117}";
type = Stem;
}
);
layerId = "D2FC741B-AB3D-47FE-B7ED-22FDCD907D24";
paths = (
{
closed = 1;
nodes = (
"489 520 LINE",
"480 628 OFFCURVE",
"399 704 OFFCURVE",
"277 704 CURVE SMOOTH",
"158 704 OFFCURVE",
"68 628 OFFCURVE",
"68 520 CURVE SMOOTH",
"68 423 OFFCURVE",
"123 353 OFFCURVE",
"254 311 CURVE SMOOTH",
"345 282 OFFCURVE",
"386 246 OFFCURVE",
"386 181 CURVE SMOOTH",
"386 127 OFFCURVE",
"349 76 OFFCURVE",
"280 76 CURVE SMOOTH",
"212 76 OFFCURVE",
"174 119 OFFCURVE",
"163 184 CURVE",
"43 184 LINE",
"61 49 OFFCURVE",
"152 -22 OFFCURVE",
"279 -22 CURVE SMOOTH",
"431 -22 OFFCURVE",
"503 88 OFFCURVE",
"503 188 CURVE SMOOTH",
"503 291 OFFCURVE",
"452 367 OFFCURVE",
"306 413 CURVE SMOOTH",
"231 437 OFFCURVE",
"184 465 OFFCURVE",
"184 521 CURVE SMOOTH",
"184 571 OFFCURVE",
"221 606 OFFCURVE",
"276 606 CURVE SMOOTH",
"332 606 OFFCURVE",
"366 571 OFFCURVE",
"373 520 CURVE"
);
}
);
width = 555;
}
);
leftKerningGroup = S;
note = S;
rightKerningGroup = S;
unicode = 0053;
},
{
glyphname = T;
layers = (
{
hints = (
{
horizontal = 1;
place = "{0, 21}";
target = up;
type = BottomGhost;
},
{
horizontal = 1;
place = "{578, 104}";
type = Stem;
},
{
place = "{180, 118}";
type = Stem;
}
);
layerId = "D2FC741B-AB3D-47FE-B7ED-22FDCD907D24";
paths = (
{
closed = 1;
nodes = (
"180 0 LINE",
"298 0 LINE",
"298 578 LINE",
"468 578 LINE",
"468 682 LINE",
"10 682 LINE",
"10 578 LINE",
"180 578 LINE"
);
}
);
width = 478;
}
);
leftKerningGroup = T;
note = T;
rightKerningGroup = T;
unicode = 0054;
},
{
glyphname = U;
layers = (
{
hints = (
{
horizontal = 1;
place = "{-22, 102}";
type = Stem;
},
{
horizontal = 1;
place = "{682, -20}";
target = down;
type = TopGhost;
},
{
place = "{60, 118}";
type = Stem;
},
{
place = "{453, 117}";
type = Stem;
}
);
layerId = "D2FC741B-AB3D-47FE-B7ED-22FDCD907D24";
paths = (
{
closed = 1;
nodes = (
"460 -22 OFFCURVE",
"570 59 OFFCURVE",
"570 273 CURVE SMOOTH",
"570 682 LINE",
"453 682 LINE",
"453 260 LINE SMOOTH",
"453 157 OFFCURVE",
"417 80 OFFCURVE",
"316 80 CURVE SMOOTH",
"229 80 OFFCURVE",
"178 151 OFFCURVE",
"178 260 CURVE SMOOTH",
"178 682 LINE",
"60 682 LINE",
"60 271 LINE SMOOTH",
"60 54 OFFCURVE",
"181 -22 OFFCURVE",
"316 -22 CURVE SMOOTH"
);
}
);
width = 631;
}
);
leftKerningGroup = U;
note = U;
rightKerningGroup = U;
unicode = 0055;
},
{
glyphname = V;
layers = (
{
hints = (
{
horizontal = 1;
place = "{0, 21}";
target = up;
type = BottomGhost;
},
{
horizontal = 1;
place = "{682, -20}";
target = down;
type = TopGhost;
}
);
layerId = "D2FC741B-AB3D-47FE-B7ED-22FDCD907D24";
paths = (
{
closed = 1;
nodes = (
"615 682 LINE",
"494 682 LINE",
"355 281 LINE SMOOTH",
"341 241 OFFCURVE",
"323 185 OFFCURVE",
"311 140 CURVE",
"309 140 LINE",
"298 182 OFFCURVE",
"279 242 OFFCURVE",
"266 280 CURVE SMOOTH",
"128 682 LINE",
"1 682 LINE",
"253 0 LINE",
"360 0 LINE"
);
}
);
width = 615;
}
);
leftKerningGroup = V;
note = V;
rightKerningGroup = V;
unicode = 0056;
},
{
glyphname = W;
layers = (
{
hints = (
{
horizontal = 1;
place = "{0, 21}";
target = up;
type = BottomGhost;
},
{
horizontal = 1;
place = "{682, -20}";
target = down;
type = TopGhost;
}
);
layerId = "D2FC741B-AB3D-47FE-B7ED-22FDCD907D24";
paths = (
{
closed = 1;
nodes = (
"550 0 LINE",
"676 0 LINE",
"844 682 LINE",
"728 682 LINE",
"638 283 LINE SMOOTH",
"630 249 OFFCURVE",
"621 201 OFFCURVE",
"614 152 CURVE",
"610 152 LINE",
"603 193 OFFCURVE",
"598 227 OFFCURVE",
"584 284 CURVE SMOOTH",
"489 682 LINE",
"376 682 LINE",
"284 291 LINE SMOOTH",
"273 243 OFFCURVE",
"264 195 OFFCURVE",
"257 152 CURVE",
"253 152 LINE",
"246 190 OFFCURVE",
"242 216 OFFCURVE",
"226 282 CURVE SMOOTH",
"129 682 LINE",
"12 682 LINE",
"191 0 LINE",
"314 0 LINE",
"404 393 LINE SMOOTH",
"418 450 OFFCURVE",
"423 486 OFFCURVE",
"429 535 CURVE",
"433 535 LINE",
"437 486 OFFCURVE",
"444 446 OFFCURVE",
"457 390 CURVE SMOOTH"
);
}
);
width = 855;
}
);
leftKerningGroup = W;
note = W;
rightKerningGroup = W;
unicode = 0057;
},
{
glyphname = X;
layers = (
{
hints = (
{
horizontal = 1;
place = "{0, 21}";
target = up;
type = BottomGhost;
},
{
horizontal = 1;
place = "{682, -20}";
target = down;
type = TopGhost;
}
);
layerId = "D2FC741B-AB3D-47FE-B7ED-22FDCD907D24";
paths = (
{
closed = 1;
nodes = (
"146 682 LINE",
"12 682 LINE",
"233 352 LINE",
"4 0 LINE",
"131 0 LINE",
"236 171 LINE SMOOTH",
"255 202 OFFCURVE",
"274 234 OFFCURVE",
"293 265 CURVE",
"295 265 LINE",
"313 235 OFFCURVE",
"331 203 OFFCURVE",
"350 173 CURVE SMOOTH",
"457 0 LINE",
"590 0 LINE",
"359 356 LINE",
"580 682 LINE",
"454 682 LINE",
"350 520 LINE SMOOTH",
"332 492 OFFCURVE",
"318 468 OFFCURVE",
"302 439 CURVE",
"299 439 LINE",
"284 465 OFFCURVE",
"270 489 OFFCURVE",
"251 518 CURVE SMOOTH"
);
}
);
width = 594;
}
);
leftKerningGroup = X;
note = X;
rightKerningGroup = X;
unicode = 0058;
},
{
glyphname = Y;
layers = (
{
hints = (
{
horizontal = 1;
place = "{0, 21}";
target = up;
type = BottomGhost;
},
{
horizontal = 1;
place = "{682, -20}";
target = down;
type = TopGhost;
},
{
place = "{227, 118}";
type = Stem;
}
);
layerId = "D2FC741B-AB3D-47FE-B7ED-22FDCD907D24";
paths = (
{
closed = 1;
nodes = (
"227 0 LINE",
"345 0 LINE",
"345 275 LINE",
"562 682 LINE",
"439 682 LINE",
"329 458 LINE SMOOTH",
"314 427 OFFCURVE",
"303 405 OFFCURVE",
"292 377 CURVE",
"290 377 LINE",
"281 404 OFFCURVE",
"269 430 OFFCURVE",
"254 459 CURVE SMOOTH",
"139 682 LINE",
"9 682 LINE",
"227 274 LINE"
);
}
);
width = 570;
}
);
leftKerningGroup = Y;
note = Y;
rightKerningGroup = Y;
unicode = 0059;
},
{
glyphname = Z;
layers = (
{
hints = (
{
horizontal = 1;
place = "{0, 104}";
type = Stem;
},
{
horizontal = 1;
place = "{578, 104}";
type = Stem;
}
);
layerId = "D2FC741B-AB3D-47FE-B7ED-22FDCD907D24";
paths = (
{
closed = 1;
nodes = (
"56 578 LINE",
"410 578 LINE",
"39 97 LINE",
"39 0 LINE",
"572 0 LINE",
"572 104 LINE",
"185 104 LINE",
"556 584 LINE",
"556 682 LINE",
"56 682 LINE"
);
}
);
width = 612;
}
);
leftKerningGroup = Z;
note = Z;
rightKerningGroup = Z;
unicode = 005A;
},
{
glyphname = bracketleft;
layers = (
{
hints = (
{
horizontal = 1;
place = "{-200, 92}";
type = Stem;
},
{
horizontal = 1;
place = "{636, 92}";
type = Stem;
},
{
place = "{92, 103}";
type = Stem;
}
);
layerId = "D2FC741B-AB3D-47FE-B7ED-22FDCD907D24";
paths = (
{
closed = 1;
nodes = (
"301 728 LINE",
"92 728 LINE",
"92 -200 LINE",
"301 -200 LINE",
"301 -108 LINE",
"195 -108 LINE",
"195 636 LINE",
"301 636 LINE"
);
}
);
width = 365;
}
);
note = bracketleft;
rightKerningGroup = parenleft;
unicode = 005B;
},
{
glyphname = backslash;
layers = (
{
hints = (
{
horizontal = 1;
place = "{-114, 21}";
target = up;
type = BottomGhost;
},
{
horizontal = 1;
place = "{720, -20}";
target = down;
type = TopGhost;
}
);
layerId = "D2FC741B-AB3D-47FE-B7ED-22FDCD907D24";
paths = (
{
closed = 1;
nodes = (
"426 -114 LINE",
"108 720 LINE",
"7 720 LINE",
"324 -114 LINE"
);
}
);
width = 420;
}
);
note = backslash;
unicode = 005C;
},
{
glyphname = bracketright;
layers = (
{
hints = (
{
horizontal = 1;
place = "{-200, 92}";
type = Stem;
},
{
horizontal = 1;
place = "{636, 92}";
type = Stem;
},
{
place = "{170, 103}";
type = Stem;
}
);
layerId = "D2FC741B-AB3D-47FE-B7ED-22FDCD907D24";
paths = (
{
closed = 1;
nodes = (
"64 636 LINE",
"170 636 LINE",
"170 -108 LINE",
"64 -108 LINE",
"64 -200 LINE",
"273 -200 LINE",
"273 728 LINE",
"64 728 LINE"
);
}
);
width = 365;
}
);
leftKerningGroup = parenright;
note = bracketright;
unicode = 005D;
},
{
glyphname = asciicircum;
layers = (
{
hints = (
{
horizontal = 1;
place = "{326, 21}";
target = up;
type = BottomGhost;
},
{
horizontal = 1;
place = "{704, -20}";
target = down;
type = TopGhost;
}
);
layerId = "D2FC741B-AB3D-47FE-B7ED-22FDCD907D24";
paths = (
{
closed = 1;
nodes = (
"612 326 LINE",
"379 704 LINE",
"289 704 LINE",
"57 326 LINE",
"162 326 LINE",
"332 607 LINE",
"335 607 LINE",
"506 326 LINE"
);
}
);
width = 668;
}
);
note = asciicircum;
unicode = 005E;
},
{
glyphname = underscore;
layers = (
{
hints = (
{
horizontal = 1;
place = "{-238, 87}";
type = Stem;
}
);
layerId = "D2FC741B-AB3D-47FE-B7ED-22FDCD907D24";
paths = (
{
closed = 1;
nodes = (
"0 -238 LINE",
"550 -238 LINE",
"550 -151 LINE",
"0 -151 LINE"
);
}
);
width = 550;
}
);
note = underscore;
unicode = 005F;
},
{
glyphname = quoteleft;
layers = (
{
hints = (
{
horizontal = 1;
place = "{473, 21}";
target = up;
type = BottomGhost;
},
{
horizontal = 1;
place = "{720, -20}";
target = down;
type = TopGhost;
},
{
place = "{63, 131}";
type = Stem;
}
);
layerId = "D2FC741B-AB3D-47FE-B7ED-22FDCD907D24";
paths = (
{
closed = 1;
nodes = (
"194 597 LINE",
"143 597 LINE",
"146 641 OFFCURVE",
"158 685 OFFCURVE",
"181 720 CURVE",
"116 720 LINE",
"85 671 OFFCURVE",
"63 610 OFFCURVE",
"63 533 CURVE SMOOTH",
"63 473 LINE",
"194 473 LINE"
);
}
);
width = 256;
}
);
leftKerningGroup = quoteleft;
note = quoteleft;
rightKerningGroup = quoteleft;
unicode = 2018;
},
{
glyphname = a;
layers = (
{
hints = (
{
horizontal = 1;
place = "{-17, 98}";
type = Stem;
},
{
horizontal = 1;
place = "{398, 81}";
type = Stem;
},
{
place = "{32, 115}";
type = Stem;
},
{
place = "{434, 104}";
type = Stem;
},
{
horizontal = 1;
place = "{398, 96}";
type = Stem;
},
{
horizontal = 1;
place = "{0, 81}";
type = Stem;
}
);
layerId = "D2FC741B-AB3D-47FE-B7ED-22FDCD907D24";
paths = (
{
closed = 1;
nodes = (
"538 479 LINE",
"429 479 LINE",
"429 414 LINE",
"427 414 LINE",
"398 452 OFFCURVE",
"350 494 OFFCURVE",
"270 494 CURVE SMOOTH",
"140 494 OFFCURVE",
"32 392 OFFCURVE",
"32 240 CURVE SMOOTH",
"32 69 OFFCURVE",
"154 -17 OFFCURVE",
"262 -17 CURVE SMOOTH",
"341 -17 OFFCURVE",
"393 20 OFFCURVE",
"426 61 CURVE",
"429 61 LINE",
"429 0 LINE",
"538 0 LINE"
);
},
{
closed = 1;
nodes = (
"147 318 OFFCURVE",
"194 398 OFFCURVE",
"293 398 CURVE SMOOTH",
"371 398 OFFCURVE",
"434 334 OFFCURVE",
"434 237 CURVE SMOOTH",
"434 145 OFFCURVE",
"366 81 OFFCURVE",
"292 81 CURVE SMOOTH",
"193 81 OFFCURVE",
"147 160 OFFCURVE",
"147 240 CURVE SMOOTH"
);
}
);
width = 604;
}
);
leftKerningGroup = a;
note = a;
unicode = 0061;
},
{
glyphname = b;
layers = (
{
hints = (
{
horizontal = 1;
place = "{0, 80}";
type = Stem;
},
{
horizontal = 1;
place = "{396, 98}";
type = Stem;
},
{
horizontal = 1;
place = "{720, -20}";
target = down;
type = TopGhost;
},
{
place = "{66, 109}";
type = Stem;
},
{
place = "{457, 115}";
type = Stem;
},
{
horizontal = 1;
place = "{-17, 97}";
type = Stem;
}
);
layerId = "D2FC741B-AB3D-47FE-B7ED-22FDCD907D24";
paths = (
{
closed = 1;
nodes = (
"66 0 LINE",
"176 0 LINE",
"176 58 LINE",
"179 58 LINE",
"211 18 OFFCURVE",
"263 -17 OFFCURVE",
"340 -17 CURVE SMOOTH",
"459 -17 OFFCURVE",
"572 81 OFFCURVE",
"572 238 CURVE SMOOTH",
"572 402 OFFCURVE",
"456 494 OFFCURVE",
"345 494 CURVE SMOOTH",
"258 494 OFFCURVE",
"209 452 OFFCURVE",
"178 418 CURVE",
"175 418 LINE",
"175 720 LINE",
"66 720 LINE"
);
},
{
closed = 1;
nodes = (
"457 160 OFFCURVE",
"409 80 OFFCURVE",
"313 80 CURVE SMOOTH",
"236 80 OFFCURVE",
"171 144 OFFCURVE",
"171 237 CURVE SMOOTH",
"171 333 OFFCURVE",
"234 396 OFFCURVE",
"312 396 CURVE SMOOTH",
"410 396 OFFCURVE",
"457 319 OFFCURVE",
"457 239 CURVE SMOOTH"
);
}
);
width = 604;
}
);
leftKerningGroup = b;
note = b;
rightKerningGroup = b;
unicode = 0062;
},
{
glyphname = c;
layers = (
{
hints = (
{
horizontal = 1;
place = "{-17, 96}";
type = Stem;
},
{
horizontal = 1;
place = "{400, 95}";
type = Stem;
},
{
place = "{32, 115}";
type = Stem;
}
);
layerId = "D2FC741B-AB3D-47FE-B7ED-22FDCD907D24";
paths = (
{
closed = 1;
nodes = (
"130 495 OFFCURVE",
"32 381 OFFCURVE",
"32 241 CURVE SMOOTH",
"32 86 OFFCURVE",
"144 -17 OFFCURVE",
"288 -17 CURVE SMOOTH",
"421 -17 OFFCURVE",
"490 64 OFFCURVE",
"516 151 CURVE",
"400 151 LINE",
"384 114 OFFCURVE",
"352 79 OFFCURVE",
"290 79 CURVE SMOOTH",
"203 79 OFFCURVE",
"147 149 OFFCURVE",
"147 240 CURVE SMOOTH",
"147 341 OFFCURVE",
"205 400 OFFCURVE",
"286 400 CURVE SMOOTH",
"342 400 OFFCURVE",
"378 373 OFFCURVE",
"393 335 CURVE",
"508 335 LINE",
"493 405 OFFCURVE",
"424 495 OFFCURVE",
"287 495 CURVE SMOOTH"
);
}
);
width = 547;
}
);
leftKerningGroup = a;
note = c;
rightKerningGroup = c;
unicode = 0063;
},
{
glyphname = d;
layers = (
{
hints = (
{
horizontal = 1;
place = "{-17, 98}";
type = Stem;
},
{
horizontal = 1;
place = "{399, 96}";
type = Stem;
},
{
horizontal = 1;
place = "{720, -20}";
target = down;
type = TopGhost;
},
{
place = "{32, 115}";
type = Stem;
},
{
place = "{428, 110}";
type = Stem;
},
{
horizontal = 1;
place = "{0, 81}";
type = Stem;
}
);
layerId = "D2FC741B-AB3D-47FE-B7ED-22FDCD907D24";
paths = (
{
closed = 1;
nodes = (
"538 720 LINE",
"428 720 LINE",
"428 419 LINE",
"425 419 LINE",
"390 462 OFFCURVE",
"345 495 OFFCURVE",
"266 495 CURVE SMOOTH",
"137 495 OFFCURVE",
"32 390 OFFCURVE",
"32 240 CURVE SMOOTH",
"32 69 OFFCURVE",
"152 -17 OFFCURVE",
"260 -17 CURVE SMOOTH",
"339 -17 OFFCURVE",
"394 20 OFFCURVE",
"426 57 CURVE",
"429 57 LINE",
"429 0 LINE",
"538 0 LINE"
);
},
{
closed = 1;
nodes = (
"147 318 OFFCURVE",
"195 399 OFFCURVE",
"292 399 CURVE SMOOTH",
"371 399 OFFCURVE",
"434 334 OFFCURVE",
"434 237 CURVE SMOOTH",
"434 145 OFFCURVE",
"367 81 OFFCURVE",
"291 81 CURVE SMOOTH",
"194 81 OFFCURVE",
"147 160 OFFCURVE",
"147 240 CURVE SMOOTH"
);
}
);
width = 604;
}
);
leftKerningGroup = a;
note = d;
rightKerningGroup = d;
unicode = 0064;
},
{
glyphname = e;
layers = (
{
hints = (
{
horizontal = 1;
place = "{-17, 88}";
type = Stem;
},
{
horizontal = 1;
place = "{211, 81}";
type = Stem;
},
{
horizontal = 1;
place = "{411, 84}";
type = Stem;
},
{
place = "{32, 112}";
type = Stem;
}
);
layerId = "D2FC741B-AB3D-47FE-B7ED-22FDCD907D24";
paths = (
{
closed = 1;
nodes = (
"124 495 OFFCURVE",
"32 379 OFFCURVE",
"32 244 CURVE SMOOTH",
"32 91 OFFCURVE",
"140 -17 OFFCURVE",
"287 -17 CURVE SMOOTH",
"408 -17 OFFCURVE",
"477 52 OFFCURVE",
"509 125 CURVE",
"394 125 LINE",
"369 91 OFFCURVE",
"336 71 OFFCURVE",
"287 71 CURVE SMOOTH",
"210 71 OFFCURVE",
"144 136 OFFCURVE",
"144 211 CURVE",
"514 211 LINE",
"516 221 OFFCURVE",
"516 234 OFFCURVE",
"516 244 CURVE SMOOTH",
"516 366 OFFCURVE",
"440 494 OFFCURVE",
"275 495 CURVE SMOOTH"
);
},
{
closed = 1;
nodes = (
"348 411 OFFCURVE",
"397 356 OFFCURVE",
"404 292 CURVE",
"145 292 LINE",
"151 354 OFFCURVE",
"198 411 OFFCURVE",
"275 411 CURVE SMOOTH"
);
}
);
width = 551;
}
);
leftKerningGroup = a;
note = e;
rightKerningGroup = e;
unicode = 0065;
},
{
glyphname = f;
layers = (
{
hints = (
{
horizontal = 1;
place = "{0, 21}";
target = up;
type = BottomGhost;
},
{
horizontal = 1;
place = "{385, 94}";
type = Stem;
},
{
horizontal = 1;
place = "{632, 93}";
type = Stem;
},
{
place = "{89, 112}";
type = Stem;
}
);
layerId = "D2FC741B-AB3D-47FE-B7ED-22FDCD907D24";
paths = (
{
closed = 1;
nodes = (
"21 385 LINE",
"89 385 LINE",
"89 0 LINE",
"201 0 LINE",
"201 385 LINE",
"308 385 LINE",
"308 479 LINE",
"201 479 LINE",
"201 556 LINE SMOOTH",
"201 602 OFFCURVE",
"221 632 OFFCURVE",
"271 632 CURVE SMOOTH",
"290 632 OFFCURVE",
"306 629 OFFCURVE",
"325 624 CURVE",
"325 716 LINE",
"305 722 OFFCURVE",
"279 725 OFFCURVE",
"252 725 CURVE SMOOTH",
"146 725 OFFCURVE",
"89 666 OFFCURVE",
"89 558 CURVE SMOOTH",
"89 479 LINE",
"21 479 LINE"
);
}
);
width = 315;
}
);
leftKerningGroup = f;
note = f;
rightKerningGroup = f;
unicode = 0066;
},
{
glyphname = g;
layers = (
{
hints = (
{
horizontal = 1;
place = "{-257, 93}";
type = Stem;
},
{
horizontal = 1;
place = "{-13, 98}";
type = Stem;
},
{
horizontal = 1;
place = "{398, 81}";
type = Stem;
},
{
place = "{33, 114}";
type = Stem;
},
{
place = "{432, 107}";
type = Stem;
},
{
horizontal = 1;
place = "{398, 96}";
type = Stem;
}
);
layerId = "D2FC741B-AB3D-47FE-B7ED-22FDCD907D24";
paths = (
{
closed = 1;
nodes = (
"539 479 LINE",
"432 479 LINE",
"432 417 LINE",
"429 417 LINE",
"402 452 OFFCURVE",
"353 494 OFFCURVE",
"271 494 CURVE SMOOTH",
"134 494 OFFCURVE",
"33 387 OFFCURVE",
"33 241 CURVE SMOOTH",
"33 85 OFFCURVE",
"141 -13 OFFCURVE",
"267 -13 CURVE SMOOTH",
"344 -13 OFFCURVE",
"396 22 OFFCURVE",
"430 61 CURVE",
"432 61 LINE",
"432 1 LINE SMOOTH",
"432 -105 OFFCURVE",
"383 -164 OFFCURVE",
"291 -164 CURVE SMOOTH",
"210 -164 OFFCURVE",
"172 -122 OFFCURVE",
"159 -69 CURVE",
"47 -69 LINE",
"66 -183 OFFCURVE",
"152 -257 OFFCURVE",
"286 -257 CURVE SMOOTH",
"459 -257 OFFCURVE",
"539 -161 OFFCURVE",
"539 15 CURVE SMOOTH"
);
},
{
closed = 1;
nodes = (
"147 318 OFFCURVE",
"196 398 OFFCURVE",
"293 398 CURVE SMOOTH",
"372 398 OFFCURVE",
"434 335 OFFCURVE",
"434 239 CURVE SMOOTH",
"434 148 OFFCURVE",
"369 85 OFFCURVE",
"291 85 CURVE SMOOTH",
"194 85 OFFCURVE",
"147 164 OFFCURVE",
"147 241 CURVE SMOOTH"
);
}
);
width = 604;
}
);
leftKerningGroup = a;
note = g;
unicode = 0067;
},
{
glyphname = h;
layers = (
{
hints = (
{
horizontal = 1;
place = "{0, 21}";
target = up;
type = BottomGhost;
},
{
horizontal = 1;
place = "{396, 99}";
type = Stem;
},
{
horizontal = 1;
place = "{720, -20}";
target = down;
type = TopGhost;
},
{
place = "{65, 112}";
type = Stem;
},
{
place = "{398, 112}";
type = Stem;
}
);
layerId = "D2FC741B-AB3D-47FE-B7ED-22FDCD907D24";
paths = (
{
closed = 1;
nodes = (
"65 0 LINE",
"177 0 LINE",
"177 255 LINE SMOOTH",
"177 348 OFFCURVE",
"225 396 OFFCURVE",
"295 396 CURVE SMOOTH",
"359 396 OFFCURVE",
"398 352 OFFCURVE",
"398 270 CURVE SMOOTH",
"398 0 LINE",
"510 0 LINE",
"510 276 LINE SMOOTH",
"510 431 OFFCURVE",
"424 495 OFFCURVE",
"325 495 CURVE SMOOTH",
"272 495 OFFCURVE",
"218 473 OFFCURVE",
"180 419 CURVE",
"177 419 LINE",
"177 720 LINE",
"65 720 LINE"
);
}
);
width = 566;
}
);
leftKerningGroup = b;
note = h;
rightKerningGroup = h;
unicode = 0068;
},
{
glyphname = i;
layers = (
{
hints = (
{
horizontal = 1;
place = "{0, 21}";
target = up;
type = BottomGhost;
},
{
horizontal = 1;
place = "{479, -20}";
target = down;
type = TopGhost;
},
{
horizontal = 1;
place = "{585, 114}";
type = Stem;
},
{
place = "{65, 112}";
type = Stem;
}
);
layerId = "D2FC741B-AB3D-47FE-B7ED-22FDCD907D24";
paths = (
{
closed = 1;
nodes = (
"65 0 LINE",
"177 0 LINE",
"177 479 LINE",
"65 479 LINE"
);
},
{
closed = 1;
nodes = (
"59 585 LINE",
"183 585 LINE",
"183 699 LINE",
"59 699 LINE"
);
}
);
width = 242;
}
);
leftKerningGroup = i;
note = i;
rightKerningGroup = i;
unicode = 0069;
},
{
glyphname = j;
layers = (
{
hints = (
{
horizontal = 1;
place = "{-251, 96}";
type = Stem;
},
{
horizontal = 1;
place = "{479, -20}";
target = down;
type = TopGhost;
},
{
horizontal = 1;
place = "{585, 114}";
type = Stem;
},
{
place = "{65, 112}";
type = Stem;
}
);
layerId = "D2FC741B-AB3D-47FE-B7ED-22FDCD907D24";
paths = (
{
closed = 1;
nodes = (
"177 479 LINE",
"65 479 LINE",
"65 -49 LINE SMOOTH",
"65 -126 OFFCURVE",
"36 -155 OFFCURVE",
"-15 -155 CURVE SMOOTH",
"-44 -155 OFFCURVE",
"-74 -147 OFFCURVE",
"-87 -143 CURVE",
"-87 -237 LINE",
"-65 -244 OFFCURVE",
"-36 -251 OFFCURVE",
"4 -251 CURVE SMOOTH",
"110 -251 OFFCURVE",
"177 -188 OFFCURVE",
"177 -45 CURVE SMOOTH"
);
},
{
closed = 1;
nodes = (
"59 585 LINE",
"183 585 LINE",
"183 699 LINE",
"59 699 LINE"
);
}
);
width = 242;
}
);
leftKerningGroup = j;
note = j;
rightKerningGroup = j;
unicode = 006A;
},
{
glyphname = k;
layers = (
{
hints = (
{
horizontal = 1;
place = "{0, 21}";
target = up;
type = BottomGhost;
},
{
horizontal = 1;
place = "{479, -20}";
target = down;
type = TopGhost;
},
{
horizontal = 1;
place = "{720, -20}";
target = down;
type = TopGhost;
},
{
place = "{65, 112}";
type = Stem;
}
);
layerId = "D2FC741B-AB3D-47FE-B7ED-22FDCD907D24";
paths = (
{
closed = 1;
nodes = (
"380 0 LINE",
"516 0 LINE",
"291 282 LINE",
"485 479 LINE",
"349 479 LINE",
"177 300 LINE",
"177 720 LINE",
"65 720 LINE",
"65 0 LINE",
"177 0 LINE",
"177 174 LINE",
"214 210 LINE"
);
}
);
width = 509;
}
);
leftKerningGroup = b;
note = k;
rightKerningGroup = k;
unicode = 006B;
},
{
glyphname = l;
layers = (
{
hints = (
{
horizontal = 1;
place = "{0, 21}";
target = up;
type = BottomGhost;
},
{
horizontal = 1;
place = "{720, -20}";
target = down;
type = TopGhost;
},
{
place = "{65, 112}";
type = Stem;
}
);
layerId = "D2FC741B-AB3D-47FE-B7ED-22FDCD907D24";
paths = (
{
closed = 1;
nodes = (
"65 0 LINE",
"177 0 LINE",
"177 720 LINE",
"65 720 LINE"
);
}
);
width = 242;
}
);
leftKerningGroup = b;
note = l;
rightKerningGroup = d;
unicode = 006C;
},
{
glyphname = m;
layers = (
{
hints = (
{
horizontal = 1;
place = "{0, 21}";
target = up;
type = BottomGhost;
},
{
horizontal = 1;
place = "{396, 83}";
type = Stem;
},
{
place = "{65, 112}";
type = Stem;
},
{
place = "{380, 112}";
type = Stem;
},
{
place = "{695, 111}";
type = Stem;
},
{
horizontal = 1;
place = "{396, 99}";
type = Stem;
}
);
layerId = "D2FC741B-AB3D-47FE-B7ED-22FDCD907D24";
paths = (
{
closed = 1;
nodes = (
"65 0 LINE",
"177 0 LINE",
"177 261 LINE SMOOTH",
"177 346 OFFCURVE",
"219 396 OFFCURVE",
"285 396 CURVE SMOOTH",
"344 396 OFFCURVE",
"380 344 OFFCURVE",
"380 277 CURVE SMOOTH",
"380 0 LINE",
"492 0 LINE",
"492 261 LINE SMOOTH",
"492 354 OFFCURVE",
"544 396 OFFCURVE",
"599 396 CURVE SMOOTH",
"666 396 OFFCURVE",
"695 340 OFFCURVE",
"695 277 CURVE SMOOTH",
"695 0 LINE",
"806 0 LINE",
"806 276 LINE SMOOTH",
"806 419 OFFCURVE",
"734 495 OFFCURVE",
"625 495 CURVE SMOOTH",
"548 495 OFFCURVE",
"489 448 OFFCURVE",
"465 403 CURVE",
"447 452 OFFCURVE",
"391 495 OFFCURVE",
"318 495 CURVE SMOOTH",
"257 495 OFFCURVE",
"208 462 OFFCURVE",
"178 419 CURVE",
"176 419 LINE",
"176 479 LINE",
"65 479 LINE"
);
}
);
width = 866;
}
);
leftKerningGroup = m;
note = m;
rightKerningGroup = h;
unicode = 006D;
},
{
glyphname = n;
layers = (
{
hints = (
{
horizontal = 1;
place = "{0, 21}";
target = up;
type = BottomGhost;
},
{
horizontal = 1;
place = "{396, 99}";
type = Stem;
},
{
place = "{65, 112}";
type = Stem;
},
{
place = "{398, 112}";
type = Stem;
},
{
horizontal = 1;
place = "{396, 83}";
type = Stem;
}
);
layerId = "D2FC741B-AB3D-47FE-B7ED-22FDCD907D24";
paths = (
{
closed = 1;
nodes = (
"65 0 LINE",
"177 0 LINE",
"177 254 LINE SMOOTH",
"177 347 OFFCURVE",
"225 396 OFFCURVE",
"295 396 CURVE SMOOTH",
"359 396 OFFCURVE",
"398 352 OFFCURVE",
"398 270 CURVE SMOOTH",
"398 0 LINE",
"510 0 LINE",
"510 276 LINE SMOOTH",
"510 430 OFFCURVE",
"423 495 OFFCURVE",
"324 495 CURVE SMOOTH",
"271 495 OFFCURVE",
"216 473 OFFCURVE",
"178 419 CURVE",
"176 419 LINE",
"176 479 LINE",
"65 479 LINE"
);
}
);
width = 569;
}
);
leftKerningGroup = m;
note = n;
rightKerningGroup = h;
unicode = 006E;
},
{
glyphname = o;
layers = (
{
hints = (
{
horizontal = 1;
place = "{-17, 100}";
type = Stem;
},
{
horizontal = 1;
place = "{396, 99}";
type = Stem;
},
{
place = "{32, 114}";
type = Stem;
},
{
place = "{431, 113}";
type = Stem;
}
);
layerId = "D2FC741B-AB3D-47FE-B7ED-22FDCD907D24";
paths = (
{
closed = 1;
nodes = (
"32 95 OFFCURVE",
"142 -17 OFFCURVE",
"288 -17 CURVE SMOOTH",
"437 -17 OFFCURVE",
"544 99 OFFCURVE",
"544 240 CURVE SMOOTH",
"544 385 OFFCURVE",
"438 495 OFFCURVE",
"288 495 CURVE SMOOTH",
"143 495 OFFCURVE",
"32 388 OFFCURVE",
"32 240 CURVE SMOOTH"
);
},
{
closed = 1;
nodes = (
"146 329 OFFCURVE",
"202 396 OFFCURVE",
"288 396 CURVE SMOOTH",
"377 396 OFFCURVE",
"431 325 OFFCURVE",
"431 240 CURVE SMOOTH",
"431 151 OFFCURVE",
"373 83 OFFCURVE",
"288 83 CURVE SMOOTH",
"211 83 OFFCURVE",
"146 148 OFFCURVE",
"146 240 CURVE SMOOTH"
);
}
);
width = 577;
}
);
leftKerningGroup = a;
note = o;
rightKerningGroup = b;
unicode = 006F;
},
{
glyphname = p;
layers = (
{
hints = (
{
horizontal = 1;
place = "{-235, 21}";
target = up;
type = BottomGhost;
},
{
horizontal = 1;
place = "{-17, 97}";
type = Stem;
},
{
horizontal = 1;
place = "{396, 98}";
type = Stem;
},
{
place = "{66, 110}";
type = Stem;
},
{
place = "{457, 115}";
type = Stem;
},
{
horizontal = 1;
place = "{396, 83}";
type = Stem;
}
);
layerId = "D2FC741B-AB3D-47FE-B7ED-22FDCD907D24";
paths = (
{
closed = 1;
nodes = (
"66 -235 LINE",
"176 -235 LINE",
"176 58 LINE",
"179 58 LINE",
"211 18 OFFCURVE",
"263 -17 OFFCURVE",
"337 -17 CURVE SMOOTH",
"466 -17 OFFCURVE",
"572 88 OFFCURVE",
"572 238 CURVE SMOOTH",
"572 392 OFFCURVE",
"466 494 OFFCURVE",
"343 494 CURVE SMOOTH",
"256 494 OFFCURVE",
"209 454 OFFCURVE",
"178 418 CURVE",
"175 418 LINE",
"175 479 LINE",
"66 479 LINE"
);
},
{
closed = 1;
nodes = (
"457 160 OFFCURVE",
"409 80 OFFCURVE",
"313 80 CURVE SMOOTH",
"236 80 OFFCURVE",
"171 144 OFFCURVE",
"171 237 CURVE SMOOTH",
"171 333 OFFCURVE",
"234 396 OFFCURVE",
"312 396 CURVE SMOOTH",
"410 396 OFFCURVE",
"457 319 OFFCURVE",
"457 239 CURVE SMOOTH"
);
}
);
width = 604;
}
);
leftKerningGroup = m;
note = p;
rightKerningGroup = b;
unicode = 0070;
},
{
glyphname = q;
layers = (
{
hints = (
{
horizontal = 1;
place = "{-235, 21}";
target = up;
type = BottomGhost;
},
{
horizontal = 1;
place = "{-17, 98}";
type = Stem;
},
{
horizontal = 1;
place = "{399, 80}";
type = Stem;
},
{
place = "{32, 115}";
type = Stem;
},
{
place = "{429, 109}";
type = Stem;
},
{
horizontal = 1;
place = "{399, 96}";
type = Stem;
}
);
layerId = "D2FC741B-AB3D-47FE-B7ED-22FDCD907D24";
paths = (
{
closed = 1;
nodes = (
"538 479 LINE",
"428 479 LINE",
"428 419 LINE",
"425 419 LINE",
"395 456 OFFCURVE",
"348 495 OFFCURVE",
"270 495 CURVE SMOOTH",
"137 495 OFFCURVE",
"32 390 OFFCURVE",
"32 240 CURVE SMOOTH",
"32 69 OFFCURVE",
"155 -17 OFFCURVE",
"262 -17 CURVE SMOOTH",
"339 -17 OFFCURVE",
"394 19 OFFCURVE",
"426 57 CURVE",
"429 57 LINE",
"429 -235 LINE",
"538 -235 LINE"
);
},
{
closed = 1;
nodes = (
"147 318 OFFCURVE",
"195 399 OFFCURVE",
"292 399 CURVE SMOOTH",
"371 399 OFFCURVE",
"434 334 OFFCURVE",
"434 237 CURVE SMOOTH",
"434 145 OFFCURVE",
"367 81 OFFCURVE",
"291 81 CURVE SMOOTH",
"194 81 OFFCURVE",
"147 160 OFFCURVE",
"147 240 CURVE SMOOTH"
);
}
);
width = 604;
}
);
leftKerningGroup = a;
note = q;
unicode = 0071;
},
{
glyphname = r;
layers = (
{
hints = (
{
horizontal = 1;
place = "{0, 21}";
target = up;
type = BottomGhost;
},
{
horizontal = 1;
place = "{392, 102}";
type = Stem;
},
{
place = "{65, 112}";
type = Stem;
},
{
horizontal = 1;
place = "{392, 87}";
type = Stem;
}
);
layerId = "D2FC741B-AB3D-47FE-B7ED-22FDCD907D24";
paths = (
{
closed = 1;
nodes = (
"354 491 LINE",
"342 493 OFFCURVE",
"330 494 OFFCURVE",
"312 494 CURVE SMOOTH",
"248 494 OFFCURVE",
"200 452 OFFCURVE",
"178 411 CURVE",
"175 411 LINE",
"175 479 LINE",
"65 479 LINE",
"65 0 LINE",
"177 0 LINE",
"177 242 LINE SMOOTH",
"177 342 OFFCURVE",
"222 392 OFFCURVE",
"298 392 CURVE SMOOTH",
"323 392 OFFCURVE",
"340 389 OFFCURVE",
"354 387 CURVE"
);
}
);
width = 378;
}
);
leftKerningGroup = m;
note = r;
rightKerningGroup = r;
unicode = 0072;
},
{
glyphname = s;
layers = (
{
hints = (
{
horizontal = 1;
place = "{-17, 82}";
type = Stem;
},
{
horizontal = 1;
place = "{414, 81}";
type = Stem;
},
{
place = "{54, 105}";
type = Stem;
},
{
place = "{289, 107}";
type = Stem;
}
);
layerId = "D2FC741B-AB3D-47FE-B7ED-22FDCD907D24";
paths = (
{
closed = 1;
nodes = (
"386 356 LINE",
"374 434 OFFCURVE",
"320 495 OFFCURVE",
"217 495 CURVE SMOOTH",
"116 495 OFFCURVE",
"54 437 OFFCURVE",
"54 358 CURVE SMOOTH",
"54 284 OFFCURVE",
"99 239 OFFCURVE",
"189 210 CURVE SMOOTH",
"268 183 OFFCURVE",
"289 160 OFFCURVE",
"289 124 CURVE SMOOTH",
"289 91 OFFCURVE",
"265 65 OFFCURVE",
"223 65 CURVE SMOOTH",
"173 65 OFFCURVE",
"149 95 OFFCURVE",
"144 135 CURVE",
"40 135 LINE",
"49 46 OFFCURVE",
"105 -17 OFFCURVE",
"220 -17 CURVE SMOOTH",
"330 -17 OFFCURVE",
"396 45 OFFCURVE",
"396 133 CURVE SMOOTH",
"396 200 OFFCURVE",
"360 253 OFFCURVE",
"257 286 CURVE SMOOTH",
"174 314 OFFCURVE",
"159 334 OFFCURVE",
"159 363 CURVE SMOOTH",
"159 390 OFFCURVE",
"180 414 OFFCURVE",
"219 414 CURVE SMOOTH",
"252 414 OFFCURVE",
"278 391 OFFCURVE",
"283 356 CURVE"
);
}
);
width = 434;
}
);
leftKerningGroup = s;
note = s;
rightKerningGroup = s;
unicode = 0073;
},
{
glyphname = t;
layers = (
{
hints = (
{
horizontal = 1;
place = "{-6, 94}";
type = Stem;
},
{
horizontal = 1;
place = "{385, 94}";
type = Stem;
},
{
horizontal = 1;
place = "{632, -20}";
target = down;
type = TopGhost;
},
{
place = "{74, 112}";
type = Stem;
}
);
layerId = "D2FC741B-AB3D-47FE-B7ED-22FDCD907D24";
paths = (
{
closed = 1;
nodes = (
"14 385 LINE",
"74 385 LINE",
"74 164 LINE SMOOTH",
"74 66 OFFCURVE",
"106 -6 OFFCURVE",
"225 -6 CURVE SMOOTH",
"253 -6 OFFCURVE",
"285 -2 OFFCURVE",
"310 5 CURVE",
"310 96 LINE",
"293 92 OFFCURVE",
"271 88 OFFCURVE",
"252 88 CURVE SMOOTH",
"206 88 OFFCURVE",
"186 106 OFFCURVE",
"186 171 CURVE SMOOTH",
"186 385 LINE",
"305 385 LINE",
"305 479 LINE",
"186 479 LINE",
"186 632 LINE",
"74 632 LINE",
"74 479 LINE",
"14 479 LINE"
);
}
);
width = 334;
}
);
leftKerningGroup = t;
note = t;
rightKerningGroup = t;
unicode = 0074;
},
{
glyphname = u;
layers = (
{
hints = (
{
horizontal = 1;
place = "{-16, 99}";
type = Stem;
},
{
horizontal = 1;
place = "{479, -20}";
target = down;
type = TopGhost;
},
{
place = "{59, 112}";
type = Stem;
},
{
place = "{381, 112}";
type = Stem;
},
{
horizontal = 1;
place = "{0, 83}";
type = Stem;
}
);
layerId = "D2FC741B-AB3D-47FE-B7ED-22FDCD907D24";
paths = (
{
closed = 1;
nodes = (
"493 479 LINE",
"381 479 LINE",
"381 224 LINE SMOOTH",
"381 131 OFFCURVE",
"337 83 OFFCURVE",
"269 83 CURVE SMOOTH",
"210 83 OFFCURVE",
"171 128 OFFCURVE",
"171 209 CURVE SMOOTH",
"171 479 LINE",
"59 479 LINE",
"59 196 LINE SMOOTH",
"59 34 OFFCURVE",
"156 -16 OFFCURVE",
"237 -16 CURVE SMOOTH",
"288 -16 OFFCURVE",
"339 3 OFFCURVE",
"379 59 CURVE",
"382 59 LINE",
"382 0 LINE",
"493 0 LINE"
);
}
);
width = 557;
}
);
leftKerningGroup = u;
note = u;
unicode = 0075;
},
{
glyphname = v;
layers = (
{
hints = (
{
horizontal = 1;
place = "{0, 21}";
target = up;
type = BottomGhost;
},
{
horizontal = 1;
place = "{479, -20}";
target = down;
type = TopGhost;
}
);
layerId = "D2FC741B-AB3D-47FE-B7ED-22FDCD907D24";
paths = (
{
closed = 1;
nodes = (
"452 479 LINE",
"341 479 LINE",
"260 241 LINE SMOOTH",
"247 202 OFFCURVE",
"237 161 OFFCURVE",
"228 121 CURVE",
"224 121 LINE",
"218 154 OFFCURVE",
"205 201 OFFCURVE",
"192 241 CURVE SMOOTH",
"112 479 LINE",
"-4 479 LINE",
"173 0 LINE",
"275 0 LINE"
);
}
);
width = 449;
}
);
leftKerningGroup = v;
note = v;
rightKerningGroup = v;
unicode = 0076;
},
{
glyphname = w;
layers = (
{
hints = (
{
horizontal = 1;
place = "{0, 21}";
target = up;
type = BottomGhost;
},
{
horizontal = 1;
place = "{479, -20}";
target = down;
type = TopGhost;
}
);
layerId = "D2FC741B-AB3D-47FE-B7ED-22FDCD907D24";
paths = (
{
closed = 1;
nodes = (
"433 0 LINE",
"566 0 LINE",
"691 479 LINE",
"581 479 LINE",
"515 207 LINE SMOOTH",
"510 185 OFFCURVE",
"503 149 OFFCURVE",
"498 112 CURVE",
"495 112 LINE",
"490 142 OFFCURVE",
"487 168 OFFCURVE",
"477 208 CURVE SMOOTH",
"410 479 LINE",
"303 479 LINE",
"237 212 LINE SMOOTH",
"228 175 OFFCURVE",
"222 143 OFFCURVE",
"216 112 CURVE",
"212 112 LINE",
"207 144 OFFCURVE",
"203 163 OFFCURVE",
"193 207 CURVE SMOOTH",
"129 479 LINE",
"19 479 LINE",
"142 0 LINE",
"276 0 LINE",
"328 221 LINE SMOOTH",
"339 268 OFFCURVE",
"347 310 OFFCURVE",
"351 345 CURVE",
"355 345 LINE",
"360 310 OFFCURVE",
"368 274 OFFCURVE",
"375 241 CURVE SMOOTH"
);
}
);
width = 710;
}
);
leftKerningGroup = w;
note = w;
rightKerningGroup = w;
unicode = 0077;
},
{
glyphname = x;
layers = (
{
hints = (
{
horizontal = 1;
place = "{0, 21}";
target = up;
type = BottomGhost;
},
{
horizontal = 1;
place = "{479, -20}";
target = down;
type = TopGhost;
}
);
layerId = "D2FC741B-AB3D-47FE-B7ED-22FDCD907D24";
paths = (
{
closed = 1;
nodes = (
"13 0 LINE",
"139 0 LINE",
"213 114 LINE SMOOTH",
"224 132 OFFCURVE",
"234 149 OFFCURVE",
"244 167 CURVE",
"247 167 LINE",
"255 152 OFFCURVE",
"264 135 OFFCURVE",
"276 115 CURVE SMOOTH",
"352 0 LINE",
"482 0 LINE",
"308 246 LINE",
"473 479 LINE",
"348 479 LINE",
"279 369 LINE SMOOTH",
"269 353 OFFCURVE",
"260 337 OFFCURVE",
"252 321 CURVE",
"249 321 LINE",
"241 335 OFFCURVE",
"232 354 OFFCURVE",
"220 372 CURVE SMOOTH",
"149 479 LINE",
"23 479 LINE",
"188 243 LINE"
);
}
);
width = 497;
}
);
leftKerningGroup = x;
note = x;
rightKerningGroup = x;
unicode = 0078;
},
{
glyphname = y;
layers = (
{
hints = (
{
horizontal = 1;
place = "{-235, 21}";
target = up;
type = BottomGhost;
},
{
horizontal = 1;
place = "{479, -20}";
target = down;
type = TopGhost;
}
);
layerId = "D2FC741B-AB3D-47FE-B7ED-22FDCD907D24";
paths = (
{
closed = 1;
nodes = (
"456 479 LINE",
"345 479 LINE",
"264 241 LINE SMOOTH",
"251 202 OFFCURVE",
"242 171 OFFCURVE",
"232 131 CURVE",
"229 131 LINE",
"223 164 OFFCURVE",
"207 211 OFFCURVE",
"197 241 CURVE SMOOTH",
"114 479 LINE",
"-1 479 LINE",
"174 2 LINE",
"86 -235 LINE",
"193 -235 LINE"
);
}
);
width = 452;
}
);
leftKerningGroup = v;
note = y;
rightKerningGroup = v;
unicode = 0079;
},
{
glyphname = z;
layers = (
{
hints = (
{
horizontal = 1;
place = "{0, 93}";
type = Stem;
},
{
horizontal = 1;
place = "{386, 93}";
type = Stem;
}
);
layerId = "D2FC741B-AB3D-47FE-B7ED-22FDCD907D24";
paths = (
{
closed = 1;
nodes = (
"48 386 LINE",
"294 386 LINE",
"36 89 LINE",
"36 0 LINE",
"447 0 LINE",
"447 93 LINE",
"178 93 LINE",
"435 390 LINE",
"435 479 LINE",
"48 479 LINE"
);
}
);
width = 484;
}
);
leftKerningGroup = z;
note = z;
rightKerningGroup = z;
unicode = 007A;
},
{
glyphname = braceleft;
layers = (
{
hints = (
{
horizontal = 1;
place = "{-215, 84}";
type = Stem;
},
{
horizontal = 1;
place = "{223, 80}";
type = Stem;
},
{
horizontal = 1;
place = "{657, 85}";
type = Stem;
},
{
place = "{145, 105}";
type = Stem;
}
);
layerId = "D2FC741B-AB3D-47FE-B7ED-22FDCD907D24";
paths = (
{
closed = 1;
nodes = (
"320 742 LINE",
"198 740 OFFCURVE",
"145 676 OFFCURVE",
"145 579 CURVE SMOOTH",
"145 387 LINE SMOOTH",
"145 343 OFFCURVE",
"116 306 OFFCURVE",
"62 303 CURVE",
"62 223 LINE",
"116 219 OFFCURVE",
"145 183 OFFCURVE",
"145 138 CURVE SMOOTH",
"145 -50 LINE SMOOTH",
"145 -154 OFFCURVE",
"201 -214 OFFCURVE",
"320 -215 CURVE",
"320 -131 LINE",
"269 -129 OFFCURVE",
"250 -101 OFFCURVE",
"250 -52 CURVE SMOOTH",
"250 125 LINE SMOOTH",
"250 195 OFFCURVE",
"218 244 OFFCURVE",
"168 261 CURVE",
"168 263 LINE",
"224 285 OFFCURVE",
"250 337 OFFCURVE",
"250 392 CURVE SMOOTH",
"250 578 LINE SMOOTH",
"250 627 OFFCURVE",
"269 656 OFFCURVE",
"320 657 CURVE"
);
}
);
width = 382;
}
);
note = braceleft;
rightKerningGroup = parenleft;
unicode = 007B;
},
{
glyphname = bar;
layers = (
{
hints = (
{
horizontal = 1;
place = "{-210, 21}";
target = up;
type = BottomGhost;
},
{
horizontal = 1;
place = "{790, -20}";
target = down;
type = TopGhost;
},
{
place = "{143, 89}";
type = Stem;
}
);
layerId = "D2FC741B-AB3D-47FE-B7ED-22FDCD907D24";
paths = (
{
closed = 1;
nodes = (
"232 -210 LINE",
"232 790 LINE",
"143 790 LINE",
"143 -210 LINE"
);
}
);
width = 376;
}
);
note = bar;
unicode = 007C;
},
{
glyphname = braceright;
layers = (
{
hints = (
{
horizontal = 1;
place = "{-215, 84}";
type = Stem;
},
{
horizontal = 1;
place = "{223, 80}";
type = Stem;
},
{
horizontal = 1;
place = "{657, 85}";
type = Stem;
},
{
place = "{132, 104}";
type = Stem;
}
);
layerId = "D2FC741B-AB3D-47FE-B7ED-22FDCD907D24";
paths = (
{
closed = 1;
nodes = (
"62 657 LINE",
"113 656 OFFCURVE",
"132 627 OFFCURVE",
"132 578 CURVE SMOOTH",
"132 392 LINE SMOOTH",
"132 337 OFFCURVE",
"158 285 OFFCURVE",
"214 263 CURVE",
"214 261 LINE",
"164 244 OFFCURVE",
"132 195 OFFCURVE",
"132 125 CURVE SMOOTH",
"132 -52 LINE SMOOTH",
"132 -101 OFFCURVE",
"113 -129 OFFCURVE",
"62 -131 CURVE",
"62 -215 LINE",
"171 -214 OFFCURVE",
"236 -161 OFFCURVE",
"236 -50 CURVE SMOOTH",
"236 138 LINE SMOOTH",
"236 183 OFFCURVE",
"265 219 OFFCURVE",
"319 223 CURVE",
"319 303 LINE",
"265 306 OFFCURVE",
"236 343 OFFCURVE",
"236 387 CURVE SMOOTH",
"236 579 LINE SMOOTH",
"236 676 OFFCURVE",
"183 740 OFFCURVE",
"62 742 CURVE"
);
}
);
width = 382;
}
);
leftKerningGroup = parenright;
note = braceright;
unicode = 007D;
},
{
glyphname = asciitilde;
layers = (
{
hints = (
{
horizontal = 1;
place = "{178, 86}";
type = Stem;
},
{
horizontal = 1;
place = "{259, 87}";
type = Stem;
}
);
layerId = "D2FC741B-AB3D-47FE-B7ED-22FDCD907D24";
paths = (
{
closed = 1;
nodes = (
"554 339 LINE",
"528 296 OFFCURVE",
"495 264 OFFCURVE",
"450 264 CURVE SMOOTH",
"416 264 OFFCURVE",
"382 281 OFFCURVE",
"342 307 CURVE SMOOTH",
"308 327 OFFCURVE",
"265 346 OFFCURVE",
"216 346 CURVE SMOOTH",
"141 346 OFFCURVE",
"87 306 OFFCURVE",
"44 229 CURVE",
"114 183 LINE",
"146 234 OFFCURVE",
"174 259 OFFCURVE",
"218 259 CURVE SMOOTH",
"254 259 OFFCURVE",
"283 241 OFFCURVE",
"323 216 CURVE SMOOTH",
"361 192 OFFCURVE",
"406 178 OFFCURVE",
"448 178 CURVE SMOOTH",
"528 178 OFFCURVE",
"579 218 OFFCURVE",
"624 294 CURVE"
);
}
);
width = 668;
}
);
note = asciitilde;
unicode = 007E;
},
{
glyphname = exclamdown;
layers = (
{
hints = (
{
horizontal = 1;
place = "{0, 21}";
target = up;
type = BottomGhost;
},
{
horizontal = 1;
place = "{480, -20}";
target = down;
type = TopGhost;
},
{
horizontal = 1;
place = "{570, 112}";
type = Stem;
},
{
place = "{73, 111}";
type = Stem;
}
);
layerId = "D2FC741B-AB3D-47FE-B7ED-22FDCD907D24";
paths = (
{
closed = 1;
nodes = (
"188 682 LINE",
"69 682 LINE",
"69 570 LINE",
"188 570 LINE"
);
},
{
closed = 1;
nodes = (
"190 0 LINE",
"178 480 LINE",
"79 480 LINE",
"67 0 LINE"
);
}
);
width = 256;
}
);
note = exclamdown;
rightKerningGroup = exclamdown;
unicode = 00A1;
},
{
glyphname = cent;
layers = (
{
hints = (
{
horizontal = 1;
place = "{0, 21}";
target = up;
type = BottomGhost;
},
{
horizontal = 1;
place = "{682, -20}";
target = down;
type = TopGhost;
},
{
place = "{45, 114}";
type = Stem;
},
{
place = "{250, 86}";
type = Stem;
}
);
layerId = "D2FC741B-AB3D-47FE-B7ED-22FDCD907D24";
paths = (
{
closed = 1;
nodes = (
"250 0 LINE",
"336 0 LINE",
"336 91 LINE",
"441 105 OFFCURVE",
"504 178 OFFCURVE",
"529 257 CURVE",
"415 257 LINE",
"402 227 OFFCURVE",
"377 199 OFFCURVE",
"336 189 CURVE",
"336 502 LINE",
"371 492 OFFCURVE",
"396 469 OFFCURVE",
"408 441 CURVE",
"521 441 LINE",
"506 504 OFFCURVE",
"448 584 OFFCURVE",
"336 598 CURVE",
"336 682 LINE",
"250 682 LINE",
"250 597 LINE",
"123 575 OFFCURVE",
"45 471 OFFCURVE",
"45 347 CURVE SMOOTH",
"45 207 OFFCURVE",
"135 114 OFFCURVE",
"250 93 CURVE"
);
},
{
closed = 1;
nodes = (
"159 424 OFFCURVE",
"196 479 OFFCURVE",
"250 499 CURVE",
"250 194 LINE",
"193 216 OFFCURVE",
"159 275 OFFCURVE",
"159 346 CURVE SMOOTH"
);
}
);
width = 569;
}
);
note = cent;
unicode = 00A2;
},
{
glyphname = sterling;
layers = (
{
hints = (
{
horizontal = 1;
place = "{-22, 103}";
type = Stem;
},
{
horizontal = 1;
place = "{309, 89}";
type = Stem;
},
{
horizontal = 1;
place = "{608, 97}";
type = Stem;
},
{
place = "{94, 115}";
type = Stem;
},
{
place = "{398, 114}";
type = Stem;
},
{
place = "{145, 107}";
type = Stem;
},
{
place = "{442, 107}";
type = Stem;
}
);
layerId = "D2FC741B-AB3D-47FE-B7ED-22FDCD907D24";
paths = (
{
closed = 1;
nodes = (
"415 398 LINE",
"221 398 LINE",
"214 430 OFFCURVE",
"209 467 OFFCURVE",
"209 502 CURVE SMOOTH",
"209 564 OFFCURVE",
"242 608 OFFCURVE",
"303 608 CURVE SMOOTH",
"355 608 OFFCURVE",
"396 569 OFFCURVE",
"398 508 CURVE",
"512 508 LINE",
"507 622 OFFCURVE",
"428 705 OFFCURVE",
"302 705 CURVE SMOOTH",
"160 705 OFFCURVE",
"94 614 OFFCURVE",
"94 514 CURVE SMOOTH",
"94 467 OFFCURVE",
"102 428 OFFCURVE",
"109 398 CURVE",
"46 398 LINE",
"46 309 LINE",
"133 309 LINE",
"140 283 OFFCURVE",
"145 252 OFFCURVE",
"145 220 CURVE SMOOTH",
"145 173 OFFCURVE",
"112 117 OFFCURVE",
"46 96 CURVE",
"46 -3 LINE",
"81 18 OFFCURVE",
"121 31 OFFCURVE",
"160 31 CURVE SMOOTH",
"190 31 OFFCURVE",
"226 20 OFFCURVE",
"264 7 CURVE SMOOTH",
"309 -8 OFFCURVE",
"355 -22 OFFCURVE",
"399 -22 CURVE SMOOTH",
"499 -22 OFFCURVE",
"547 52 OFFCURVE",
"549 169 CURVE",
"442 169 LINE",
"440 114 OFFCURVE",
"426 81 OFFCURVE",
"389 81 CURVE SMOOTH",
"364 81 OFFCURVE",
"332 93 OFFCURVE",
"300 103 CURVE SMOOTH",
"272 113 OFFCURVE",
"234 125 OFFCURVE",
"208 125 CURVE",
"232 145 OFFCURVE",
"252 178 OFFCURVE",
"252 230 CURVE SMOOTH",
"252 256 OFFCURVE",
"248 283 OFFCURVE",
"243 309 CURVE",
"415 309 LINE"
);
}
);
width = 569;
}
);
note = sterling;
unicode = 00A3;
},
{
glyphname = fraction;
layers = (
{
hints = (
{
horizontal = 1;
place = "{0, 21}";
target = up;
type = BottomGhost;
},
{
horizontal = 1;
place = "{682, -20}";
target = down;
type = TopGhost;
}
);
layerId = "D2FC741B-AB3D-47FE-B7ED-22FDCD907D24";
paths = (
{
closed = 1;
nodes = (
"283 682 LINE",
"-179 0 LINE",
"-90 0 LINE",
"371 682 LINE"
);
}
);
width = 192;
}
);
note = fraction;
unicode = 2044;
},
{
glyphname = yen;
layers = (
{
hints = (
{
horizontal = 1;
place = "{0, 21}";
target = up;
type = BottomGhost;
},
{
horizontal = 1;
place = "{116, 84}";
type = Stem;
},
{
horizontal = 1;
place = "{278, 84}";
type = Stem;
},
{
horizontal = 1;
place = "{682, -20}";
target = down;
type = TopGhost;
},
{
place = "{228, 113}";
type = Stem;
}
);
layerId = "D2FC741B-AB3D-47FE-B7ED-22FDCD907D24";
paths = (
{
closed = 1;
nodes = (
"53 278 LINE",
"228 278 LINE",
"228 200 LINE",
"53 200 LINE",
"53 116 LINE",
"228 116 LINE",
"228 0 LINE",
"341 0 LINE",
"341 116 LINE",
"516 116 LINE",
"516 200 LINE",
"341 200 LINE",
"341 278 LINE",
"516 278 LINE",
"516 362 LINE",
"380 362 LINE",
"549 682 LINE",
"430 682 LINE",
"325 468 LINE SMOOTH",
"310 437 OFFCURVE",
"299 412 OFFCURVE",
"288 384 CURVE",
"286 384 LINE",
"277 411 OFFCURVE",
"263 440 OFFCURVE",
"248 469 CURVE SMOOTH",
"141 682 LINE",
"19 682 LINE",
"188 362 LINE",
"53 362 LINE"
);
}
);
width = 569;
}
);
note = yen;
unicode = 00A5;
},
{
glyphname = florin;
layers = (
{
hints = (
{
horizontal = 1;
place = "{-257, 93}";
type = Stem;
},
{
horizontal = 1;
place = "{388, 94}";
type = Stem;
},
{
horizontal = 1;
place = "{610, 94}";
type = Stem;
}
);
layerId = "D2FC741B-AB3D-47FE-B7ED-22FDCD907D24";
paths = (
{
closed = 1;
nodes = (
"141 -79 LINE SMOOTH",
"131 -139 OFFCURVE",
"110 -164 OFFCURVE",
"66 -164 CURVE SMOOTH",
"51 -164 OFFCURVE",
"32 -161 OFFCURVE",
"17 -158 CURVE",
"17 -250 LINE",
"35 -255 OFFCURVE",
"58 -257 OFFCURVE",
"87 -257 CURVE SMOOTH",
"178 -257 OFFCURVE",
"232 -206 OFFCURVE",
"252 -86 CURVE SMOOTH",
"327 388 LINE",
"429 388 LINE",
"429 482 LINE",
"341 482 LINE",
"350 535 LINE SMOOTH",
"357 583 OFFCURVE",
"379 610 OFFCURVE",
"423 610 CURVE SMOOTH",
"438 610 OFFCURVE",
"456 609 OFFCURVE",
"471 606 CURVE",
"471 697 LINE",
"454 700 OFFCURVE",
"429 704 OFFCURVE",
"403 704 CURVE SMOOTH",
"308 704 OFFCURVE",
"256 652 OFFCURVE",
"238 538 CURVE SMOOTH",
"229 482 LINE",
"137 482 LINE",
"137 388 LINE",
"216 388 LINE"
);
}
);
width = 569;
}
);
note = florin;
unicode = 0192;
},
{
glyphname = section;
layers = (
{
hints = (
{
horizontal = 1;
place = "{-46, 77}";
type = Stem;
},
{
horizontal = 1;
place = "{625, 79}";
type = Stem;
},
{
place = "{68, 92}";
type = Stem;
},
{
place = "{299, 91}";
type = Stem;
},
{
place = "{283, 93}";
type = Stem;
},
{
place = "{55, 90}";
type = Stem;
}
);
layerId = "D2FC741B-AB3D-47FE-B7ED-22FDCD907D24";
paths = (
{
closed = 1;
nodes = (
"390 405 OFFCURVE",
"339 447 OFFCURVE",
"268 477 CURVE SMOOTH",
"184 513 OFFCURVE",
"160 532 OFFCURVE",
"160 571 CURVE SMOOTH",
"160 595 OFFCURVE",
"177 625 OFFCURVE",
"223 625 CURVE SMOOTH",
"261 625 OFFCURVE",
"285 602 OFFCURVE",
"287 571 CURVE",
"376 571 LINE",
"373 646 OFFCURVE",
"318 704 OFFCURVE",
"226 704 CURVE SMOOTH",
"123 704 OFFCURVE",
"68 643 OFFCURVE",
"68 569 CURVE SMOOTH",
"68 518 OFFCURVE",
"91 481 OFFCURVE",
"130 453 CURVE",
"84 436 OFFCURVE",
"55 394 OFFCURVE",
"55 343 CURVE SMOOTH",
"55 262 OFFCURVE",
"113 220 OFFCURVE",
"193 186 CURVE SMOOTH",
"248 162 OFFCURVE",
"283 138 OFFCURVE",
"283 95 CURVE SMOOTH",
"283 60 OFFCURVE",
"259 31 OFFCURVE",
"215 31 CURVE SMOOTH",
"166 31 OFFCURVE",
"145 59 OFFCURVE",
"143 100 CURVE",
"48 100 LINE",
"55 11 OFFCURVE",
"109 -46 OFFCURVE",
"213 -46 CURVE SMOOTH",
"325 -46 OFFCURVE",
"376 23 OFFCURVE",
"376 98 CURVE SMOOTH",
"376 147 OFFCURVE",
"353 189 OFFCURVE",
"316 215 CURVE",
"363 238 OFFCURVE",
"390 278 OFFCURVE",
"390 331 CURVE SMOOTH"
);
},
{
closed = 1;
nodes = (
"299 295 OFFCURVE",
"280 269 OFFCURVE",
"247 257 CURVE",
"173 289 OFFCURVE",
"145 308 OFFCURVE",
"145 350 CURVE SMOOTH",
"145 384 OFFCURVE",
"172 405 OFFCURVE",
"200 411 CURVE",
"265 386 OFFCURVE",
"299 366 OFFCURVE",
"299 325 CURVE SMOOTH"
);
}
);
width = 439;
}
);
note = section;
unicode = 00A7;
},
{
glyphname = currency;
layers = (
{
hints = (
{
horizontal = 1;
place = "{120, 21}";
target = up;
type = BottomGhost;
},
{
horizontal = 1;
place = "{151, 76}";
type = Stem;
},
{
horizontal = 1;
place = "{482, 75}";
type = Stem;
},
{
horizontal = 1;
place = "{589, -20}";
target = down;
type = TopGhost;
},
{
place = "{102, 76}";
type = Stem;
},
{
place = "{435, 77}";
type = Stem;
}
);
layerId = "D2FC741B-AB3D-47FE-B7ED-22FDCD907D24";
paths = (
{
closed = 1;
nodes = (
"544 175 LINE",
"521 196 OFFCURVE",
"498 218 OFFCURVE",
"476 240 CURVE",
"501 278 OFFCURVE",
"512 317 OFFCURVE",
"512 354 CURVE SMOOTH",
"512 388 OFFCURVE",
"502 429 OFFCURVE",
"476 468 CURVE",
"544 534 LINE",
"491 589 LINE",
"422 522 LINE",
"388 546 OFFCURVE",
"343 557 OFFCURVE",
"307 557 CURVE SMOOTH",
"272 557 OFFCURVE",
"230 548 OFFCURVE",
"191 522 CURVE",
"123 589 LINE",
"69 534 LINE",
"69 534 OFFCURVE",
"115 490 OFFCURVE",
"138 468 CURVE",
"113 433 OFFCURVE",
"102 391 OFFCURVE",
"102 354 CURVE SMOOTH",
"102 317 OFFCURVE",
"114 277 OFFCURVE",
"138 240 CURVE",
"69 175 LINE",
"123 120 LINE",
"191 187 LINE",
"228 160 OFFCURVE",
"272 151 OFFCURVE",
"307 151 CURVE SMOOTH",
"348 151 OFFCURVE",
"388 163 OFFCURVE",
"422 187 CURVE",
"491 120 LINE"
);
},
{
closed = 1;
nodes = (
"435 285 OFFCURVE",
"377 227 OFFCURVE",
"307 227 CURVE SMOOTH",
"236 227 OFFCURVE",
"178 285 OFFCURVE",
"178 355 CURVE SMOOTH",
"178 423 OFFCURVE",
"234 482 OFFCURVE",
"307 482 CURVE SMOOTH",
"372 482 OFFCURVE",
"435 429 OFFCURVE",
"435 355 CURVE SMOOTH"
);
}
);
width = 614;
}
);
note = currency;
unicode = 00A4;
},
{
glyphname = quotesingle;
layers = (
{
hints = (
{
horizontal = 1;
place = "{489, 21}";
target = up;
type = BottomGhost;
},
{
horizontal = 1;
place = "{721, -20}";
target = down;
type = TopGhost;
},
{
place = "{60, 96}";
type = Stem;
}
);
layerId = "D2FC741B-AB3D-47FE-B7ED-22FDCD907D24";
paths = (
{
closed = 1;
nodes = (
"56 721 LINE",
"65 489 LINE",
"151 489 LINE",
"161 721 LINE"
);
}
);
width = 217;
}
);
note = quotesingle;
unicode = 0027;
},
{
glyphname = quotedblleft;
layers = (
{
hints = (
{
horizontal = 1;
place = "{473, 124}";
type = Stem;
},
{
horizontal = 1;
place = "{720, -20}";
target = down;
type = TopGhost;
},
{
place = "{63, 131}";
type = Stem;
},
{
place = "{250, 130}";
type = Stem;
}
);
layerId = "D2FC741B-AB3D-47FE-B7ED-22FDCD907D24";
paths = (
{
closed = 1;
nodes = (
"194 597 LINE",
"143 597 LINE",
"146 641 OFFCURVE",
"158 685 OFFCURVE",
"181 720 CURVE",
"116 720 LINE",
"85 671 OFFCURVE",
"63 610 OFFCURVE",
"63 533 CURVE SMOOTH",
"63 473 LINE",
"194 473 LINE"
);
},
{
closed = 1;
nodes = (
"380 597 LINE",
"329 597 LINE",
"333 641 OFFCURVE",
"345 685 OFFCURVE",
"367 720 CURVE",
"303 720 LINE",
"272 671 OFFCURVE",
"250 610 OFFCURVE",
"250 533 CURVE SMOOTH",
"250 473 LINE",
"380 473 LINE"
);
}
);
width = 443;
}
);
leftKerningGroup = quoteleft;
note = quotedblleft;
rightKerningGroup = quoteleft;
unicode = 201C;
},
{
glyphname = guillemotleft;
layers = (
{
hints = (
{
horizontal = 1;
place = "{40, 21}";
target = up;
type = BottomGhost;
},
{
horizontal = 1;
place = "{455, -20}";
target = down;
type = TopGhost;
}
);
layerId = "D2FC741B-AB3D-47FE-B7ED-22FDCD907D24";
paths = (
{
closed = 1;
nodes = (
"241 248 LINE",
"369 40 LINE",
"439 79 LINE",
"352 248 LINE",
"439 417 LINE",
"369 455 LINE"
);
},
{
closed = 1;
nodes = (
"52 248 LINE",
"180 40 LINE",
"250 79 LINE",
"162 248 LINE",
"250 417 LINE",
"180 455 LINE"
);
}
);
width = 487;
}
);
leftKerningGroup = guillemotleft;
note = guillemotleft;
rightKerningGroup = guillemotleft;
unicode = 00AB;
},
{
glyphname = guilsinglleft;
layers = (
{
hints = (
{
horizontal = 1;
place = "{40, 21}";
target = up;
type = BottomGhost;
},
{
horizontal = 1;
place = "{455, -20}";
target = down;
type = TopGhost;
}
);
layerId = "D2FC741B-AB3D-47FE-B7ED-22FDCD907D24";
paths = (
{
closed = 1;
nodes = (
"52 248 LINE",
"180 40 LINE",
"250 79 LINE",
"162 248 LINE",
"250 417 LINE",
"180 455 LINE"
);
}
);
width = 298;
}
);
leftKerningGroup = guillemotleft;
note = guilsinglleft;
rightKerningGroup = guillemotleft;
unicode = 2039;
},
{
glyphname = guilsinglright;
layers = (
{
hints = (
{
horizontal = 1;
place = "{40, 21}";
target = up;
type = BottomGhost;
},
{
horizontal = 1;
place = "{455, -20}";
target = down;
type = TopGhost;
}
);
layerId = "D2FC741B-AB3D-47FE-B7ED-22FDCD907D24";
paths = (
{
closed = 1;
nodes = (
"246 247 LINE",
"118 455 LINE",
"48 417 LINE",
"135 247 LINE",
"48 78 LINE",
"118 40 LINE"
);
}
);
width = 298;
}
);
leftKerningGroup = guilsinglright;
note = guilsinglright;
rightKerningGroup = guilsinglright;
unicode = 203A;
},
{
glyphname = fi;
layers = (
{
hints = (
{
horizontal = 1;
place = "{0, 21}";
target = up;
type = BottomGhost;
},
{
horizontal = 1;
place = "{385, 94}";
type = Stem;
},
{
horizontal = 1;
place = "{632, 93}";
type = Stem;
},
{
place = "{89, 112}";
type = Stem;
},
{
place = "{390, 112}";
type = Stem;
},
{
horizontal = 1;
place = "{585, 114}";
type = Stem;
}
);
layerId = "D2FC741B-AB3D-47FE-B7ED-22FDCD907D24";
paths = (
{
closed = 1;
nodes = (
"21 385 LINE",
"89 385 LINE",
"89 0 LINE",
"201 0 LINE",
"201 385 LINE",
"308 385 LINE",
"308 479 LINE",
"201 479 LINE",
"201 556 LINE SMOOTH",
"201 602 OFFCURVE",
"221 632 OFFCURVE",
"271 632 CURVE SMOOTH",
"290 632 OFFCURVE",
"306 629 OFFCURVE",
"325 624 CURVE",
"325 716 LINE",
"305 722 OFFCURVE",
"279 725 OFFCURVE",
"252 725 CURVE SMOOTH",
"146 725 OFFCURVE",
"89 666 OFFCURVE",
"89 558 CURVE SMOOTH",
"89 479 LINE",
"21 479 LINE"
);
},
{
closed = 1;
nodes = (
"390 0 LINE",
"502 0 LINE",
"502 479 LINE",
"390 479 LINE"
);
},
{
closed = 1;
nodes = (
"384 585 LINE",
"508 585 LINE",
"508 699 LINE",
"384 699 LINE"
);
}
);
width = 567;
}
);
leftKerningGroup = f;
note = fi;
rightKerningGroup = i;
unicode = FB01;
},
{
glyphname = fl;
layers = (
{
hints = (
{
horizontal = 1;
place = "{0, 21}";
target = up;
type = BottomGhost;
},
{
horizontal = 1;
place = "{385, 94}";
type = Stem;
},
{
horizontal = 1;
place = "{632, 93}";
type = Stem;
},
{
place = "{89, 112}";
type = Stem;
},
{
place = "{393, 112}";
type = Stem;
}
);
layerId = "D2FC741B-AB3D-47FE-B7ED-22FDCD907D24";
paths = (
{
closed = 1;
nodes = (
"21 385 LINE",
"89 385 LINE",
"89 0 LINE",
"201 0 LINE",
"201 385 LINE",
"308 385 LINE",
"308 479 LINE",
"201 479 LINE",
"201 556 LINE SMOOTH",
"201 602 OFFCURVE",
"221 632 OFFCURVE",
"271 632 CURVE SMOOTH",
"290 632 OFFCURVE",
"306 629 OFFCURVE",
"325 624 CURVE",
"325 716 LINE",
"305 722 OFFCURVE",
"279 725 OFFCURVE",
"252 725 CURVE SMOOTH",
"146 725 OFFCURVE",
"89 666 OFFCURVE",
"89 558 CURVE SMOOTH",
"89 479 LINE",
"21 479 LINE"
);
},
{
closed = 1;
nodes = (
"393 0 LINE",
"505 0 LINE",
"505 720 LINE",
"393 720 LINE"
);
}
);
width = 570;
}
);
leftKerningGroup = f;
note = fl;
rightKerningGroup = d;
unicode = FB02;
},
{
glyphname = endash;
layers = (
{
hints = (
{
horizontal = 1;
place = "{217, 94}";
type = Stem;
}
);
layerId = "D2FC741B-AB3D-47FE-B7ED-22FDCD907D24";
paths = (
{
closed = 1;
nodes = (
"480 217 LINE",
"480 311 LINE",
"76 311 LINE",
"76 217 LINE"
);
}
);
width = 556;
}
);
leftKerningGroup = hyphen;
note = endash;
rightKerningGroup = hyphen;
unicode = 2013;
},
{
glyphname = dagger;
layers = (
{
hints = (
{
horizontal = 1;
place = "{0, 21}";
target = up;
type = BottomGhost;
},
{
horizontal = 1;
place = "{682, -20}";
target = down;
type = TopGhost;
},
{
place = "{178, 94}";
type = Stem;
}
);
layerId = "D2FC741B-AB3D-47FE-B7ED-22FDCD907D24";
paths = (
{
closed = 1;
nodes = (
"407 428 LINE",
"407 536 LINE",
"265 522 LINE",
"279 682 LINE",
"171 682 LINE",
"186 522 LINE",
"45 536 LINE",
"45 428 LINE",
"186 443 LINE",
"171 350 LINE",
"186 0 LINE",
"265 0 LINE",
"279 350 LINE",
"265 443 LINE"
);
}
);
width = 451;
}
);
note = dagger;
unicode = 2020;
},
{
glyphname = daggerdbl;
layers = (
{
hints = (
{
horizontal = 1;
place = "{0, 21}";
target = up;
type = BottomGhost;
},
{
horizontal = 1;
place = "{682, -20}";
target = down;
type = TopGhost;
}
);
layerId = "D2FC741B-AB3D-47FE-B7ED-22FDCD907D24";
paths = (
{
closed = 1;
nodes = (
"276 151 LINE",
"263 227 LINE",
"407 214 LINE",
"407 316 LINE",
"263 303 LINE",
"276 379 LINE",
"263 456 LINE",
"407 443 LINE",
"407 544 LINE",
"263 531 LINE",
"276 682 LINE",
"175 682 LINE",
"187 531 LINE",
"45 544 LINE",
"45 443 LINE",
"187 456 LINE",
"175 379 LINE",
"187 303 LINE",
"45 316 LINE",
"45 214 LINE",
"187 227 LINE",
"175 151 LINE",
"187 0 LINE",
"263 0 LINE"
);
}
);
width = 451;
}
);
note = daggerdbl;
unicode = 2021;
},
{
glyphname = periodcentered;
layers = (
{
hints = (
{
horizontal = 1;
place = "{285, 21}";
target = up;
type = BottomGhost;
},
{
horizontal = 1;
place = "{420, -20}";
target = down;
type = TopGhost;
}
);
layerId = "D2FC741B-AB3D-47FE-B7ED-22FDCD907D24";
paths = (
{
closed = 1;
nodes = (
"61 285 LINE",
"202 285 LINE",
"202 420 LINE",
"61 420 LINE"
);
}
);
width = 256;
}
);
note = periodcentered;
unicode = 00B7;
},
{
glyphname = paragraph;
layers = (
{
hints = (
{
horizontal = 1;
place = "{0, 21}";
target = up;
type = BottomGhost;
},
{
horizontal = 1;
place = "{607, 75}";
type = Stem;
},
{
place = "{193, 82}";
type = Stem;
},
{
place = "{348, 83}";
type = Stem;
}
);
layerId = "D2FC741B-AB3D-47FE-B7ED-22FDCD907D24";
paths = (
{
closed = 1;
nodes = (
"492 607 LINE",
"492 682 LINE",
"200 682 LINE SMOOTH",
"106 682 OFFCURVE",
"31 628 OFFCURVE",
"31 528 CURVE SMOOTH",
"31 439 OFFCURVE",
"96 373 OFFCURVE",
"193 371 CURVE",
"193 0 LINE",
"275 0 LINE",
"275 607 LINE",
"348 607 LINE",
"348 0 LINE",
"431 0 LINE",
"431 607 LINE"
);
}
);
width = 557;
}
);
note = paragraph;
unicode = 00B6;
},
{
glyphname = bullet;
layers = (
{
hints = (
{
horizontal = 1;
place = "{164, 21}";
target = up;
type = BottomGhost;
},
{
horizontal = 1;
place = "{444, -20}";
target = down;
type = TopGhost;
}
);
layerId = "D2FC741B-AB3D-47FE-B7ED-22FDCD907D24";
paths = (
{
closed = 1;
nodes = (
"66 226 OFFCURVE",
"128 164 OFFCURVE",
"205 164 CURVE SMOOTH",
"281 164 OFFCURVE",
"346 226 OFFCURVE",
"346 304 CURVE SMOOTH",
"346 381 OFFCURVE",
"281 444 OFFCURVE",
"205 444 CURVE SMOOTH",
"128 444 OFFCURVE",
"66 381 OFFCURVE",
"66 304 CURVE SMOOTH"
);
}
);
width = 412;
}
);
note = bullet;
unicode = 2022;
},
{
glyphname = quotesinglbase;
layers = (
{
hints = (
{
horizontal = 1;
place = "{-123, 21}";
target = up;
type = BottomGhost;
},
{
horizontal = 1;
place = "{0, 21}";
target = up;
type = BottomGhost;
},
{
horizontal = 1;
place = "{124, -20}";
target = down;
type = TopGhost;
},
{
place = "{63, 130}";
type = Stem;
}
);
layerId = "D2FC741B-AB3D-47FE-B7ED-22FDCD907D24";
paths = (
{
closed = 1;
nodes = (
"63 0 LINE",
"113 0 LINE",
"110 -44 OFFCURVE",
"98 -88 OFFCURVE",
"75 -123 CURVE",
"140 -123 LINE",
"171 -74 OFFCURVE",
"193 -13 OFFCURVE",
"193 64 CURVE SMOOTH",
"193 124 LINE",
"63 124 LINE"
);
}
);
width = 256;
}
);
leftKerningGroup = comma;
note = quotesinglbase;
rightKerningGroup = comma;
unicode = 201A;
},
{
glyphname = quotedblbase;
layers = (
{
hints = (
{
horizontal = 1;
place = "{-123, 21}";
target = up;
type = BottomGhost;
},
{
horizontal = 1;
place = "{0, 124}";
type = Stem;
},
{
place = "{63, 130}";
type = Stem;
},
{
place = "{249, 131}";
type = Stem;
}
);
layerId = "D2FC741B-AB3D-47FE-B7ED-22FDCD907D24";
paths = (
{
closed = 1;
nodes = (
"249 0 LINE",
"300 0 LINE",
"297 -44 OFFCURVE",
"285 -88 OFFCURVE",
"262 -123 CURVE",
"327 -123 LINE",
"358 -74 OFFCURVE",
"380 -13 OFFCURVE",
"380 64 CURVE SMOOTH",
"380 124 LINE",
"249 124 LINE"
);
},
{
closed = 1;
nodes = (
"63 0 LINE",
"113 0 LINE",
"110 -44 OFFCURVE",
"98 -88 OFFCURVE",
"75 -123 CURVE",
"140 -123 LINE",
"171 -74 OFFCURVE",
"193 -13 OFFCURVE",
"193 64 CURVE SMOOTH",
"193 124 LINE",
"63 124 LINE"
);
}
);
width = 443;
}
);
leftKerningGroup = comma;
note = quotedblbase;
rightKerningGroup = comma;
unicode = 201E;
},
{
glyphname = quotedblright;
layers = (
{
hints = (
{
horizontal = 1;
place = "{473, 21}";
target = up;
type = BottomGhost;
},
{
horizontal = 1;
place = "{596, 124}";
type = Stem;
},
{
place = "{63, 130}";
type = Stem;
},
{
place = "{249, 131}";
type = Stem;
}
);
layerId = "D2FC741B-AB3D-47FE-B7ED-22FDCD907D24";
paths = (
{
closed = 1;
nodes = (
"249 596 LINE",
"300 596 LINE",
"297 552 OFFCURVE",
"285 508 OFFCURVE",
"262 473 CURVE",
"327 473 LINE",
"358 522 OFFCURVE",
"380 583 OFFCURVE",
"380 660 CURVE SMOOTH",
"380 720 LINE",
"249 720 LINE"
);
},
{
closed = 1;
nodes = (
"63 596 LINE",
"113 596 LINE",
"110 552 OFFCURVE",
"98 508 OFFCURVE",
"75 473 CURVE",
"140 473 LINE",
"171 522 OFFCURVE",
"193 583 OFFCURVE",
"193 660 CURVE SMOOTH",
"193 720 LINE",
"63 720 LINE"
);
}
);
width = 443;
}
);
leftKerningGroup = quoteright;
note = quotedblright;
rightKerningGroup = quoteright;
unicode = 201D;
},
{
glyphname = guillemotright;
layers = (
{
hints = (
{
horizontal = 1;
place = "{40, 21}";
target = up;
type = BottomGhost;
},
{
horizontal = 1;
place = "{455, -20}";
target = down;
type = TopGhost;
}
);
layerId = "D2FC741B-AB3D-47FE-B7ED-22FDCD907D24";
paths = (
{
closed = 1;
nodes = (
"246 247 LINE",
"118 455 LINE",
"48 417 LINE",
"135 247 LINE",
"48 78 LINE",
"118 40 LINE"
);
},
{
closed = 1;
nodes = (
"436 247 LINE",
"308 455 LINE",
"237 417 LINE",
"325 247 LINE",
"237 78 LINE",
"308 40 LINE"
);
}
);
width = 487;
}
);
leftKerningGroup = guilsinglright;
note = guillemotright;
rightKerningGroup = guilsinglright;
unicode = 00BB;
},
{
glyphname = ellipsis;
layers = (
{
hints = (
{
horizontal = 1;
place = "{0, 21}";
target = up;
type = BottomGhost;
},
{
horizontal = 1;
place = "{135, -20}";
target = down;
type = TopGhost;
}
);
layerId = "D2FC741B-AB3D-47FE-B7ED-22FDCD907D24";
paths = (
{
closed = 1;
nodes = (
"100 0 LINE",
"240 0 LINE",
"240 135 LINE",
"100 135 LINE"
);
},
{
closed = 1;
nodes = (
"433 0 LINE",
"573 0 LINE",
"573 135 LINE",
"433 135 LINE"
);
},
{
closed = 1;
nodes = (
"766 0 LINE",
"906 0 LINE",
"906 135 LINE",
"766 135 LINE"
);
}
);
width = 1006;
}
);
leftKerningGroup = comma;
note = ellipsis;
rightKerningGroup = comma;
unicode = 2026;
},
{
glyphname = perthousand;
layers = (
{
hints = (
{
horizontal = 1;
place = "{0, 21}";
target = up;
type = BottomGhost;
},
{
horizontal = 1;
place = "{325, 76}";
type = Stem;
},
{
horizontal = 1;
place = "{682, -20}";
target = down;
type = TopGhost;
},
{
place = "{41, 87}";
type = Stem;
},
{
place = "{268, 86}";
type = Stem;
},
{
place = "{437, 86}";
type = Stem;
},
{
place = "{663, 86}";
type = Stem;
},
{
place = "{790, 87}";
type = Stem;
},
{
place = "{1016, 87}";
type = Stem;
},
{
horizontal = 1;
place = "{-22, 77}";
type = Stem;
},
{
horizontal = 1;
place = "{627, 76}";
type = Stem;
},
{
horizontal = 1;
place = "{280, 76}";
type = Stem;
}
);
layerId = "D2FC741B-AB3D-47FE-B7ED-22FDCD907D24";
paths = (
{
closed = 1;
nodes = (
"580 682 LINE",
"121 0 LINE",
"213 0 LINE",
"671 682 LINE"
);
},
{
closed = 1;
nodes = (
"41 371 OFFCURVE",
"127 325 OFFCURVE",
"199 325 CURVE SMOOTH",
"259 325 OFFCURVE",
"354 364 OFFCURVE",
"354 517 CURVE SMOOTH",
"354 656 OFFCURVE",
"271 703 OFFCURVE",
"202 703 CURVE SMOOTH",
"126 703 OFFCURVE",
"41 649 OFFCURVE",
"41 515 CURVE SMOOTH"
);
},
{
closed = 1;
nodes = (
"268 434 OFFCURVE",
"235 401 OFFCURVE",
"199 401 CURVE SMOOTH",
"156 401 OFFCURVE",
"128 436 OFFCURVE",
"128 516 CURVE SMOOTH",
"128 595 OFFCURVE",
"160 627 OFFCURVE",
"198 627 CURVE SMOOTH",
"242 627 OFFCURVE",
"268 589 OFFCURVE",
"268 515 CURVE SMOOTH"
);
},
{
closed = 1;
nodes = (
"437 24 OFFCURVE",
"522 -22 OFFCURVE",
"593 -22 CURVE SMOOTH",
"654 -22 OFFCURVE",
"749 17 OFFCURVE",
"749 171 CURVE SMOOTH",
"749 309 OFFCURVE",
"666 356 OFFCURVE",
"596 356 CURVE SMOOTH",
"521 356 OFFCURVE",
"437 302 OFFCURVE",
"437 169 CURVE SMOOTH"
);
},
{
closed = 1;
nodes = (
"663 86 OFFCURVE",
"630 55 OFFCURVE",
"594 55 CURVE SMOOTH",
"551 55 OFFCURVE",
"523 89 OFFCURVE",
"523 170 CURVE SMOOTH",
"523 248 OFFCURVE",
"555 280 OFFCURVE",
"593 280 CURVE SMOOTH",
"637 280 OFFCURVE",
"663 242 OFFCURVE",
"663 169 CURVE SMOOTH"
);
},
{
closed = 1;
nodes = (
"790 24 OFFCURVE",
"876 -22 OFFCURVE",
"947 -22 CURVE SMOOTH",
"1008 -22 OFFCURVE",
"1103 17 OFFCURVE",
"1103 171 CURVE SMOOTH",
"1103 309 OFFCURVE",
"1020 356 OFFCURVE",
"950 356 CURVE SMOOTH",
"875 356 OFFCURVE",
"790 302 OFFCURVE",
"790 169 CURVE SMOOTH"
);
},
{
closed = 1;
nodes = (
"1016 86 OFFCURVE",
"984 55 OFFCURVE",
"947 55 CURVE SMOOTH",
"905 55 OFFCURVE",
"877 89 OFFCURVE",
"877 170 CURVE SMOOTH",
"877 248 OFFCURVE",
"909 280 OFFCURVE",
"946 280 CURVE SMOOTH",
"991 280 OFFCURVE",
"1016 242 OFFCURVE",
"1016 169 CURVE SMOOTH"
);
}
);
width = 1144;
}
);
note = perthousand;
unicode = 2030;
},
{
glyphname = questiondown;
layers = (
{
hints = (
{
horizontal = 1;
place = "{-22, 101}";
type = Stem;
},
{
horizontal = 1;
place = "{480, -20}";
target = down;
type = TopGhost;
},
{
horizontal = 1;
place = "{570, 112}";
type = Stem;
},
{
place = "{21, 119}";
type = Stem;
},
{
place = "{169, 120}";
type = Stem;
},
{
place = "{322, 114}";
type = Stem;
}
);
layerId = "D2FC741B-AB3D-47FE-B7ED-22FDCD907D24";
paths = (
{
closed = 1;
nodes = (
"70 306 OFFCURVE",
"21 247 OFFCURVE",
"21 162 CURVE SMOOTH",
"21 61 OFFCURVE",
"95 -22 OFFCURVE",
"227 -22 CURVE SMOOTH",
"350 -22 OFFCURVE",
"433 58 OFFCURVE",
"436 181 CURVE",
"322 181 LINE",
"322 117 OFFCURVE",
"281 79 OFFCURVE",
"230 79 CURVE SMOOTH",
"174 79 OFFCURVE",
"140 119 OFFCURVE",
"140 170 CURVE SMOOTH",
"140 228 OFFCURVE",
"172 255 OFFCURVE",
"227 315 CURVE SMOOTH",
"271 365 OFFCURVE",
"279 407 OFFCURVE",
"279 480 CURVE",
"179 480 LINE",
"179 425 OFFCURVE",
"164 393 OFFCURVE",
"127 357 CURVE SMOOTH"
);
},
{
closed = 1;
nodes = (
"289 682 LINE",
"169 682 LINE",
"169 570 LINE",
"289 570 LINE"
);
}
);
width = 454;
}
);
note = questiondown;
rightKerningGroup = questiondown;
unicode = 00BF;
},
{
glyphname = grave;
layers = (
{
hints = (
{
horizontal = 1;
place = "{556, 21}";
target = up;
type = BottomGhost;
},
{
horizontal = 1;
place = "{758, -20}";
target = down;
type = TopGhost;
}
);
layerId = "D2FC741B-AB3D-47FE-B7ED-22FDCD907D24";
paths = (
{
closed = 1;
nodes = (
"34 685 LINE",
"194 556 LINE",
"244 616 LINE",
"97 758 LINE"
);
}
);
width = 324;
}
);
note = grave;
unicode = 0060;
},
{
glyphname = acute;
layers = (
{
hints = (
{
horizontal = 1;
place = "{556, 21}";
target = up;
type = BottomGhost;
},
{
horizontal = 1;
place = "{758, -20}";
target = down;
type = TopGhost;
}
);
layerId = "D2FC741B-AB3D-47FE-B7ED-22FDCD907D24";
paths = (
{
closed = 1;
nodes = (
"80 616 LINE",
"130 556 LINE",
"290 685 LINE",
"228 758 LINE"
);
}
);
width = 324;
}
);
note = acute;
unicode = 00B4;
},
{
glyphname = circumflex;
layers = (
{
hints = (
{
horizontal = 1;
place = "{554, 21}";
target = up;
type = BottomGhost;
},
{
horizontal = 1;
place = "{740, -20}";
target = down;
type = TopGhost;
}
);
layerId = "D2FC741B-AB3D-47FE-B7ED-22FDCD907D24";
paths = (
{
closed = 1;
nodes = (
"162 740 LINE",
"8 613 LINE",
"53 554 LINE",
"162 633 LINE",
"271 554 LINE",
"316 613 LINE"
);
}
);
width = 324;
}
);
note = circumflex;
unicode = 02C6;
},
{
glyphname = tilde;
layers = (
{
hints = (
{
horizontal = 1;
place = "{639, 79}";
type = Stem;
},
{
horizontal = 1;
place = "{581, 79}";
type = Stem;
}
);
layerId = "D2FC741B-AB3D-47FE-B7ED-22FDCD907D24";
paths = (
{
closed = 1;
nodes = (
"64 590 LINE",
"66 622 OFFCURVE",
"77 639 OFFCURVE",
"94 639 CURVE SMOOTH",
"108 639 OFFCURVE",
"120 631 OFFCURVE",
"147 610 CURVE SMOOTH",
"172 591 OFFCURVE",
"197 581 OFFCURVE",
"228 581 CURVE SMOOTH",
"294 581 OFFCURVE",
"328 626 OFFCURVE",
"331 709 CURVE",
"260 709 LINE",
"259 670 OFFCURVE",
"246 660 OFFCURVE",
"230 660 CURVE SMOOTH",
"213 660 OFFCURVE",
"195 669 OFFCURVE",
"170 688 CURVE SMOOTH",
"144 708 OFFCURVE",
"124 718 OFFCURVE",
"95 718 CURVE SMOOTH",
"27 718 OFFCURVE",
"-3 663 OFFCURVE",
"-7 590 CURVE"
);
}
);
width = 324;
}
);
note = tilde;
unicode = 02DC;
},
{
glyphname = macron;
layers = (
{
hints = (
{
horizontal = 1;
place = "{597, 80}";
type = Stem;
}
);
layerId = "D2FC741B-AB3D-47FE-B7ED-22FDCD907D24";
paths = (
{
closed = 1;
nodes = (
"303 597 LINE",
"303 677 LINE",
"21 677 LINE",
"21 597 LINE"
);
}
);
width = 324;
}
);
note = macron;
unicode = 00AF;
},
{
glyphname = breve;
layers = (
{
hints = (
{
horizontal = 1;
place = "{567, 83}";
type = Stem;
},
{
horizontal = 1;
place = "{721, -20}";
target = down;
type = TopGhost;
}
);
layerId = "D2FC741B-AB3D-47FE-B7ED-22FDCD907D24";
paths = (
{
closed = 1;
nodes = (
"245 721 LINE",
"242 679 OFFCURVE",
"209 650 OFFCURVE",
"162 650 CURVE SMOOTH",
"114 650 OFFCURVE",
"83 678 OFFCURVE",
"79 721 CURVE",
"0 721 LINE",
"4 629 OFFCURVE",
"69 567 OFFCURVE",
"162 567 CURVE SMOOTH",
"250 567 OFFCURVE",
"320 629 OFFCURVE",
"325 721 CURVE"
);
}
);
width = 324;
}
);
note = breve;
unicode = 02D8;
},
{
glyphname = dotaccent;
layers = (
{
hints = (
{
horizontal = 1;
place = "{592, 103}";
type = Stem;
},
{
place = "{108, 108}";
type = Stem;
}
);
layerId = "D2FC741B-AB3D-47FE-B7ED-22FDCD907D24";
paths = (
{
closed = 1;
nodes = (
"108 592 LINE",
"216 592 LINE",
"216 695 LINE",
"108 695 LINE"
);
}
);
width = 324;
}
);
note = dotaccent;
unicode = 02D9;
},
{
glyphname = dieresis;
layers = (
{
hints = (
{
horizontal = 1;
place = "{593, 102}";
type = Stem;
},
{
place = "{20, 105}";
type = Stem;
},
{
place = "{200, 105}";
type = Stem;
}
);
layerId = "D2FC741B-AB3D-47FE-B7ED-22FDCD907D24";
paths = (
{
closed = 1;
nodes = (
"20 593 LINE",
"125 593 LINE",
"125 695 LINE",
"20 695 LINE"
);
},
{
closed = 1;
nodes = (
"200 593 LINE",
"305 593 LINE",
"305 695 LINE",
"200 695 LINE"
);
}
);
width = 324;
}
);
note = dieresis;
unicode = 00A8;
},
{
glyphname = ring;
layers = (
{
hints = (
{
horizontal = 1;
place = "{530, 66}";
type = Stem;
},
{
horizontal = 1;
place = "{716, 66}";
type = Stem;
},
{
place = "{37, 65}";
type = Stem;
},
{
place = "{223, 66}";
type = Stem;
}
);
layerId = "D2FC741B-AB3D-47FE-B7ED-22FDCD907D24";
paths = (
{
closed = 1;
nodes = (
"102 690 OFFCURVE",
"130 716 OFFCURVE",
"164 716 CURVE SMOOTH",
"197 716 OFFCURVE",
"223 690 OFFCURVE",
"223 657 CURVE SMOOTH",
"223 623 OFFCURVE",
"197 596 OFFCURVE",
"164 596 CURVE SMOOTH",
"130 596 OFFCURVE",
"102 623 OFFCURVE",
"102 657 CURVE SMOOTH"
);
},
{
closed = 1;
nodes = (
"37 586 OFFCURVE",
"92 530 OFFCURVE",
"164 530 CURVE SMOOTH",
"233 530 OFFCURVE",
"289 586 OFFCURVE",
"289 657 CURVE SMOOTH",
"289 726 OFFCURVE",
"233 782 OFFCURVE",
"164 782 CURVE SMOOTH",
"92 782 OFFCURVE",
"37 726 OFFCURVE",
"37 657 CURVE SMOOTH"
);
}
);
width = 324;
}
);
note = ring;
unicode = 02DA;
},
{
glyphname = cedilla;
layers = (
{
hints = (
{
horizontal = 1;
place = "{-243, 72}";
type = Stem;
},
{
horizontal = 1;
place = "{-94, 94}";
type = Stem;
},
{
place = "{189, 83}";
type = Stem;
}
);
layerId = "D2FC741B-AB3D-47FE-B7ED-22FDCD907D24";
paths = (
{
closed = 1;
nodes = (
"133 0 LINE",
"95 -94 LINE",
"160 -94 OFFCURVE",
"189 -110 OFFCURVE",
"189 -137 CURVE SMOOTH",
"189 -161 OFFCURVE",
"169 -171 OFFCURVE",
"137 -171 CURVE SMOOTH",
"115 -171 OFFCURVE",
"80 -165 OFFCURVE",
"66 -159 CURVE",
"42 -226 LINE",
"69 -235 OFFCURVE",
"111 -243 OFFCURVE",
"148 -243 CURVE SMOOTH",
"231 -243 OFFCURVE",
"272 -198 OFFCURVE",
"272 -136 CURVE SMOOTH",
"272 -89 OFFCURVE",
"240 -48 OFFCURVE",
"186 -39 CURVE",
"202 0 LINE"
);
}
);
width = 324;
}
);
note = cedilla;
unicode = 00B8;
},
{
glyphname = hungarumlaut;
layers = (
{
hints = (
{
horizontal = 1;
place = "{549, 21}";
target = up;
type = BottomGhost;
},
{
horizontal = 1;
place = "{754, -20}";
target = down;
type = TopGhost;
}
);
layerId = "D2FC741B-AB3D-47FE-B7ED-22FDCD907D24";
paths = (
{
closed = 1;
nodes = (
"112 754 LINE",
"16 590 LINE",
"80 549 LINE",
"193 702 LINE"
);
},
{
closed = 1;
nodes = (
"283 754 LINE",
"187 590 LINE",
"251 549 LINE",
"364 702 LINE"
);
}
);
width = 324;
}
);
note = hungarumlaut;
unicode = 02DD;
},
{
glyphname = ogonek;
layers = (
{
hints = (
{
horizontal = 1;
place = "{-222, 83}";
type = Stem;
},
{
horizontal = 1;
place = "{0, -20}";
target = down;
type = TopGhost;
},
{
place = "{66, 89}";
type = Stem;
}
);
layerId = "D2FC741B-AB3D-47FE-B7ED-22FDCD907D24";
paths = (
{
closed = 1;
nodes = (
"242 -135 LINE",
"229 -138 OFFCURVE",
"215 -139 OFFCURVE",
"203 -139 CURVE SMOOTH",
"176 -139 OFFCURVE",
"155 -125 OFFCURVE",
"155 -93 CURVE SMOOTH",
"155 -66 OFFCURVE",
"170 -34 OFFCURVE",
"210 0 CURVE",
"139 0 LINE",
"93 -25 OFFCURVE",
"66 -71 OFFCURVE",
"66 -113 CURVE SMOOTH",
"66 -172 OFFCURVE",
"100 -222 OFFCURVE",
"184 -222 CURVE SMOOTH",
"204 -222 OFFCURVE",
"227 -219 OFFCURVE",
"242 -215 CURVE"
);
}
);
width = 324;
}
);
note = ogonek;
unicode = 02DB;
},
{
glyphname = caron;
layers = (
{
hints = (
{
horizontal = 1;
place = "{554, 21}";
target = up;
type = BottomGhost;
},
{
horizontal = 1;
place = "{740, -20}";
target = down;
type = TopGhost;
}
);
layerId = "D2FC741B-AB3D-47FE-B7ED-22FDCD907D24";
paths = (
{
closed = 1;
nodes = (
"162 554 LINE",
"316 681 LINE",
"271 740 LINE",
"162 661 LINE",
"53 740 LINE",
"8 681 LINE"
);
}
);
width = 324;
}
);
note = caron;
unicode = 02C7;
},
{
glyphname = emdash;
layers = (
{
hints = (
{
horizontal = 1;
place = "{217, 94}";
type = Stem;
}
);
layerId = "D2FC741B-AB3D-47FE-B7ED-22FDCD907D24";
paths = (
{
closed = 1;
nodes = (
"1030 217 LINE",
"1030 311 LINE",
"76 311 LINE",
"76 217 LINE"
);
}
);
width = 1106;
}
);
leftKerningGroup = hyphen;
note = emdash;
rightKerningGroup = hyphen;
unicode = 2014;
},
{
glyphname = AE;
layers = (
{
hints = (
{
horizontal = 1;
place = "{0, 104}";
type = Stem;
},
{
horizontal = 1;
place = "{167, 90}";
type = Stem;
},
{
horizontal = 1;
place = "{302, 101}";
type = Stem;
},
{
horizontal = 1;
place = "{578, 104}";
type = Stem;
},
{
place = "{444, 117}";
type = Stem;
}
);
layerId = "D2FC741B-AB3D-47FE-B7ED-22FDCD907D24";
paths = (
{
closed = 1;
nodes = (
"822 682 LINE",
"367 682 LINE",
"-6 0 LINE",
"124 0 LINE",
"211 167 LINE",
"444 167 LINE",
"444 0 LINE",
"833 0 LINE",
"833 104 LINE",
"561 104 LINE",
"561 302 LINE",
"812 302 LINE",
"812 403 LINE",
"561 403 LINE",
"561 578 LINE",
"822 578 LINE"
);
},
{
closed = 1;
nodes = (
"426 578 LINE",
"444 578 LINE",
"444 257 LINE",
"256 257 LINE"
);
}
);
width = 893;
}
);
leftKerningGroup = AE;
note = AE;
rightKerningGroup = E;
unicode = 00C6;
},
{
glyphname = ordfeminine;
layers = (
{
hints = (
{
horizontal = 1;
place = "{319, 69}";
type = Stem;
},
{
horizontal = 1;
place = "{592, 112}";
type = Stem;
},
{
place = "{27, 85}";
type = Stem;
},
{
place = "{245, 83}";
type = Stem;
},
{
horizontal = 1;
place = "{637, 67}";
type = Stem;
}
);
layerId = "D2FC741B-AB3D-47FE-B7ED-22FDCD907D24";
paths = (
{
closed = 1;
nodes = (
"360 399 LINE",
"356 398 OFFCURVE",
"352 397 OFFCURVE",
"347 397 CURVE SMOOTH",
"333 397 OFFCURVE",
"328 408 OFFCURVE",
"328 437 CURVE SMOOTH",
"328 561 LINE SMOOTH",
"328 659 OFFCURVE",
"274 704 OFFCURVE",
"188 704 CURVE SMOOTH",
"109 704 OFFCURVE",
"50 661 OFFCURVE",
"40 592 CURVE",
"118 592 LINE",
"124 622 OFFCURVE",
"148 637 OFFCURVE",
"187 637 CURVE SMOOTH",
"227 637 OFFCURVE",
"245 616 OFFCURVE",
"245 571 CURVE SMOOTH",
"245 567 LINE",
"96 554 OFFCURVE",
"27 497 OFFCURVE",
"27 422 CURVE SMOOTH",
"27 362 OFFCURVE",
"68 319 OFFCURVE",
"140 319 CURVE SMOOTH",
"185 319 OFFCURVE",
"228 341 OFFCURVE",
"252 377 CURVE",
"258 341 OFFCURVE",
"288 322 OFFCURVE",
"321 322 CURVE SMOOTH",
"337 322 OFFCURVE",
"352 325 OFFCURVE",
"360 329 CURVE"
);
},
{
closed = 1;
nodes = (
"245 483 LINE SMOOTH",
"245 426 OFFCURVE",
"210 388 OFFCURVE",
"160 388 CURVE SMOOTH",
"129 388 OFFCURVE",
"112 404 OFFCURVE",
"112 429 CURVE SMOOTH",
"112 461 OFFCURVE",
"146 494 OFFCURVE",
"245 504 CURVE"
);
}
);
width = 384;
}
);
note = ordfeminine;
unicode = 00AA;
},
{
glyphname = Lslash;
layers = (
{
hints = (
{
horizontal = 1;
place = "{0, 104}";
type = Stem;
},
{
horizontal = 1;
place = "{682, -20}";
target = down;
type = TopGhost;
},
{
place = "{75, 118}";
type = Stem;
}
);
layerId = "D2FC741B-AB3D-47FE-B7ED-22FDCD907D24";
paths = (
{
closed = 1;
nodes = (
"8 170 LINE",
"75 217 LINE",
"75 0 LINE",
"479 0 LINE",
"479 104 LINE",
"193 104 LINE",
"193 292 LINE",
"320 381 LINE",
"320 483 LINE",
"193 393 LINE",
"193 682 LINE",
"75 682 LINE",
"75 319 LINE",
"8 271 LINE"
);
}
);
width = 489;
}
);
leftKerningGroup = B;
note = Lslash;
rightKerningGroup = L;
unicode = 0141;
},
{
glyphname = Oslash;
layers = (
{
hints = (
{
horizontal = 1;
place = "{-55, 21}";
target = up;
type = BottomGhost;
},
{
horizontal = 1;
place = "{-22, 102}";
type = Stem;
},
{
horizontal = 1;
place = "{602, 102}";
type = Stem;
},
{
horizontal = 1;
place = "{734, -20}";
target = down;
type = TopGhost;
},
{
place = "{35, 117}";
type = Stem;
},
{
place = "{641, 117}";
type = Stem;
}
);
layerId = "D2FC741B-AB3D-47FE-B7ED-22FDCD907D24";
paths = (
{
closed = 1;
nodes = (
"35 258 OFFCURVE",
"62 170 OFFCURVE",
"118 101 CURVE",
"27 2 LINE",
"91 -55 LINE",
"181 42 LINE",
"236 2 OFFCURVE",
"307 -22 OFFCURVE",
"397 -22 CURVE SMOOTH",
"603 -22 OFFCURVE",
"758 142 OFFCURVE",
"758 341 CURVE SMOOTH",
"758 429 OFFCURVE",
"729 514 OFFCURVE",
"674 579 CURVE",
"764 676 LINE",
"701 734 LINE",
"611 638 LINE",
"555 679 OFFCURVE",
"483 704 OFFCURVE",
"398 704 CURVE SMOOTH",
"187 704 OFFCURVE",
"35 536 OFFCURVE",
"35 341 CURVE SMOOTH"
);
},
{
closed = 1;
nodes = (
"152 491 OFFCURVE",
"259 602 OFFCURVE",
"397 602 CURVE SMOOTH",
"451 602 OFFCURVE",
"499 585 OFFCURVE",
"538 557 CURVE",
"198 188 LINE",
"169 230 OFFCURVE",
"152 282 OFFCURVE",
"152 341 CURVE SMOOTH"
);
},
{
closed = 1;
nodes = (
"641 192 OFFCURVE",
"535 80 OFFCURVE",
"396 80 CURVE SMOOTH",
"343 80 OFFCURVE",
"296 96 OFFCURVE",
"257 125 CURVE",
"596 494 LINE",
"624 451 OFFCURVE",
"641 398 OFFCURVE",
"641 341 CURVE SMOOTH"
);
}
);
width = 793;
}
);
leftKerningGroup = C;
note = Oslash;
rightKerningGroup = D;
unicode = 00D8;
},
{
glyphname = OE;
layers = (
{
hints = (
{
horizontal = 1;
place = "{-22, 106}";
type = Stem;
},
{
horizontal = 1;
place = "{302, 101}";
type = Stem;
},
{
horizontal = 1;
place = "{578, 104}";
type = Stem;
},
{
place = "{35, 121}";
type = Stem;
},
{
place = "{633, 103}";
type = Stem;
},
{
horizontal = 1;
place = "{598, 106}";
type = Stem;
},
{
horizontal = 1;
place = "{0, 84}";
type = Stem;
},
{
horizontal = 1;
place = "{0, 104}";
type = Stem;
},
{
horizontal = 1;
place = "{598, 84}";
type = Stem;
}
);
layerId = "D2FC741B-AB3D-47FE-B7ED-22FDCD907D24";
paths = (
{
closed = 1;
nodes = (
"1011 682 LINE",
"626 682 LINE",
"626 590 LINE",
"570 660 OFFCURVE",
"491 704 OFFCURVE",
"389 704 CURVE SMOOTH",
"183 704 OFFCURVE",
"35 536 OFFCURVE",
"35 341 CURVE SMOOTH",
"35 172 OFFCURVE",
"144 -22 OFFCURVE",
"388 -22 CURVE SMOOTH",
"485 -22 OFFCURVE",
"567 23 OFFCURVE",
"626 96 CURVE",
"626 0 LINE",
"1022 0 LINE",
"1022 104 LINE",
"736 104 LINE",
"736 302 LINE",
"1001 302 LINE",
"1001 403 LINE",
"736 403 LINE",
"736 578 LINE",
"1011 578 LINE"
);
},
{
closed = 1;
nodes = (
"156 489 OFFCURVE",
"260 598 OFFCURVE",
"397 598 CURVE SMOOTH",
"538 598 OFFCURVE",
"633 485 OFFCURVE",
"633 341 CURVE SMOOTH",
"633 194 OFFCURVE",
"530 84 OFFCURVE",
"396 84 CURVE SMOOTH",
"259 84 OFFCURVE",
"156 194 OFFCURVE",
"156 341 CURVE SMOOTH"
);
}
);
width = 1082;
}
);
leftKerningGroup = C;
note = OE;
rightKerningGroup = E;
unicode = 0152;
},
{
glyphname = ordmasculine;
layers = (
{
hints = (
{
horizontal = 1;
place = "{321, 81}";
type = Stem;
},
{
horizontal = 1;
place = "{623, 81}";
type = Stem;
},
{
place = "{29, 90}";
type = Stem;
},
{
place = "{329, 90}";
type = Stem;
}
);
layerId = "D2FC741B-AB3D-47FE-B7ED-22FDCD907D24";
paths = (
{
closed = 1;
nodes = (
"29 397 OFFCURVE",
"115 321 OFFCURVE",
"224 321 CURVE SMOOTH",
"338 321 OFFCURVE",
"419 404 OFFCURVE",
"419 513 CURVE SMOOTH",
"419 621 OFFCURVE",
"339 704 OFFCURVE",
"224 704 CURVE SMOOTH",
"116 704 OFFCURVE",
"29 629 OFFCURVE",
"29 513 CURVE SMOOTH"
);
},
{
closed = 1;
nodes = (
"119 585 OFFCURVE",
"166 623 OFFCURVE",
"224 623 CURVE SMOOTH",
"285 623 OFFCURVE",
"329 575 OFFCURVE",
"329 512 CURVE SMOOTH",
"329 448 OFFCURVE",
"285 402 OFFCURVE",
"224 402 CURVE SMOOTH",
"164 402 OFFCURVE",
"119 450 OFFCURVE",
"119 512 CURVE SMOOTH"
);
}
);
width = 448;
}
);
note = ordmasculine;
unicode = 00BA;
},
{
glyphname = ae;
layers = (
{
hints = (
{
horizontal = 1;
place = "{-17, 88}";
type = Stem;
},
{
horizontal = 1;
place = "{216, 77}";
type = Stem;
},
{
horizontal = 1;
place = "{412, 83}";
type = Stem;
},
{
place = "{34, 110}";
type = Stem;
},
{
place = "{358, 104}";
type = Stem;
}
);
layerId = "D2FC741B-AB3D-47FE-B7ED-22FDCD907D24";
paths = (
{
closed = 1;
nodes = (
"513 495 OFFCURVE",
"456 464 OFFCURVE",
"419 417 CURVE",
"395 463 OFFCURVE",
"343 495 OFFCURVE",
"254 495 CURVE SMOOTH",
"122 495 OFFCURVE",
"58 421 OFFCURVE",
"53 349 CURVE",
"157 349 LINE",
"162 385 OFFCURVE",
"193 412 OFFCURVE",
"258 412 CURVE SMOOTH",
"320 412 OFFCURVE",
"358 375 OFFCURVE",
"358 318 CURVE SMOOTH",
"358 293 LINE",
"283 293 LINE SMOOTH",
"126 293 OFFCURVE",
"34 242 OFFCURVE",
"34 134 CURVE SMOOTH",
"34 55 OFFCURVE",
"81 -17 OFFCURVE",
"206 -17 CURVE SMOOTH",
"302 -17 OFFCURVE",
"360 32 OFFCURVE",
"399 88 CURVE",
"436 21 OFFCURVE",
"500 -17 OFFCURVE",
"595 -17 CURVE SMOOTH",
"703 -17 OFFCURVE",
"771 41 OFFCURVE",
"806 125 CURVE",
"691 125 LINE",
"672 91 OFFCURVE",
"643 71 OFFCURVE",
"594 71 CURVE SMOOTH",
"512 71 OFFCURVE",
"463 136 OFFCURVE",
"462 216 CURVE",
"815 216 LINE",
"816 221 OFFCURVE",
"817 232 OFFCURVE",
"817 244 CURVE SMOOTH",
"817 362 OFFCURVE",
"751 495 OFFCURVE",
"586 495 CURVE SMOOTH"
);
},
{
closed = 1;
nodes = (
"658 411 OFFCURVE",
"699 358 OFFCURVE",
"705 293 CURVE",
"463 293 LINE",
"469 355 OFFCURVE",
"510 411 OFFCURVE",
"585 411 CURVE SMOOTH"
);
},
{
closed = 1;
nodes = (
"358 216 LINE",
"353 140 OFFCURVE",
"304 67 OFFCURVE",
"218 67 CURVE SMOOTH",
"178 67 OFFCURVE",
"144 87 OFFCURVE",
"144 136 CURVE SMOOTH",
"144 184 OFFCURVE",
"178 216 OFFCURVE",
"283 216 CURVE SMOOTH"
);
}
);
width = 852;
}
);
leftKerningGroup = ae;
note = ae;
rightKerningGroup = e;
unicode = 00E6;
},
{
glyphname = dotlessi;
layers = (
{
hints = (
{
horizontal = 1;
place = "{0, 21}";
target = up;
type = BottomGhost;
},
{
horizontal = 1;
place = "{479, -20}";
target = down;
type = TopGhost;
},
{
place = "{65, 112}";
type = Stem;
}
);
layerId = "D2FC741B-AB3D-47FE-B7ED-22FDCD907D24";
paths = (
{
closed = 1;
nodes = (
"65 0 LINE",
"177 0 LINE",
"177 479 LINE",
"65 479 LINE"
);
}
);
width = 242;
}
);
leftKerningGroup = m;
note = dotlessi;
rightKerningGroup = i;
unicode = 0131;
},
{
glyphname = lslash;
layers = (
{
hints = (
{
horizontal = 1;
place = "{0, 21}";
target = up;
type = BottomGhost;
},
{
horizontal = 1;
place = "{720, -20}";
target = down;
type = TopGhost;
},
{
place = "{76, 112}";
type = Stem;
}
);
layerId = "D2FC741B-AB3D-47FE-B7ED-22FDCD907D24";
paths = (
{
closed = 1;
nodes = (
"3 229 LINE",
"76 285 LINE",
"76 0 LINE",
"188 0 LINE",
"188 365 LINE",
"261 422 LINE",
"261 523 LINE",
"188 466 LINE",
"188 720 LINE",
"76 720 LINE",
"76 386 LINE",
"3 330 LINE"
);
}
);
width = 264;
}
);
leftKerningGroup = b;
note = lslash;
rightKerningGroup = d;
unicode = 0142;
},
{
glyphname = oslash;
layers = (
{
hints = (
{
horizontal = 1;
place = "{-48, 21}";
target = up;
type = BottomGhost;
},
{
horizontal = 1;
place = "{-17, 96}";
type = Stem;
},
{
horizontal = 1;
place = "{399, 96}";
type = Stem;
},
{
horizontal = 1;
place = "{528, -20}";
target = down;
type = TopGhost;
},
{
place = "{32, 110}";
type = Stem;
},
{
place = "{435, 109}";
type = Stem;
}
);
layerId = "D2FC741B-AB3D-47FE-B7ED-22FDCD907D24";
paths = (
{
closed = 1;
nodes = (
"32 176 OFFCURVE",
"54 118 OFFCURVE",
"91 73 CURVE",
"29 3 LINE",
"89 -48 LINE",
"150 22 LINE",
"189 -2 OFFCURVE",
"236 -17 OFFCURVE",
"288 -17 CURVE SMOOTH",
"437 -17 OFFCURVE",
"544 99 OFFCURVE",
"544 240 CURVE SMOOTH",
"544 304 OFFCURVE",
"523 362 OFFCURVE",
"486 406 CURVE",
"548 476 LINE",
"490 528 LINE",
"427 457 LINE",
"388 481 OFFCURVE",
"341 495 OFFCURVE",
"288 495 CURVE SMOOTH",
"143 495 OFFCURVE",
"32 388 OFFCURVE",
"32 240 CURVE SMOOTH"
);
},
{
closed = 1;
nodes = (
"142 331 OFFCURVE",
"200 399 OFFCURVE",
"288 399 CURVE SMOOTH",
"318 399 OFFCURVE",
"344 391 OFFCURVE",
"366 377 CURVE",
"167 151 LINE",
"151 176 OFFCURVE",
"142 206 OFFCURVE",
"142 240 CURVE SMOOTH"
);
},
{
closed = 1;
nodes = (
"435 149 OFFCURVE",
"375 79 OFFCURVE",
"288 79 CURVE SMOOTH",
"261 79 OFFCURVE",
"234 87 OFFCURVE",
"212 102 CURVE",
"411 328 LINE",
"426 302 OFFCURVE",
"435 272 OFFCURVE",
"435 240 CURVE SMOOTH"
);
}
);
width = 577;
}
);
leftKerningGroup = a;
note = oslash;
rightKerningGroup = b;
unicode = 00F8;
},
{
glyphname = oe;
layers = (
{
hints = (
{
horizontal = 1;
place = "{-17, 88}";
type = Stem;
},
{
horizontal = 1;
place = "{212, 79}";
type = Stem;
},
{
horizontal = 1;
place = "{396, 99}";
type = Stem;
},
{
place = "{32, 114}";
type = Stem;
},
{
place = "{418, 109}";
type = Stem;
},
{
horizontal = 1;
place = "{-17, 100}";
type = Stem;
},
{
horizontal = 1;
place = "{411, 84}";
type = Stem;
}
);
layerId = "D2FC741B-AB3D-47FE-B7ED-22FDCD907D24";
paths = (
{
closed = 1;
nodes = (
"32 95 OFFCURVE",
"138 -17 OFFCURVE",
"278 -17 CURVE SMOOTH",
"362 -17 OFFCURVE",
"430 23 OFFCURVE",
"471 85 CURVE",
"509 22 OFFCURVE",
"573 -17 OFFCURVE",
"659 -17 CURVE SMOOTH",
"776 -17 OFFCURVE",
"844 52 OFFCURVE",
"875 125 CURVE",
"760 125 LINE",
"736 91 OFFCURVE",
"707 71 OFFCURVE",
"660 71 CURVE SMOOTH",
"584 71 OFFCURVE",
"527 137 OFFCURVE",
"527 212 CURVE",
"884 212 LINE",
"885 222 OFFCURVE",
"886 234 OFFCURVE",
"886 244 CURVE SMOOTH",
"886 370 OFFCURVE",
"807 494 OFFCURVE",
"655 495 CURVE SMOOTH",
"570 495 OFFCURVE",
"508 455 OFFCURVE",
"471 395 CURVE",
"430 456 OFFCURVE",
"363 495 OFFCURVE",
"278 495 CURVE SMOOTH",
"139 495 OFFCURVE",
"32 388 OFFCURVE",
"32 240 CURVE SMOOTH"
);
},
{
closed = 1;
nodes = (
"146 329 OFFCURVE",
"200 396 OFFCURVE",
"282 396 CURVE SMOOTH",
"366 396 OFFCURVE",
"418 325 OFFCURVE",
"418 240 CURVE SMOOTH",
"418 151 OFFCURVE",
"363 83 OFFCURVE",
"282 83 CURVE SMOOTH",
"207 83 OFFCURVE",
"146 148 OFFCURVE",
"146 240 CURVE SMOOTH"
);
},
{
closed = 1;
nodes = (
"721 411 OFFCURVE",
"768 355 OFFCURVE",
"774 291 CURVE",
"528 291 LINE",
"535 353 OFFCURVE",
"580 411 OFFCURVE",
"652 411 CURVE SMOOTH"
);
}
);
width = 920;
}
);
leftKerningGroup = a;
note = oe;
rightKerningGroup = e;
unicode = 0153;
},
{
glyphname = germandbls;
layers = (
{
hints = (
{
horizontal = 1;
place = "{0, 21}";
target = up;
type = BottomGhost;
},
{
horizontal = 1;
place = "{635, 90}";
type = Stem;
},
{
place = "{65, 112}";
type = Stem;
},
{
place = "{247, 106}";
type = Stem;
},
{
place = "{387, 110}";
type = Stem;
},
{
horizontal = 1;
place = "{-17, 82}";
type = Stem;
},
{
place = "{477, 107}";
type = Stem;
}
);
layerId = "D2FC741B-AB3D-47FE-B7ED-22FDCD907D24";
paths = (
{
closed = 1;
nodes = (
"497 653 OFFCURVE",
"417 725 OFFCURVE",
"291 725 CURVE SMOOTH",
"155 725 OFFCURVE",
"65 655 OFFCURVE",
"65 504 CURVE SMOOTH",
"65 0 LINE",
"177 0 LINE",
"177 501 LINE SMOOTH",
"177 590 OFFCURVE",
"212 635 OFFCURVE",
"289 635 CURVE SMOOTH",
"368 635 OFFCURVE",
"387 587 OFFCURVE",
"387 557 CURVE SMOOTH",
"387 524 OFFCURVE",
"373 506 OFFCURVE",
"323 479 CURVE SMOOTH",
"270 451 OFFCURVE",
"247 411 OFFCURVE",
"247 363 CURVE SMOOTH",
"247 301 OFFCURVE",
"278 257 OFFCURVE",
"380 216 CURVE SMOOTH",
"454 186 OFFCURVE",
"477 164 OFFCURVE",
"477 125 CURVE SMOOTH",
"477 91 OFFCURVE",
"454 65 OFFCURVE",
"410 65 CURVE SMOOTH",
"361 65 OFFCURVE",
"338 91 OFFCURVE",
"332 135 CURVE",
"228 135 LINE",
"236 49 OFFCURVE",
"289 -17 OFFCURVE",
"406 -17 CURVE SMOOTH",
"526 -17 OFFCURVE",
"584 52 OFFCURVE",
"584 134 CURVE SMOOTH",
"584 202 OFFCURVE",
"554 252 OFFCURVE",
"444 296 CURVE SMOOTH",
"367 327 OFFCURVE",
"353 344 OFFCURVE",
"353 370 CURVE SMOOTH",
"353 390 OFFCURVE",
"367 407 OFFCURVE",
"415 432 CURVE SMOOTH",
"473 462 OFFCURVE",
"497 503 OFFCURVE",
"497 560 CURVE SMOOTH"
);
}
);
width = 620;
}
);
leftKerningGroup = b;
note = germandbls;
unicode = 00DF;
},
{
glyphname = logicalnot;
layers = (
{
hints = (
{
horizontal = 1;
place = "{104, 21}";
target = up;
type = BottomGhost;
},
{
horizontal = 1;
place = "{295, 90}";
type = Stem;
},
{
place = "{503, 92}";
type = Stem;
}
);
layerId = "D2FC741B-AB3D-47FE-B7ED-22FDCD907D24";
paths = (
{
closed = 1;
nodes = (
"595 104 LINE",
"595 385 LINE",
"76 385 LINE",
"76 295 LINE",
"503 295 LINE",
"503 104 LINE"
);
}
);
width = 672;
}
);
note = logicalnot;
unicode = 00AC;
},
{
glyphname = mu;
layers = (
{
hints = (
{
horizontal = 1;
place = "{-213, 21}";
target = up;
type = BottomGhost;
},
{
horizontal = 1;
place = "{-16, 99}";
type = Stem;
},
{
horizontal = 1;
place = "{479, -20}";
target = down;
type = TopGhost;
},
{
place = "{59, 112}";
type = Stem;
},
{
place = "{380, 113}";
type = Stem;
},
{
horizontal = 1;
place = "{-12, 21}";
target = up;
type = BottomGhost;
}
);
layerId = "D2FC741B-AB3D-47FE-B7ED-22FDCD907D24";
paths = (
{
closed = 1;
nodes = (
"59 -213 LINE",
"171 -213 LINE",
"171 -112 LINE SMOOTH",
"171 -71 OFFCURVE",
"169 -26 OFFCURVE",
"160 10 CURVE",
"163 12 LINE",
"187 -6 OFFCURVE",
"223 -16 OFFCURVE",
"253 -16 CURVE SMOOTH",
"305 -16 OFFCURVE",
"353 8 OFFCURVE",
"387 65 CURVE",
"389 65 LINE",
"400 13 OFFCURVE",
"430 -12 OFFCURVE",
"497 -12 CURVE SMOOTH",
"514 -12 OFFCURVE",
"535 -9 OFFCURVE",
"549 -4 CURVE",
"549 94 LINE",
"543 93 OFFCURVE",
"534 91 OFFCURVE",
"527 91 CURVE SMOOTH",
"501 91 OFFCURVE",
"493 104 OFFCURVE",
"493 141 CURVE SMOOTH",
"493 479 LINE",
"380 479 LINE",
"380 228 LINE SMOOTH",
"380 133 OFFCURVE",
"338 83 OFFCURVE",
"268 83 CURVE SMOOTH",
"204 83 OFFCURVE",
"171 130 OFFCURVE",
"171 209 CURVE SMOOTH",
"171 479 LINE",
"59 479 LINE"
);
}
);
width = 570;
}
);
note = mu;
unicode = 00B5;
},
{
glyphname = trademark;
layers = (
{
hints = (
{
horizontal = 1;
place = "{459, 21}";
target = up;
type = BottomGhost;
},
{
horizontal = 1;
place = "{625, 57}";
type = Stem;
},
{
place = "{109, 63}";
type = Stem;
},
{
place = "{460, 58}";
type = Stem;
}
);
layerId = "D2FC741B-AB3D-47FE-B7ED-22FDCD907D24";
paths = (
{
closed = 1;
nodes = (
"510 682 LINE",
"425 682 LINE",
"396 590 LINE SMOOTH",
"390 572 OFFCURVE",
"388 564 OFFCURVE",
"385 554 CURVE",
"384 554 LINE",
"383 561 OFFCURVE",
"381 568 OFFCURVE",
"374 589 CURVE SMOOTH",
"344 682 LINE",
"258 682 LINE",
"239 459 LINE",
"303 459 LINE",
"310 566 LINE SMOOTH",
"312 589 OFFCURVE",
"312 601 OFFCURVE",
"312 612 CURVE",
"314 612 LINE",
"316 600 OFFCURVE",
"319 586 OFFCURVE",
"327 562 CURVE SMOOTH",
"359 459 LINE",
"407 459 LINE",
"443 569 LINE SMOOTH",
"449 588 OFFCURVE",
"450 601 OFFCURVE",
"453 612 CURVE",
"456 612 LINE",
"456 601 OFFCURVE",
"456 591 OFFCURVE",
"457 569 CURVE SMOOTH",
"464 459 LINE",
"527 459 LINE"
);
},
{
closed = 1;
nodes = (
"52 625 LINE",
"109 625 LINE",
"109 459 LINE",
"172 459 LINE",
"172 625 LINE",
"230 625 LINE",
"230 682 LINE",
"52 682 LINE"
);
}
);
width = 604;
}
);
leftKerningGroup = trademark;
note = trademark;
unicode = 2122;
},
{
glyphname = Eth;
layers = (
{
hints = (
{
horizontal = 1;
place = "{0, 103}";
type = Stem;
},
{
horizontal = 1;
place = "{305, 94}";
type = Stem;
},
{
horizontal = 1;
place = "{579, 103}";
type = Stem;
},
{
place = "{95, 118}";
type = Stem;
},
{
place = "{576, 121}";
type = Stem;
}
);
layerId = "D2FC741B-AB3D-47FE-B7ED-22FDCD907D24";
paths = (
{
closed = 1;
nodes = (
"15 305 LINE",
"95 305 LINE",
"95 0 LINE",
"321 0 LINE SMOOTH",
"561 0 OFFCURVE",
"697 156 OFFCURVE",
"697 341 CURVE SMOOTH",
"697 527 OFFCURVE",
"569 682 OFFCURVE",
"323 682 CURVE SMOOTH",
"95 682 LINE",
"95 399 LINE",
"15 399 LINE"
);
},
{
closed = 1;
nodes = (
"213 103 LINE",
"213 305 LINE",
"382 305 LINE",
"382 399 LINE",
"213 399 LINE",
"213 579 LINE",
"321 579 LINE SMOOTH",
"487 579 OFFCURVE",
"576 480 OFFCURVE",
"576 341 CURVE SMOOTH",
"576 212 OFFCURVE",
"494 103 OFFCURVE",
"321 103 CURVE SMOOTH"
);
}
);
width = 732;
}
);
leftKerningGroup = B;
note = Eth;
rightKerningGroup = D;
unicode = 00D0;
},
{
glyphname = onehalf;
layers = (
{
hints = (
{
horizontal = 1;
place = "{0, 79}";
type = Stem;
},
{
horizontal = 1;
place = "{370, 77}";
type = Stem;
},
{
horizontal = 1;
place = "{607, 77}";
type = Stem;
},
{
place = "{163, 92}";
type = Stem;
},
{
place = "{827, 96}";
type = Stem;
},
{
horizontal = 1;
place = "{682, -20}";
target = down;
type = TopGhost;
}
);
layerId = "D2FC741B-AB3D-47FE-B7ED-22FDCD907D24";
paths = (
{
closed = 1;
nodes = (
"163 250 LINE",
"255 250 LINE",
"255 684 LINE",
"95 684 LINE",
"95 607 LINE",
"163 607 LINE"
);
},
{
closed = 1;
nodes = (
"659 682 LINE",
"197 0 LINE",
"286 0 LINE",
"747 682 LINE"
);
},
{
closed = 1;
nodes = (
"625 0 LINE",
"929 0 LINE",
"929 79 LINE",
"751 79 LINE",
"826 156 LINE SMOOTH",
"892 225 OFFCURVE",
"923 265 OFFCURVE",
"923 320 CURVE SMOOTH",
"923 392 OFFCURVE",
"865 447 OFFCURVE",
"775 447 CURVE SMOOTH",
"672 447 OFFCURVE",
"624 384 OFFCURVE",
"621 306 CURVE",
"712 306 LINE",
"714 345 OFFCURVE",
"732 370 OFFCURVE",
"771 370 CURVE SMOOTH",
"805 370 OFFCURVE",
"827 349 OFFCURVE",
"827 317 CURVE SMOOTH",
"827 279 OFFCURVE",
"797 246 OFFCURVE",
"763 209 CURVE SMOOTH",
"625 62 LINE"
);
}
);
width = 971;
}
);
note = onehalf;
unicode = 00BD;
},
{
glyphname = plusminus;
layers = (
{
hints = (
{
horizontal = 1;
place = "{0, 90}";
type = Stem;
},
{
horizontal = 1;
place = "{322, 91}";
type = Stem;
},
{
horizontal = 1;
place = "{591, -20}";
target = down;
type = TopGhost;
},
{
place = "{290, 91}";
type = Stem;
}
);
layerId = "D2FC741B-AB3D-47FE-B7ED-22FDCD907D24";
paths = (
{
closed = 1;
nodes = (
"594 0 LINE",
"594 90 LINE",
"78 90 LINE",
"78 0 LINE"
);
},
{
closed = 1;
nodes = (
"594 322 LINE",
"594 413 LINE",
"381 413 LINE",
"381 591 LINE",
"290 591 LINE",
"290 413 LINE",
"78 413 LINE",
"78 322 LINE",
"290 322 LINE",
"290 145 LINE",
"381 145 LINE",
"381 322 LINE"
);
}
);
width = 672;
}
);
note = plusminus;
unicode = 00B1;
},
{
glyphname = Thorn;
layers = (
{
hints = (
{
horizontal = 1;
place = "{0, 21}";
target = up;
type = BottomGhost;
},
{
horizontal = 1;
place = "{147, 99}";
type = Stem;
},
{
horizontal = 1;
place = "{459, 99}";
type = Stem;
},
{
horizontal = 1;
place = "{682, -20}";
target = down;
type = TopGhost;
},
{
place = "{70, 118}";
type = Stem;
},
{
place = "{396, 120}";
type = Stem;
}
);
layerId = "D2FC741B-AB3D-47FE-B7ED-22FDCD907D24";
paths = (
{
closed = 1;
nodes = (
"70 0 LINE",
"188 0 LINE",
"188 147 LINE",
"268 147 LINE SMOOTH",
"434 147 OFFCURVE",
"516 224 OFFCURVE",
"516 357 CURVE SMOOTH",
"516 491 OFFCURVE",
"415 558 OFFCURVE",
"274 558 CURVE SMOOTH",
"188 558 LINE",
"188 682 LINE",
"70 682 LINE"
);
},
{
closed = 1;
nodes = (
"396 291 OFFCURVE",
"362 246 OFFCURVE",
"272 246 CURVE SMOOTH",
"188 246 LINE",
"188 459 LINE",
"275 459 LINE SMOOTH",
"355 459 OFFCURVE",
"396 418 OFFCURVE",
"396 355 CURVE SMOOTH"
);
}
);
width = 549;
}
);
leftKerningGroup = B;
note = Thorn;
rightKerningGroup = P;
unicode = 00DE;
},
{
glyphname = onequarter;
layers = (
{
hints = (
{
horizontal = 1;
place = "{0, 21}";
target = up;
type = BottomGhost;
},
{
horizontal = 1;
place = "{75, 70}";
type = Stem;
},
{
horizontal = 1;
place = "{607, 77}";
type = Stem;
},
{
place = "{163, 92}";
type = Stem;
},
{
place = "{748, 90}";
type = Stem;
},
{
horizontal = 1;
place = "{682, -20}";
target = down;
type = TopGhost;
}
);
layerId = "D2FC741B-AB3D-47FE-B7ED-22FDCD907D24";
paths = (
{
closed = 1;
nodes = (
"163 250 LINE",
"255 250 LINE",
"255 684 LINE",
"95 684 LINE",
"95 607 LINE",
"163 607 LINE"
);
},
{
closed = 1;
nodes = (
"659 682 LINE",
"197 0 LINE",
"286 0 LINE",
"747 682 LINE"
);
},
{
closed = 1;
nodes = (
"901 75 LINE",
"901 145 LINE",
"838 145 LINE",
"838 434 LINE",
"750 434 LINE",
"548 142 LINE",
"548 75 LINE",
"748 75 LINE",
"748 0 LINE",
"838 0 LINE",
"838 75 LINE"
);
},
{
closed = 1;
nodes = (
"713 268 LINE SMOOTH",
"723 283 OFFCURVE",
"739 308 OFFCURVE",
"747 324 CURVE",
"750 324 LINE",
"749 306 OFFCURVE",
"748 301 OFFCURVE",
"748 276 CURVE SMOOTH",
"748 145 LINE",
"627 145 LINE"
);
}
);
width = 929;
}
);
note = onequarter;
unicode = 00BC;
},
{
glyphname = divide;
layers = (
{
hints = (
{
horizontal = 1;
place = "{7, 21}";
target = up;
type = BottomGhost;
},
{
horizontal = 1;
place = "{219, 90}";
type = Stem;
},
{
horizontal = 1;
place = "{520, -20}";
target = down;
type = TopGhost;
},
{
place = "{271, 130}";
type = Stem;
}
);
layerId = "D2FC741B-AB3D-47FE-B7ED-22FDCD907D24";
paths = (
{
closed = 1;
nodes = (
"594 219 LINE",
"594 309 LINE",
"78 309 LINE",
"78 219 LINE"
);
},
{
closed = 1;
nodes = (
"401 492 OFFCURVE",
"375 520 OFFCURVE",
"336 520 CURVE SMOOTH",
"299 520 OFFCURVE",
"271 490 OFFCURVE",
"271 454 CURVE SMOOTH",
"271 421 OFFCURVE",
"301 391 OFFCURVE",
"336 391 CURVE SMOOTH",
"370 391 OFFCURVE",
"401 416 OFFCURVE",
"401 455 CURVE SMOOTH"
);
},
{
closed = 1;
nodes = (
"401 109 OFFCURVE",
"375 137 OFFCURVE",
"336 137 CURVE SMOOTH",
"299 137 OFFCURVE",
"271 107 OFFCURVE",
"271 73 CURVE SMOOTH",
"271 38 OFFCURVE",
"301 7 OFFCURVE",
"337 7 CURVE SMOOTH",
"370 7 OFFCURVE",
"401 34 OFFCURVE",
"401 74 CURVE SMOOTH"
);
}
);
width = 672;
}
);
note = divide;
unicode = 00F7;
},
{
glyphname = brokenbar;
layers = (
{
hints = (
{
horizontal = 1;
place = "{-110, 21}";
target = up;
type = BottomGhost;
},
{
horizontal = 1;
place = "{690, -20}";
target = down;
type = TopGhost;
},
{
place = "{143, 89}";
type = Stem;
}
);
layerId = "D2FC741B-AB3D-47FE-B7ED-22FDCD907D24";
paths = (
{
closed = 1;
nodes = (
"232 390 LINE",
"232 690 LINE",
"143 690 LINE",
"143 390 LINE"
);
},
{
closed = 1;
nodes = (
"232 -110 LINE",
"232 190 LINE",
"143 190 LINE",
"143 -110 LINE"
);
}
);
width = 376;
}
);
note = brokenbar;
unicode = 00A6;
},
{
glyphname = degree;
layers = (
{
hints = (
{
horizontal = 1;
place = "{432, 57}";
type = Stem;
},
{
horizontal = 1;
place = "{639, 57}";
type = Stem;
},
{
place = "{52, 58}";
type = Stem;
},
{
place = "{259, 58}";
type = Stem;
}
);
layerId = "D2FC741B-AB3D-47FE-B7ED-22FDCD907D24";
paths = (
{
closed = 1;
nodes = (
"52 491 OFFCURVE",
"111 432 OFFCURVE",
"185 432 CURVE SMOOTH",
"258 432 OFFCURVE",
"317 491 OFFCURVE",
"317 564 CURVE SMOOTH",
"317 637 OFFCURVE",
"258 696 OFFCURVE",
"185 696 CURVE SMOOTH",
"111 696 OFFCURVE",
"52 637 OFFCURVE",
"52 564 CURVE SMOOTH"
);
},
{
closed = 1;
nodes = (
"110 605 OFFCURVE",
"143 639 OFFCURVE",
"185 639 CURVE SMOOTH",
"226 639 OFFCURVE",
"259 605 OFFCURVE",
"259 563 CURVE SMOOTH",
"259 521 OFFCURVE",
"226 489 OFFCURVE",
"185 489 CURVE SMOOTH",
"143 489 OFFCURVE",
"110 521 OFFCURVE",
"110 563 CURVE SMOOTH"
);
}
);
width = 369;
}
);
note = degree;
unicode = 00B0;
},
{
glyphname = thorn;
layers = (
{
hints = (
{
horizontal = 1;
place = "{-235, 21}";
target = up;
type = BottomGhost;
},
{
horizontal = 1;
place = "{-17, 97}";
type = Stem;
},
{
horizontal = 1;
place = "{396, 98}";
type = Stem;
},
{
horizontal = 1;
place = "{720, -20}";
target = down;
type = TopGhost;
},
{
place = "{65, 110}";
type = Stem;
},
{
place = "{457, 114}";
type = Stem;
}
);
layerId = "D2FC741B-AB3D-47FE-B7ED-22FDCD907D24";
paths = (
{
closed = 1;
nodes = (
"65 -235 LINE",
"175 -235 LINE",
"175 58 LINE",
"178 58 LINE",
"210 18 OFFCURVE",
"262 -17 OFFCURVE",
"336 -17 CURVE SMOOTH",
"466 -17 OFFCURVE",
"571 88 OFFCURVE",
"571 238 CURVE SMOOTH",
"571 392 OFFCURVE",
"465 494 OFFCURVE",
"343 494 CURVE SMOOTH",
"256 494 OFFCURVE",
"209 454 OFFCURVE",
"178 418 CURVE",
"175 418 LINE",
"175 720 LINE",
"65 720 LINE"
);
},
{
closed = 1;
nodes = (
"457 160 OFFCURVE",
"409 80 OFFCURVE",
"312 80 CURVE SMOOTH",
"236 80 OFFCURVE",
"170 144 OFFCURVE",
"170 237 CURVE SMOOTH",
"170 333 OFFCURVE",
"233 396 OFFCURVE",
"311 396 CURVE SMOOTH",
"409 396 OFFCURVE",
"457 319 OFFCURVE",
"457 239 CURVE SMOOTH"
);
}
);
width = 604;
}
);
leftKerningGroup = b;
note = thorn;
rightKerningGroup = b;
unicode = 00FE;
},
{
glyphname = threequarters;
layers = (
{
hints = (
{
horizontal = 1;
place = "{0, 21}";
target = up;
type = BottomGhost;
},
{
horizontal = 1;
place = "{75, 70}";
type = Stem;
},
{
horizontal = 1;
place = "{236, 73}";
type = Stem;
},
{
horizontal = 1;
place = "{448, 69}";
type = Stem;
},
{
horizontal = 1;
place = "{624, 73}";
type = Stem;
},
{
place = "{252, 94}";
type = Stem;
},
{
place = "{774, 90}";
type = Stem;
},
{
place = "{267, 94}";
type = Stem;
},
{
horizontal = 1;
place = "{682, -20}";
target = down;
type = TopGhost;
}
);
layerId = "D2FC741B-AB3D-47FE-B7ED-22FDCD907D24";
paths = (
{
closed = 1;
nodes = (
"139 569 LINE",
"141 597 OFFCURVE",
"157 624 OFFCURVE",
"196 624 CURVE SMOOTH",
"234 624 OFFCURVE",
"252 601 OFFCURVE",
"252 572 CURVE SMOOTH",
"252 539 OFFCURVE",
"227 517 OFFCURVE",
"184 517 CURVE SMOOTH",
"156 517 LINE",
"156 448 LINE",
"186 448 LINE SMOOTH",
"243 448 OFFCURVE",
"267 417 OFFCURVE",
"267 381 CURVE SMOOTH",
"267 339 OFFCURVE",
"241 309 OFFCURVE",
"198 309 CURVE SMOOTH",
"155 309 OFFCURVE",
"131 332 OFFCURVE",
"126 375 CURVE",
"36 375 LINE",
"43 290 OFFCURVE",
"94 236 OFFCURVE",
"197 236 CURVE SMOOTH",
"307 236 OFFCURVE",
"361 303 OFFCURVE",
"361 375 CURVE SMOOTH",
"361 433 OFFCURVE",
"326 474 OFFCURVE",
"271 487 CURVE",
"271 489 LINE",
"313 500 OFFCURVE",
"346 536 OFFCURVE",
"346 584 CURVE SMOOTH",
"346 650 OFFCURVE",
"294 697 OFFCURVE",
"199 697 CURVE SMOOTH",
"106 697 OFFCURVE",
"52 643 OFFCURVE",
"50 569 CURVE"
);
},
{
closed = 1;
nodes = (
"686 682 LINE",
"224 0 LINE",
"313 0 LINE",
"774 682 LINE"
);
},
{
closed = 1;
nodes = (
"927 75 LINE",
"927 145 LINE",
"864 145 LINE",
"864 434 LINE",
"776 434 LINE",
"574 142 LINE",
"574 75 LINE",
"774 75 LINE",
"774 0 LINE",
"864 0 LINE",
"864 75 LINE"
);
},
{
closed = 1;
nodes = (
"739 268 LINE SMOOTH",
"749 283 OFFCURVE",
"765 308 OFFCURVE",
"773 324 CURVE",
"776 324 LINE",
"775 306 OFFCURVE",
"774 301 OFFCURVE",
"774 276 CURVE SMOOTH",
"774 145 LINE",
"653 145 LINE"
);
}
);
width = 955;
}
);
note = threequarters;
unicode = 00BE;
},
{
glyphname = registered;
layers = (
{
hints = (
{
horizontal = 1;
place = "{274, 45}";
type = Stem;
},
{
horizontal = 1;
place = "{563, 44}";
type = Stem;
},
{
horizontal = 1;
place = "{658, 46}";
type = Stem;
},
{
place = "{35, 45}";
type = Stem;
},
{
place = "{163, 59}";
type = Stem;
},
{
place = "{291, 60}";
type = Stem;
},
{
place = "{419, 45}";
type = Stem;
}
);
layerId = "D2FC741B-AB3D-47FE-B7ED-22FDCD907D24";
paths = (
{
closed = 1;
nodes = (
"35 370 OFFCURVE",
"132 274 OFFCURVE",
"250 274 CURVE SMOOTH",
"368 274 OFFCURVE",
"464 370 OFFCURVE",
"464 488 CURVE SMOOTH",
"464 607 OFFCURVE",
"368 704 OFFCURVE",
"250 704 CURVE SMOOTH",
"132 704 OFFCURVE",
"35 607 OFFCURVE",
"35 488 CURVE SMOOTH"
);
},
{
closed = 1;
nodes = (
"80 582 OFFCURVE",
"157 658 OFFCURVE",
"250 658 CURVE SMOOTH",
"344 658 OFFCURVE",
"419 582 OFFCURVE",
"419 488 CURVE SMOOTH",
"419 394 OFFCURVE",
"344 319 OFFCURVE",
"250 319 CURVE SMOOTH",
"157 319 OFFCURVE",
"80 394 OFFCURVE",
"80 488 CURVE SMOOTH"
);
},
{
closed = 1;
nodes = (
"299 464 LINE",
"329 472 OFFCURVE",
"351 499 OFFCURVE",
"351 533 CURVE SMOOTH",
"351 572 OFFCURVE",
"324 607 OFFCURVE",
"260 607 CURVE SMOOTH",
"163 607 LINE",
"163 375 LINE",
"222 375 LINE",
"222 458 LINE",
"242 458 LINE",
"302 375 LINE",
"366 375 LINE"
);
},
{
closed = 1;
nodes = (
"291 511 OFFCURVE",
"278 500 OFFCURVE",
"249 500 CURVE SMOOTH",
"222 500 LINE",
"222 563 LINE",
"249 563 LINE SMOOTH",
"281 563 OFFCURVE",
"291 548 OFFCURVE",
"291 531 CURVE SMOOTH"
);
}
);
width = 498;
}
);
leftKerningGroup = registered;
note = registered;
unicode = 00AE;
},
{
glyphname = minus;
layers = (
{
hints = (
{
horizontal = 1;
place = "{219, 90}";
type = Stem;
}
);
layerId = "D2FC741B-AB3D-47FE-B7ED-22FDCD907D24";
paths = (
{
closed = 1;
nodes = (
"594 219 LINE",
"594 309 LINE",
"78 309 LINE",
"78 219 LINE"
);
}
);
width = 672;
}
);
note = minus;
unicode = 2212;
},
{
glyphname = eth;
layers = (
{
hints = (
{
horizontal = 1;
place = "{-17, 100}";
type = Stem;
},
{
horizontal = 1;
place = "{396, 97}";
type = Stem;
},
{
horizontal = 1;
place = "{730, -20}";
target = down;
type = TopGhost;
},
{
place = "{32, 114}";
type = Stem;
},
{
place = "{431, 113}";
type = Stem;
}
);
layerId = "D2FC741B-AB3D-47FE-B7ED-22FDCD907D24";
paths = (
{
closed = 1;
nodes = (
"185 513 LINE",
"286 576 LINE",
"317 547 OFFCURVE",
"354 505 OFFCURVE",
"377 473 CURVE",
"375 470 LINE",
"352 485 OFFCURVE",
"320 493 OFFCURVE",
"290 493 CURVE SMOOTH",
"145 493 OFFCURVE",
"32 388 OFFCURVE",
"32 240 CURVE SMOOTH",
"32 95 OFFCURVE",
"142 -17 OFFCURVE",
"288 -17 CURVE SMOOTH",
"437 -17 OFFCURVE",
"544 102 OFFCURVE",
"544 248 CURVE SMOOTH",
"544 402 OFFCURVE",
"476 525 OFFCURVE",
"376 623 CURVE",
"439 662 LINE",
"398 730 LINE",
"314 679 LINE",
"293 696 OFFCURVE",
"274 710 OFFCURVE",
"258 720 CURVE",
"127 720 LINE",
"160 696 OFFCURVE",
"195 667 OFFCURVE",
"229 635 CURVE",
"143 581 LINE"
);
},
{
closed = 1;
nodes = (
"146 329 OFFCURVE",
"202 396 OFFCURVE",
"288 396 CURVE SMOOTH",
"377 396 OFFCURVE",
"431 325 OFFCURVE",
"431 240 CURVE SMOOTH",
"431 151 OFFCURVE",
"373 83 OFFCURVE",
"288 83 CURVE SMOOTH",
"211 83 OFFCURVE",
"146 148 OFFCURVE",
"146 240 CURVE SMOOTH"
);
}
);
width = 577;
}
);
leftKerningGroup = a;
note = eth;
rightKerningGroup = b;
unicode = 00F0;
},
{
glyphname = multiply;
layers = (
{
hints = (
{
horizontal = 1;
place = "{6, 21}";
target = up;
type = BottomGhost;
},
{
horizontal = 1;
place = "{510, -20}";
target = down;
type = TopGhost;
}
);
layerId = "D2FC741B-AB3D-47FE-B7ED-22FDCD907D24";
paths = (
{
closed = 1;
nodes = (
"585 72 LINE",
"399 259 LINE",
"586 446 LINE",
"522 510 LINE",
"334 323 LINE",
"148 510 LINE",
"84 446 LINE",
"271 259 LINE",
"84 70 LINE",
"148 6 LINE",
"335 196 LINE",
"521 8 LINE"
);
}
);
width = 672;
}
);
note = multiply;
unicode = 00D7;
},
{
glyphname = copyright;
layers = (
{
hints = (
{
horizontal = 1;
place = "{-22, 58}";
type = Stem;
},
{
horizontal = 1;
place = "{138, 78}";
type = Stem;
},
{
horizontal = 1;
place = "{476, 78}";
type = Stem;
},
{
horizontal = 1;
place = "{646, 58}";
type = Stem;
},
{
place = "{48, 58}";
type = Stem;
},
{
place = "{212, 85}";
type = Stem;
},
{
place = "{716, 58}";
type = Stem;
}
);
layerId = "D2FC741B-AB3D-47FE-B7ED-22FDCD907D24";
paths = (
{
closed = 1;
nodes = (
"298 554 OFFCURVE",
"212 467 OFFCURVE",
"212 348 CURVE SMOOTH",
"212 227 OFFCURVE",
"291 138 OFFCURVE",
"412 138 CURVE SMOOTH",
"507 138 OFFCURVE",
"574 204 OFFCURVE",
"596 287 CURVE",
"507 287 LINE",
"495 243 OFFCURVE",
"459 216 OFFCURVE",
"414 216 CURVE SMOOTH",
"341 216 OFFCURVE",
"297 272 OFFCURVE",
"297 346 CURVE SMOOTH",
"297 426 OFFCURVE",
"343 476 OFFCURVE",
"410 476 CURVE SMOOTH",
"457 476 OFFCURVE",
"491 453 OFFCURVE",
"503 413 CURVE",
"592 413 LINE",
"577 478 OFFCURVE",
"521 554 OFFCURVE",
"412 554 CURVE SMOOTH"
);
},
{
closed = 1;
nodes = (
"48 141 OFFCURVE",
"211 -22 OFFCURVE",
"411 -22 CURVE SMOOTH",
"612 -22 OFFCURVE",
"774 141 OFFCURVE",
"774 341 CURVE SMOOTH",
"774 541 OFFCURVE",
"612 704 OFFCURVE",
"411 704 CURVE SMOOTH",
"211 704 OFFCURVE",
"48 541 OFFCURVE",
"48 341 CURVE SMOOTH"
);
},
{
closed = 1;
nodes = (
"106 509 OFFCURVE",
"244 646 OFFCURVE",
"411 646 CURVE SMOOTH",
"580 646 OFFCURVE",
"716 509 OFFCURVE",
"716 341 CURVE SMOOTH",
"716 173 OFFCURVE",
"580 36 OFFCURVE",
"411 36 CURVE SMOOTH",
"244 36 OFFCURVE",
"106 173 OFFCURVE",
"106 341 CURVE SMOOTH"
);
}
);
width = 822;
}
);
leftKerningGroup = registered;
note = copyright;
unicode = 00A9;
},
{
glyphname = Aacute;
layers = (
{
hints = (
{
horizontal = 1;
place = "{0, 21}";
target = up;
type = BottomGhost;
},
{
horizontal = 1;
place = "{167, 90}";
type = Stem;
},
{
horizontal = 1;
place = "{682, -20}";
target = down;
type = TopGhost;
},
{
horizontal = 1;
place = "{902, -20}";
target = down;
type = TopGhost;
}
);
layerId = "D2FC741B-AB3D-47FE-B7ED-22FDCD907D24";
paths = (
{
closed = 1;
nodes = (
"10 0 LINE",
"130 0 LINE",
"192 167 LINE",
"464 167 LINE",
"525 0 LINE",
"648 0 LINE",
"389 682 LINE",
"281 682 LINE"
);
},
{
closed = 1;
nodes = (
"287 431 LINE SMOOTH",
"301 468 OFFCURVE",
"316 513 OFFCURVE",
"327 550 CURVE",
"332 550 LINE",
"342 514 OFFCURVE",
"356 470 OFFCURVE",
"370 432 CURVE SMOOTH",
"433 257 LINE",
"223 257 LINE"
);
},
{
closed = 1;
nodes = (
"427 902 LINE",
"245 805 LINE",
"278 734 LINE",
"468 814 LINE"
);
}
);
width = 652;
}
);
leftKerningGroup = A;
note = Aacute;
rightKerningGroup = A;
unicode = 00C1;
},
{
glyphname = Acircumflex;
layers = (
{
hints = (
{
horizontal = 1;
place = "{0, 21}";
target = up;
type = BottomGhost;
},
{
horizontal = 1;
place = "{167, 90}";
type = Stem;
},
{
horizontal = 1;
place = "{682, -20}";
target = down;
type = TopGhost;
},
{
horizontal = 1;
place = "{897, -20}";
target = down;
type = TopGhost;
}
);
layerId = "D2FC741B-AB3D-47FE-B7ED-22FDCD907D24";
paths = (
{
closed = 1;
nodes = (
"10 0 LINE",
"130 0 LINE",
"192 167 LINE",
"464 167 LINE",
"525 0 LINE",
"648 0 LINE",
"389 682 LINE",
"281 682 LINE"
);
},
{
closed = 1;
nodes = (
"287 431 LINE SMOOTH",
"301 468 OFFCURVE",
"316 513 OFFCURVE",
"327 550 CURVE",
"332 550 LINE",
"342 514 OFFCURVE",
"356 470 OFFCURVE",
"370 432 CURVE SMOOTH",
"433 257 LINE",
"223 257 LINE"
);
},
{
closed = 1;
nodes = (
"334 897 LINE",
"179 796 LINE",
"211 734 LINE",
"334 793 LINE",
"457 734 LINE",
"489 796 LINE"
);
}
);
width = 652;
}
);
leftKerningGroup = A;
note = Acircumflex;
rightKerningGroup = A;
unicode = 00C2;
},
{
glyphname = Adieresis;
layers = (
{
hints = (
{
horizontal = 1;
place = "{0, 21}";
target = up;
type = BottomGhost;
},
{
horizontal = 1;
place = "{167, 90}";
type = Stem;
},
{
horizontal = 1;
place = "{682, -20}";
target = down;
type = TopGhost;
},
{
horizontal = 1;
place = "{773, 102}";
type = Stem;
},
{
place = "{191, 105}";
type = Stem;
},
{
place = "{371, 105}";
type = Stem;
}
);
layerId = "D2FC741B-AB3D-47FE-B7ED-22FDCD907D24";
paths = (
{
closed = 1;
nodes = (
"10 0 LINE",
"130 0 LINE",
"192 167 LINE",
"464 167 LINE",
"525 0 LINE",
"648 0 LINE",
"389 682 LINE",
"281 682 LINE"
);
},
{
closed = 1;
nodes = (
"287 431 LINE SMOOTH",
"301 468 OFFCURVE",
"316 513 OFFCURVE",
"327 550 CURVE",
"332 550 LINE",
"342 514 OFFCURVE",
"356 470 OFFCURVE",
"370 432 CURVE SMOOTH",
"433 257 LINE",
"223 257 LINE"
);
},
{
closed = 1;
nodes = (
"191 773 LINE",
"296 773 LINE",
"296 875 LINE",
"191 875 LINE"
);
},
{
closed = 1;
nodes = (
"371 773 LINE",
"476 773 LINE",
"476 875 LINE",
"371 875 LINE"
);
}
);
width = 652;
}
);
leftKerningGroup = A;
note = Adieresis;
rightKerningGroup = A;
unicode = 00C4;
},
{
glyphname = Agrave;
layers = (
{
hints = (
{
horizontal = 1;
place = "{0, 21}";
target = up;
type = BottomGhost;
},
{
horizontal = 1;
place = "{167, 90}";
type = Stem;
},
{
horizontal = 1;
place = "{682, -20}";
target = down;
type = TopGhost;
},
{
horizontal = 1;
place = "{902, -20}";
target = down;
type = TopGhost;
}
);
layerId = "D2FC741B-AB3D-47FE-B7ED-22FDCD907D24";
paths = (
{
closed = 1;
nodes = (
"10 0 LINE",
"130 0 LINE",
"192 167 LINE",
"464 167 LINE",
"525 0 LINE",
"648 0 LINE",
"389 682 LINE",
"281 682 LINE"
);
},
{
closed = 1;
nodes = (
"287 431 LINE SMOOTH",
"301 468 OFFCURVE",
"316 513 OFFCURVE",
"327 550 CURVE",
"332 550 LINE",
"342 514 OFFCURVE",
"356 470 OFFCURVE",
"370 432 CURVE SMOOTH",
"433 257 LINE",
"223 257 LINE"
);
},
{
closed = 1;
nodes = (
"200 814 LINE",
"390 734 LINE",
"424 805 LINE",
"242 902 LINE"
);
}
);
width = 652;
}
);
leftKerningGroup = A;
note = Agrave;
rightKerningGroup = A;
unicode = 00C0;
},
{
glyphname = Aring;
layers = (
{
hints = (
{
horizontal = 1;
place = "{0, 21}";
target = up;
type = BottomGhost;
},
{
horizontal = 1;
place = "{167, 90}";
type = Stem;
},
{
horizontal = 1;
place = "{682, -20}";
target = down;
type = TopGhost;
},
{
horizontal = 1;
place = "{715, 66}";
type = Stem;
},
{
horizontal = 1;
place = "{901, 66}";
type = Stem;
},
{
place = "{208, 65}";
type = Stem;
},
{
place = "{394, 66}";
type = Stem;
}
);
layerId = "D2FC741B-AB3D-47FE-B7ED-22FDCD907D24";
paths = (
{
closed = 1;
nodes = (
"10 0 LINE",
"130 0 LINE",
"192 167 LINE",
"464 167 LINE",
"525 0 LINE",
"648 0 LINE",
"389 682 LINE",
"281 682 LINE"
);
},
{
closed = 1;
nodes = (
"287 431 LINE SMOOTH",
"301 468 OFFCURVE",
"316 513 OFFCURVE",
"327 550 CURVE",
"332 550 LINE",
"342 514 OFFCURVE",
"356 470 OFFCURVE",
"370 432 CURVE SMOOTH",
"433 257 LINE",
"223 257 LINE"
);
},
{
closed = 1;
nodes = (
"273 875 OFFCURVE",
"301 901 OFFCURVE",
"335 901 CURVE SMOOTH",
"368 901 OFFCURVE",
"394 875 OFFCURVE",
"394 842 CURVE SMOOTH",
"394 808 OFFCURVE",
"368 781 OFFCURVE",
"335 781 CURVE SMOOTH",
"301 781 OFFCURVE",
"273 808 OFFCURVE",
"273 842 CURVE SMOOTH"
);
},
{
closed = 1;
nodes = (
"208 771 OFFCURVE",
"263 715 OFFCURVE",
"335 715 CURVE SMOOTH",
"404 715 OFFCURVE",
"460 771 OFFCURVE",
"460 842 CURVE SMOOTH",
"460 911 OFFCURVE",
"404 967 OFFCURVE",
"335 967 CURVE SMOOTH",
"263 967 OFFCURVE",
"208 911 OFFCURVE",
"208 842 CURVE SMOOTH"
);
}
);
width = 652;
}
);
leftKerningGroup = A;
note = Aring;
rightKerningGroup = A;
unicode = 00C5;
},
{
glyphname = Atilde;
layers = (
{
hints = (
{
horizontal = 1;
place = "{0, 21}";
target = up;
type = BottomGhost;
},
{
horizontal = 1;
place = "{167, 90}";
type = Stem;
},
{
horizontal = 1;
place = "{682, -20}";
target = down;
type = TopGhost;
},
{
horizontal = 1;
place = "{819, 79}";
type = Stem;
},
{
horizontal = 1;
place = "{761, 79}";
type = Stem;
}
);
layerId = "D2FC741B-AB3D-47FE-B7ED-22FDCD907D24";
paths = (
{
closed = 1;
nodes = (
"10 0 LINE",
"130 0 LINE",
"192 167 LINE",
"464 167 LINE",
"525 0 LINE",
"648 0 LINE",
"389 682 LINE",
"281 682 LINE"
);
},
{
closed = 1;
nodes = (
"287 431 LINE SMOOTH",
"301 468 OFFCURVE",
"316 513 OFFCURVE",
"327 550 CURVE",
"332 550 LINE",
"342 514 OFFCURVE",
"356 470 OFFCURVE",
"370 432 CURVE SMOOTH",
"433 257 LINE",
"223 257 LINE"
);
},
{
closed = 1;
nodes = (
"236 770 LINE",
"238 802 OFFCURVE",
"249 819 OFFCURVE",
"266 819 CURVE SMOOTH",
"280 819 OFFCURVE",
"292 811 OFFCURVE",
"319 790 CURVE SMOOTH",
"344 771 OFFCURVE",
"369 761 OFFCURVE",
"400 761 CURVE SMOOTH",
"466 761 OFFCURVE",
"500 806 OFFCURVE",
"503 889 CURVE",
"432 889 LINE",
"431 850 OFFCURVE",
"418 840 OFFCURVE",
"402 840 CURVE SMOOTH",
"385 840 OFFCURVE",
"367 849 OFFCURVE",
"342 868 CURVE SMOOTH",
"316 888 OFFCURVE",
"296 898 OFFCURVE",
"267 898 CURVE SMOOTH",
"199 898 OFFCURVE",
"169 843 OFFCURVE",
"165 770 CURVE"
);
}
);
width = 652;
}
);
leftKerningGroup = A;
note = Atilde;
rightKerningGroup = A;
unicode = 00C3;
},
{
glyphname = Ccedilla;
layers = (
{
hints = (
{
horizontal = 1;
place = "{-243, 72}";
type = Stem;
},
{
horizontal = 1;
place = "{-21, 101}";
type = Stem;
},
{
horizontal = 1;
place = "{482, -20}";
target = down;
type = TopGhost;
},
{
horizontal = 1;
place = "{602, 102}";
type = Stem;
},
{
place = "{35, 121}";
type = Stem;
},
{
place = "{413, 83}";
type = Stem;
}
);
layerId = "D2FC741B-AB3D-47FE-B7ED-22FDCD907D24";
paths = (
{
closed = 1;
nodes = (
"186 704 OFFCURVE",
"35 551 OFFCURVE",
"35 343 CURVE SMOOTH",
"35 147 OFFCURVE",
"159 -2 OFFCURVE",
"348 -20 CURVE",
"319 -94 LINE",
"383 -94 OFFCURVE",
"413 -110 OFFCURVE",
"413 -137 CURVE SMOOTH",
"413 -161 OFFCURVE",
"393 -171 OFFCURVE",
"361 -171 CURVE SMOOTH",
"339 -171 OFFCURVE",
"304 -165 OFFCURVE",
"290 -159 CURVE",
"266 -226 LINE",
"293 -235 OFFCURVE",
"335 -243 OFFCURVE",
"372 -243 CURVE SMOOTH",
"455 -243 OFFCURVE",
"496 -198 OFFCURVE",
"496 -136 CURVE SMOOTH",
"496 -89 OFFCURVE",
"464 -48 OFFCURVE",
"410 -39 CURVE",
"417 -21 LINE",
"577 -10 OFFCURVE",
"673 87 OFFCURVE",
"719 212 CURVE",
"587 212 LINE",
"560 140 OFFCURVE",
"495 80 OFFCURVE",
"391 80 CURVE SMOOTH",
"252 80 OFFCURVE",
"156 198 OFFCURVE",
"156 342 CURVE SMOOTH",
"156 503 OFFCURVE",
"260 602 OFFCURVE",
"387 602 CURVE SMOOTH",
"488 602 OFFCURVE",
"555 547 OFFCURVE",
"579 482 CURVE",
"708 482 LINE",
"679 585 OFFCURVE",
"578 704 OFFCURVE",
"388 704 CURVE SMOOTH"
);
}
);
width = 764;
}
);
leftKerningGroup = C;
note = Ccedilla;
rightKerningGroup = C;
unicode = 00C7;
},
{
glyphname = Eacute;
layers = (
{
hints = (
{
horizontal = 1;
place = "{0, 104}";
type = Stem;
},
{
horizontal = 1;
place = "{302, 101}";
type = Stem;
},
{
horizontal = 1;
place = "{578, 104}";
type = Stem;
},
{
horizontal = 1;
place = "{902, -20}";
target = down;
type = TopGhost;
},
{
place = "{73, 118}";
type = Stem;
}
);
layerId = "D2FC741B-AB3D-47FE-B7ED-22FDCD907D24";
paths = (
{
closed = 1;
nodes = (
"467 682 LINE",
"73 682 LINE",
"73 0 LINE",
"478 0 LINE",
"478 104 LINE",
"191 104 LINE",
"191 302 LINE",
"457 302 LINE",
"457 403 LINE",
"191 403 LINE",
"191 578 LINE",
"467 578 LINE"
);
},
{
closed = 1;
nodes = (
"359 902 LINE",
"177 805 LINE",
"210 734 LINE",
"400 814 LINE"
);
}
);
width = 535;
}
);
leftKerningGroup = B;
note = Eacute;
rightKerningGroup = E;
unicode = 00C9;
},
{
glyphname = Ecircumflex;
layers = (
{
hints = (
{
horizontal = 1;
place = "{0, 104}";
type = Stem;
},
{
horizontal = 1;
place = "{302, 101}";
type = Stem;
},
{
horizontal = 1;
place = "{578, 104}";
type = Stem;
},
{
horizontal = 1;
place = "{897, -20}";
target = down;
type = TopGhost;
},
{
place = "{73, 118}";
type = Stem;
}
);
layerId = "D2FC741B-AB3D-47FE-B7ED-22FDCD907D24";
paths = (
{
closed = 1;
nodes = (
"467 682 LINE",
"73 682 LINE",
"73 0 LINE",
"478 0 LINE",
"478 104 LINE",
"191 104 LINE",
"191 302 LINE",
"457 302 LINE",
"457 403 LINE",
"191 403 LINE",
"191 578 LINE",
"467 578 LINE"
);
},
{
closed = 1;
nodes = (
"271 897 LINE",
"116 796 LINE",
"148 734 LINE",
"271 793 LINE",
"394 734 LINE",
"426 796 LINE"
);
}
);
width = 535;
}
);
leftKerningGroup = B;
note = Ecircumflex;
rightKerningGroup = E;
unicode = 00CA;
},
{
glyphname = Edieresis;
layers = (
{
hints = (
{
horizontal = 1;
place = "{0, 104}";
type = Stem;
},
{
horizontal = 1;
place = "{302, 101}";
type = Stem;
},
{
horizontal = 1;
place = "{578, 104}";
type = Stem;
},
{
horizontal = 1;
place = "{773, 102}";
type = Stem;
},
{
place = "{73, 118}";
type = Stem;
},
{
place = "{307, 105}";
type = Stem;
},
{
place = "{127, 105}";
type = Stem;
}
);
layerId = "D2FC741B-AB3D-47FE-B7ED-22FDCD907D24";
paths = (
{
closed = 1;
nodes = (
"467 682 LINE",
"73 682 LINE",
"73 0 LINE",
"478 0 LINE",
"478 104 LINE",
"191 104 LINE",
"191 302 LINE",
"457 302 LINE",
"457 403 LINE",
"191 403 LINE",
"191 578 LINE",
"467 578 LINE"
);
},
{
closed = 1;
nodes = (
"127 773 LINE",
"232 773 LINE",
"232 875 LINE",
"127 875 LINE"
);
},
{
closed = 1;
nodes = (
"307 773 LINE",
"412 773 LINE",
"412 875 LINE",
"307 875 LINE"
);
}
);
width = 535;
}
);
leftKerningGroup = B;
note = Edieresis;
rightKerningGroup = E;
unicode = 00CB;
},
{
glyphname = Egrave;
layers = (
{
hints = (
{
horizontal = 1;
place = "{0, 104}";
type = Stem;
},
{
horizontal = 1;
place = "{302, 101}";
type = Stem;
},
{
horizontal = 1;
place = "{578, 104}";
type = Stem;
},
{
horizontal = 1;
place = "{902, -20}";
target = down;
type = TopGhost;
},
{
place = "{73, 118}";
type = Stem;
}
);
layerId = "D2FC741B-AB3D-47FE-B7ED-22FDCD907D24";
paths = (
{
closed = 1;
nodes = (
"467 682 LINE",
"73 682 LINE",
"73 0 LINE",
"478 0 LINE",
"478 104 LINE",
"191 104 LINE",
"191 302 LINE",
"457 302 LINE",
"457 403 LINE",
"191 403 LINE",
"191 578 LINE",
"467 578 LINE"
);
},
{
closed = 1;
nodes = (
"141 814 LINE",
"331 734 LINE",
"365 805 LINE",
"183 902 LINE"
);
}
);
width = 535;
}
);
leftKerningGroup = B;
note = Egrave;
rightKerningGroup = E;
unicode = 00C8;
},
{
glyphname = Iacute;
layers = (
{
hints = (
{
horizontal = 1;
place = "{0, 21}";
target = up;
type = BottomGhost;
},
{
horizontal = 1;
place = "{682, -20}";
target = down;
type = TopGhost;
},
{
horizontal = 1;
place = "{902, -20}";
target = down;
type = TopGhost;
},
{
place = "{73, 118}";
type = Stem;
}
);
layerId = "D2FC741B-AB3D-47FE-B7ED-22FDCD907D24";
paths = (
{
closed = 1;
nodes = (
"73 0 LINE",
"191 0 LINE",
"191 682 LINE",
"73 682 LINE"
);
},
{
closed = 1;
nodes = (
"225 902 LINE",
"43 805 LINE",
"76 734 LINE",
"266 814 LINE"
);
}
);
width = 259;
}
);
leftKerningGroup = B;
note = Iacute;
rightKerningGroup = H;
unicode = 00CD;
},
{
glyphname = Icircumflex;
layers = (
{
hints = (
{
horizontal = 1;
place = "{0, 21}";
target = up;
type = BottomGhost;
},
{
horizontal = 1;
place = "{682, -20}";
target = down;
type = TopGhost;
},
{
horizontal = 1;
place = "{897, -20}";
target = down;
type = TopGhost;
},
{
place = "{73, 118}";
type = Stem;
}
);
layerId = "D2FC741B-AB3D-47FE-B7ED-22FDCD907D24";
paths = (
{
closed = 1;
nodes = (
"73 0 LINE",
"191 0 LINE",
"191 682 LINE",
"73 682 LINE"
);
},
{
closed = 1;
nodes = (
"132 897 LINE",
"-23 796 LINE",
"9 734 LINE",
"132 793 LINE",
"255 734 LINE",
"287 796 LINE"
);
}
);
width = 259;
}
);
leftKerningGroup = B;
note = Icircumflex;
rightKerningGroup = H;
unicode = 00CE;
},
{
glyphname = Idieresis;
layers = (
{
hints = (
{
horizontal = 1;
place = "{0, 21}";
target = up;
type = BottomGhost;
},
{
horizontal = 1;
place = "{682, -20}";
target = down;
type = TopGhost;
},
{
horizontal = 1;
place = "{773, 102}";
type = Stem;
},
{
place = "{73, 118}";
type = Stem;
},
{
place = "{-10, 105}";
type = Stem;
},
{
place = "{170, 105}";
type = Stem;
}
);
layerId = "D2FC741B-AB3D-47FE-B7ED-22FDCD907D24";
paths = (
{
closed = 1;
nodes = (
"73 0 LINE",
"191 0 LINE",
"191 682 LINE",
"73 682 LINE"
);
},
{
closed = 1;
nodes = (
"-10 773 LINE",
"95 773 LINE",
"95 875 LINE",
"-10 875 LINE"
);
},
{
closed = 1;
nodes = (
"170 773 LINE",
"275 773 LINE",
"275 875 LINE",
"170 875 LINE"
);
}
);
width = 259;
}
);
leftKerningGroup = B;
note = Idieresis;
rightKerningGroup = H;
unicode = 00CF;
},
{
glyphname = Igrave;
layers = (
{
hints = (
{
horizontal = 1;
place = "{0, 21}";
target = up;
type = BottomGhost;
},
{
horizontal = 1;
place = "{682, -20}";
target = down;
type = TopGhost;
},
{
horizontal = 1;
place = "{902, -20}";
target = down;
type = TopGhost;
},
{
place = "{73, 118}";
type = Stem;
}
);
layerId = "D2FC741B-AB3D-47FE-B7ED-22FDCD907D24";
paths = (
{
closed = 1;
nodes = (
"73 0 LINE",
"191 0 LINE",
"191 682 LINE",
"73 682 LINE"
);
},
{
closed = 1;
nodes = (
"-2 814 LINE",
"188 734 LINE",
"222 805 LINE",
"40 902 LINE"
);
}
);
width = 259;
}
);
leftKerningGroup = B;
note = Igrave;
rightKerningGroup = H;
unicode = 00CC;
},
{
glyphname = Ntilde;
layers = (
{
hints = (
{
horizontal = 1;
place = "{0, 21}";
target = up;
type = BottomGhost;
},
{
horizontal = 1;
place = "{682, -20}";
target = down;
type = TopGhost;
},
{
horizontal = 1;
place = "{819, 79}";
type = Stem;
},
{
place = "{73, 105}";
type = Stem;
},
{
place = "{503, 104}";
type = Stem;
},
{
horizontal = 1;
place = "{761, 79}";
type = Stem;
}
);
layerId = "D2FC741B-AB3D-47FE-B7ED-22FDCD907D24";
paths = (
{
closed = 1;
nodes = (
"178 503 LINE",
"199 465 OFFCURVE",
"225 420 OFFCURVE",
"309 293 CURVE SMOOTH",
"503 0 LINE",
"607 0 LINE",
"607 682 LINE",
"503 682 LINE",
"503 309 LINE SMOOTH",
"503 276 OFFCURVE",
"504 212 OFFCURVE",
"505 176 CURVE",
"503 176 LINE",
"483 214 OFFCURVE",
"451 269 OFFCURVE",
"381 374 CURVE SMOOTH",
"178 682 LINE",
"73 682 LINE",
"73 0 LINE",
"178 0 LINE",
"178 367 LINE SMOOTH",
"178 401 OFFCURVE",
"176 469 OFFCURVE",
"175 503 CURVE"
);
},
{
closed = 1;
nodes = (
"240 770 LINE",
"242 802 OFFCURVE",
"253 819 OFFCURVE",
"270 819 CURVE SMOOTH",
"284 819 OFFCURVE",
"296 811 OFFCURVE",
"323 790 CURVE SMOOTH",
"348 771 OFFCURVE",
"373 761 OFFCURVE",
"404 761 CURVE SMOOTH",
"470 761 OFFCURVE",
"504 806 OFFCURVE",
"507 889 CURVE",
"436 889 LINE",
"435 850 OFFCURVE",
"422 840 OFFCURVE",
"406 840 CURVE SMOOTH",
"389 840 OFFCURVE",
"371 849 OFFCURVE",
"346 868 CURVE SMOOTH",
"320 888 OFFCURVE",
"300 898 OFFCURVE",
"271 898 CURVE SMOOTH",
"203 898 OFFCURVE",
"173 843 OFFCURVE",
"169 770 CURVE"
);
}
);
width = 675;
}
);
leftKerningGroup = B;
note = Ntilde;
rightKerningGroup = H;
unicode = 00D1;
},
{
glyphname = Oacute;
layers = (
{
hints = (
{
horizontal = 1;
place = "{-22, 106}";
type = Stem;
},
{
horizontal = 1;
place = "{598, 106}";
type = Stem;
},
{
horizontal = 1;
place = "{902, -20}";
target = down;
type = TopGhost;
},
{
place = "{38, 121}";
type = Stem;
},
{
place = "{640, 121}";
type = Stem;
}
);
layerId = "D2FC741B-AB3D-47FE-B7ED-22FDCD907D24";
paths = (
{
closed = 1;
nodes = (
"159 489 OFFCURVE",
"264 598 OFFCURVE",
"400 598 CURVE SMOOTH",
"544 598 OFFCURVE",
"640 485 OFFCURVE",
"640 341 CURVE SMOOTH",
"640 194 OFFCURVE",
"536 84 OFFCURVE",
"399 84 CURVE SMOOTH",
"263 84 OFFCURVE",
"159 194 OFFCURVE",
"159 341 CURVE SMOOTH"
);
},
{
closed = 1;
nodes = (
"38 172 OFFCURVE",
"150 -22 OFFCURVE",
"400 -22 CURVE SMOOTH",
"606 -22 OFFCURVE",
"761 142 OFFCURVE",
"761 341 CURVE SMOOTH",
"761 531 OFFCURVE",
"625 704 OFFCURVE",
"401 704 CURVE SMOOTH",
"190 704 OFFCURVE",
"38 536 OFFCURVE",
"38 341 CURVE SMOOTH"
);
},
{
closed = 1;
nodes = (
"488 902 LINE",
"306 805 LINE",
"339 734 LINE",
"529 814 LINE"
);
}
);
width = 793;
}
);
leftKerningGroup = C;
note = Oacute;
rightKerningGroup = D;
unicode = 00D3;
},
{
glyphname = Ocircumflex;
layers = (
{
hints = (
{
horizontal = 1;
place = "{-22, 106}";
type = Stem;
},
{
horizontal = 1;
place = "{598, 106}";
type = Stem;
},
{
horizontal = 1;
place = "{897, -20}";
target = down;
type = TopGhost;
},
{
place = "{38, 121}";
type = Stem;
},
{
place = "{640, 121}";
type = Stem;
}
);
layerId = "D2FC741B-AB3D-47FE-B7ED-22FDCD907D24";
paths = (
{
closed = 1;
nodes = (
"159 489 OFFCURVE",
"264 598 OFFCURVE",
"400 598 CURVE SMOOTH",
"544 598 OFFCURVE",
"640 485 OFFCURVE",
"640 341 CURVE SMOOTH",
"640 194 OFFCURVE",
"536 84 OFFCURVE",
"399 84 CURVE SMOOTH",
"263 84 OFFCURVE",
"159 194 OFFCURVE",
"159 341 CURVE SMOOTH"
);
},
{
closed = 1;
nodes = (
"38 172 OFFCURVE",
"150 -22 OFFCURVE",
"400 -22 CURVE SMOOTH",
"606 -22 OFFCURVE",
"761 142 OFFCURVE",
"761 341 CURVE SMOOTH",
"761 531 OFFCURVE",
"625 704 OFFCURVE",
"401 704 CURVE SMOOTH",
"190 704 OFFCURVE",
"38 536 OFFCURVE",
"38 341 CURVE SMOOTH"
);
},
{
closed = 1;
nodes = (
"402 897 LINE",
"247 796 LINE",
"279 734 LINE",
"402 793 LINE",
"525 734 LINE",
"557 796 LINE"
);
}
);
width = 793;
}
);
leftKerningGroup = C;
note = Ocircumflex;
rightKerningGroup = D;
unicode = 00D4;
},
{
glyphname = Odieresis;
layers = (
{
hints = (
{
horizontal = 1;
place = "{-22, 106}";
type = Stem;
},
{
horizontal = 1;
place = "{598, 106}";
type = Stem;
},
{
horizontal = 1;
place = "{773, 102}";
type = Stem;
},
{
place = "{38, 121}";
type = Stem;
},
{
place = "{260, 105}";
type = Stem;
},
{
place = "{440, 105}";
type = Stem;
},
{
place = "{640, 121}";
type = Stem;
}
);
layerId = "D2FC741B-AB3D-47FE-B7ED-22FDCD907D24";
paths = (
{
closed = 1;
nodes = (
"159 489 OFFCURVE",
"264 598 OFFCURVE",
"400 598 CURVE SMOOTH",
"544 598 OFFCURVE",
"640 485 OFFCURVE",
"640 341 CURVE SMOOTH",
"640 194 OFFCURVE",
"536 84 OFFCURVE",
"399 84 CURVE SMOOTH",
"263 84 OFFCURVE",
"159 194 OFFCURVE",
"159 341 CURVE SMOOTH"
);
},
{
closed = 1;
nodes = (
"38 172 OFFCURVE",
"150 -22 OFFCURVE",
"400 -22 CURVE SMOOTH",
"606 -22 OFFCURVE",
"761 142 OFFCURVE",
"761 341 CURVE SMOOTH",
"761 531 OFFCURVE",
"625 704 OFFCURVE",
"401 704 CURVE SMOOTH",
"190 704 OFFCURVE",
"38 536 OFFCURVE",
"38 341 CURVE SMOOTH"
);
},
{
closed = 1;
nodes = (
"260 773 LINE",
"365 773 LINE",
"365 875 LINE",
"260 875 LINE"
);
},
{
closed = 1;
nodes = (
"440 773 LINE",
"545 773 LINE",
"545 875 LINE",
"440 875 LINE"
);
}
);
width = 793;
}
);
leftKerningGroup = C;
note = Odieresis;
rightKerningGroup = D;
unicode = 00D6;
},
{
glyphname = Ograve;
layers = (
{
hints = (
{
horizontal = 1;
place = "{-22, 106}";
type = Stem;
},
{
horizontal = 1;
place = "{598, 106}";
type = Stem;
},
{
horizontal = 1;
place = "{902, -20}";
target = down;
type = TopGhost;
},
{
place = "{38, 121}";
type = Stem;
},
{
place = "{640, 121}";
type = Stem;
}
);
layerId = "D2FC741B-AB3D-47FE-B7ED-22FDCD907D24";
paths = (
{
closed = 1;
nodes = (
"159 489 OFFCURVE",
"264 598 OFFCURVE",
"400 598 CURVE SMOOTH",
"544 598 OFFCURVE",
"640 485 OFFCURVE",
"640 341 CURVE SMOOTH",
"640 194 OFFCURVE",
"536 84 OFFCURVE",
"399 84 CURVE SMOOTH",
"263 84 OFFCURVE",
"159 194 OFFCURVE",
"159 341 CURVE SMOOTH"
);
},
{
closed = 1;
nodes = (
"38 172 OFFCURVE",
"150 -22 OFFCURVE",
"400 -22 CURVE SMOOTH",
"606 -22 OFFCURVE",
"761 142 OFFCURVE",
"761 341 CURVE SMOOTH",
"761 531 OFFCURVE",
"625 704 OFFCURVE",
"401 704 CURVE SMOOTH",
"190 704 OFFCURVE",
"38 536 OFFCURVE",
"38 341 CURVE SMOOTH"
);
},
{
closed = 1;
nodes = (
"275 814 LINE",
"465 734 LINE",
"499 805 LINE",
"317 902 LINE"
);
}
);
width = 793;
}
);
leftKerningGroup = C;
note = Ograve;
rightKerningGroup = D;
unicode = 00D2;
},
{
glyphname = Otilde;
layers = (
{
hints = (
{
horizontal = 1;
place = "{-22, 106}";
type = Stem;
},
{
horizontal = 1;
place = "{598, 106}";
type = Stem;
},
{
horizontal = 1;
place = "{819, 79}";
type = Stem;
},
{
place = "{38, 121}";
type = Stem;
},
{
place = "{640, 121}";
type = Stem;
},
{
horizontal = 1;
place = "{761, 79}";
type = Stem;
}
);
layerId = "D2FC741B-AB3D-47FE-B7ED-22FDCD907D24";
paths = (
{
closed = 1;
nodes = (
"159 489 OFFCURVE",
"264 598 OFFCURVE",
"400 598 CURVE SMOOTH",
"544 598 OFFCURVE",
"640 485 OFFCURVE",
"640 341 CURVE SMOOTH",
"640 194 OFFCURVE",
"536 84 OFFCURVE",
"399 84 CURVE SMOOTH",
"263 84 OFFCURVE",
"159 194 OFFCURVE",
"159 341 CURVE SMOOTH"
);
},
{
closed = 1;
nodes = (
"38 172 OFFCURVE",
"150 -22 OFFCURVE",
"400 -22 CURVE SMOOTH",
"606 -22 OFFCURVE",
"761 142 OFFCURVE",
"761 341 CURVE SMOOTH",
"761 531 OFFCURVE",
"625 704 OFFCURVE",
"401 704 CURVE SMOOTH",
"190 704 OFFCURVE",
"38 536 OFFCURVE",
"38 341 CURVE SMOOTH"
);
},
{
closed = 1;
nodes = (
"304 770 LINE",
"306 802 OFFCURVE",
"317 819 OFFCURVE",
"334 819 CURVE SMOOTH",
"348 819 OFFCURVE",
"360 811 OFFCURVE",
"387 790 CURVE SMOOTH",
"412 771 OFFCURVE",
"437 761 OFFCURVE",
"468 761 CURVE SMOOTH",
"534 761 OFFCURVE",
"568 806 OFFCURVE",
"571 889 CURVE",
"500 889 LINE",
"499 850 OFFCURVE",
"486 840 OFFCURVE",
"470 840 CURVE SMOOTH",
"453 840 OFFCURVE",
"435 849 OFFCURVE",
"410 868 CURVE SMOOTH",
"384 888 OFFCURVE",
"364 898 OFFCURVE",
"335 898 CURVE SMOOTH",
"267 898 OFFCURVE",
"237 843 OFFCURVE",
"233 770 CURVE"
);
}
);
width = 793;
}
);
leftKerningGroup = C;
note = Otilde;
rightKerningGroup = D;
unicode = 00D5;
},
{
glyphname = Scaron;
layers = (
{
hints = (
{
horizontal = 1;
place = "{-22, 98}";
type = Stem;
},
{
horizontal = 1;
place = "{606, 98}";
type = Stem;
},
{
horizontal = 1;
place = "{897, -20}";
target = down;
type = TopGhost;
},
{
place = "{71, 116}";
type = Stem;
},
{
place = "{389, 117}";
type = Stem;
}
);
layerId = "D2FC741B-AB3D-47FE-B7ED-22FDCD907D24";
paths = (
{
closed = 1;
nodes = (
"492 520 LINE",
"483 628 OFFCURVE",
"402 704 OFFCURVE",
"280 704 CURVE SMOOTH",
"161 704 OFFCURVE",
"71 628 OFFCURVE",
"71 520 CURVE SMOOTH",
"71 423 OFFCURVE",
"126 353 OFFCURVE",
"257 311 CURVE SMOOTH",
"348 282 OFFCURVE",
"389 246 OFFCURVE",
"389 181 CURVE SMOOTH",
"389 127 OFFCURVE",
"352 76 OFFCURVE",
"283 76 CURVE SMOOTH",
"215 76 OFFCURVE",
"177 119 OFFCURVE",
"166 184 CURVE",
"46 184 LINE",
"64 49 OFFCURVE",
"155 -22 OFFCURVE",
"282 -22 CURVE SMOOTH",
"434 -22 OFFCURVE",
"506 88 OFFCURVE",
"506 188 CURVE SMOOTH",
"506 291 OFFCURVE",
"455 367 OFFCURVE",
"309 413 CURVE SMOOTH",
"234 437 OFFCURVE",
"187 465 OFFCURVE",
"187 521 CURVE SMOOTH",
"187 571 OFFCURVE",
"224 606 OFFCURVE",
"279 606 CURVE SMOOTH",
"335 606 OFFCURVE",
"369 571 OFFCURVE",
"376 520 CURVE"
);
},
{
closed = 1;
nodes = (
"275 734 LINE",
"430 835 LINE",
"399 897 LINE",
"275 838 LINE",
"152 897 LINE",
"120 835 LINE"
);
}
);
width = 555;
}
);
leftKerningGroup = S;
note = Scaron;
rightKerningGroup = S;
unicode = 0160;
},
{
glyphname = Uacute;
layers = (
{
hints = (
{
horizontal = 1;
place = "{-22, 102}";
type = Stem;
},
{
horizontal = 1;
place = "{682, -20}";
target = down;
type = TopGhost;
},
{
horizontal = 1;
place = "{902, -20}";
target = down;
type = TopGhost;
},
{
place = "{60, 118}";
type = Stem;
},
{
place = "{453, 117}";
type = Stem;
}
);
layerId = "D2FC741B-AB3D-47FE-B7ED-22FDCD907D24";
paths = (
{
closed = 1;
nodes = (
"460 -22 OFFCURVE",
"570 59 OFFCURVE",
"570 273 CURVE SMOOTH",
"570 682 LINE",
"453 682 LINE",
"453 260 LINE SMOOTH",
"453 157 OFFCURVE",
"417 80 OFFCURVE",
"316 80 CURVE SMOOTH",
"229 80 OFFCURVE",
"178 151 OFFCURVE",
"178 260 CURVE SMOOTH",
"178 682 LINE",
"60 682 LINE",
"60 271 LINE SMOOTH",
"60 54 OFFCURVE",
"181 -22 OFFCURVE",
"316 -22 CURVE SMOOTH"
);
},
{
closed = 1;
nodes = (
"406 902 LINE",
"224 805 LINE",
"257 734 LINE",
"447 814 LINE"
);
}
);
width = 631;
}
);
leftKerningGroup = U;
note = Uacute;
rightKerningGroup = U;
unicode = 00DA;
},
{
glyphname = Ucircumflex;
layers = (
{
hints = (
{
horizontal = 1;
place = "{-22, 102}";
type = Stem;
},
{
horizontal = 1;
place = "{682, -20}";
target = down;
type = TopGhost;
},
{
horizontal = 1;
place = "{897, -20}";
target = down;
type = TopGhost;
},
{
place = "{60, 118}";
type = Stem;
},
{
place = "{453, 117}";
type = Stem;
}
);
layerId = "D2FC741B-AB3D-47FE-B7ED-22FDCD907D24";
paths = (
{
closed = 1;
nodes = (
"460 -22 OFFCURVE",
"570 59 OFFCURVE",
"570 273 CURVE SMOOTH",
"570 682 LINE",
"453 682 LINE",
"453 260 LINE SMOOTH",
"453 157 OFFCURVE",
"417 80 OFFCURVE",
"316 80 CURVE SMOOTH",
"229 80 OFFCURVE",
"178 151 OFFCURVE",
"178 260 CURVE SMOOTH",
"178 682 LINE",
"60 682 LINE",
"60 271 LINE SMOOTH",
"60 54 OFFCURVE",
"181 -22 OFFCURVE",
"316 -22 CURVE SMOOTH"
);
},
{
closed = 1;
nodes = (
"315 897 LINE",
"160 796 LINE",
"192 734 LINE",
"315 793 LINE",
"438 734 LINE",
"470 796 LINE"
);
}
);
width = 631;
}
);
leftKerningGroup = U;
note = Ucircumflex;
rightKerningGroup = U;
unicode = 00DB;
},
{
glyphname = Udieresis;
layers = (
{
hints = (
{
horizontal = 1;
place = "{-22, 102}";
type = Stem;
},
{
horizontal = 1;
place = "{682, -20}";
target = down;
type = TopGhost;
},
{
horizontal = 1;
place = "{773, 102}";
type = Stem;
},
{
place = "{60, 118}";
type = Stem;
},
{
place = "{453, 117}";
type = Stem;
},
{
place = "{173, 105}";
type = Stem;
},
{
place = "{353, 105}";
type = Stem;
}
);
layerId = "D2FC741B-AB3D-47FE-B7ED-22FDCD907D24";
paths = (
{
closed = 1;
nodes = (
"460 -22 OFFCURVE",
"570 59 OFFCURVE",
"570 273 CURVE SMOOTH",
"570 682 LINE",
"453 682 LINE",
"453 260 LINE SMOOTH",
"453 157 OFFCURVE",
"417 80 OFFCURVE",
"316 80 CURVE SMOOTH",
"229 80 OFFCURVE",
"178 151 OFFCURVE",
"178 260 CURVE SMOOTH",
"178 682 LINE",
"60 682 LINE",
"60 271 LINE SMOOTH",
"60 54 OFFCURVE",
"181 -22 OFFCURVE",
"316 -22 CURVE SMOOTH"
);
},
{
closed = 1;
nodes = (
"173 773 LINE",
"278 773 LINE",
"278 875 LINE",
"173 875 LINE"
);
},
{
closed = 1;
nodes = (
"353 773 LINE",
"458 773 LINE",
"458 875 LINE",
"353 875 LINE"
);
}
);
width = 631;
}
);
leftKerningGroup = U;
note = Udieresis;
rightKerningGroup = U;
unicode = 00DC;
},
{
glyphname = Ugrave;
layers = (
{
hints = (
{
horizontal = 1;
place = "{-22, 102}";
type = Stem;
},
{
horizontal = 1;
place = "{682, -20}";
target = down;
type = TopGhost;
},
{
horizontal = 1;
place = "{902, -20}";
target = down;
type = TopGhost;
},
{
place = "{60, 118}";
type = Stem;
},
{
place = "{453, 117}";
type = Stem;
}
);
layerId = "D2FC741B-AB3D-47FE-B7ED-22FDCD907D24";
paths = (
{
closed = 1;
nodes = (
"460 -22 OFFCURVE",
"570 59 OFFCURVE",
"570 273 CURVE SMOOTH",
"570 682 LINE",
"453 682 LINE",
"453 260 LINE SMOOTH",
"453 157 OFFCURVE",
"417 80 OFFCURVE",
"316 80 CURVE SMOOTH",
"229 80 OFFCURVE",
"178 151 OFFCURVE",
"178 260 CURVE SMOOTH",
"178 682 LINE",
"60 682 LINE",
"60 271 LINE SMOOTH",
"60 54 OFFCURVE",
"181 -22 OFFCURVE",
"316 -22 CURVE SMOOTH"
);
},
{
closed = 1;
nodes = (
"183 814 LINE",
"373 734 LINE",
"407 805 LINE",
"225 902 LINE"
);
}
);
width = 631;
}
);
leftKerningGroup = U;
note = Ugrave;
rightKerningGroup = U;
unicode = 00D9;
},
{
glyphname = Yacute;
layers = (
{
hints = (
{
horizontal = 1;
place = "{0, 21}";
target = up;
type = BottomGhost;
},
{
horizontal = 1;
place = "{682, -20}";
target = down;
type = TopGhost;
},
{
horizontal = 1;
place = "{902, -20}";
target = down;
type = TopGhost;
},
{
place = "{230, 118}";
type = Stem;
}
);
layerId = "D2FC741B-AB3D-47FE-B7ED-22FDCD907D24";
paths = (
{
closed = 1;
nodes = (
"230 0 LINE",
"348 0 LINE",
"348 275 LINE",
"565 682 LINE",
"442 682 LINE",
"332 458 LINE SMOOTH",
"317 427 OFFCURVE",
"306 405 OFFCURVE",
"295 377 CURVE",
"293 377 LINE",
"284 404 OFFCURVE",
"272 430 OFFCURVE",
"257 459 CURVE SMOOTH",
"142 682 LINE",
"12 682 LINE",
"230 274 LINE"
);
},
{
closed = 1;
nodes = (
"384 902 LINE",
"202 805 LINE",
"235 734 LINE",
"425 814 LINE"
);
}
);
width = 570;
}
);
leftKerningGroup = Y;
note = Yacute;
rightKerningGroup = Y;
unicode = 00DD;
},
{
glyphname = Ydieresis;
layers = (
{
hints = (
{
horizontal = 1;
place = "{0, 21}";
target = up;
type = BottomGhost;
},
{
horizontal = 1;
place = "{682, -20}";
target = down;
type = TopGhost;
},
{
horizontal = 1;
place = "{773, 102}";
type = Stem;
},
{
place = "{230, 118}";
type = Stem;
},
{
place = "{150, 105}";
type = Stem;
},
{
place = "{330, 105}";
type = Stem;
}
);
layerId = "D2FC741B-AB3D-47FE-B7ED-22FDCD907D24";
paths = (
{
closed = 1;
nodes = (
"230 0 LINE",
"348 0 LINE",
"348 275 LINE",
"565 682 LINE",
"442 682 LINE",
"332 458 LINE SMOOTH",
"317 427 OFFCURVE",
"306 405 OFFCURVE",
"295 377 CURVE",
"293 377 LINE",
"284 404 OFFCURVE",
"272 430 OFFCURVE",
"257 459 CURVE SMOOTH",
"142 682 LINE",
"12 682 LINE",
"230 274 LINE"
);
},
{
closed = 1;
nodes = (
"150 773 LINE",
"255 773 LINE",
"255 875 LINE",
"150 875 LINE"
);
},
{
closed = 1;
nodes = (
"330 773 LINE",
"435 773 LINE",
"435 875 LINE",
"330 875 LINE"
);
}
);
width = 570;
}
);
leftKerningGroup = Y;
note = Ydieresis;
rightKerningGroup = Y;
unicode = 0178;
},
{
glyphname = Zcaron;
layers = (
{
hints = (
{
horizontal = 1;
place = "{0, 104}";
type = Stem;
},
{
horizontal = 1;
place = "{578, 104}";
type = Stem;
},
{
horizontal = 1;
place = "{897, -20}";
target = down;
type = TopGhost;
}
);
layerId = "D2FC741B-AB3D-47FE-B7ED-22FDCD907D24";
paths = (
{
closed = 1;
nodes = (
"59 578 LINE",
"413 578 LINE",
"42 97 LINE",
"42 0 LINE",
"575 0 LINE",
"575 104 LINE",
"188 104 LINE",
"559 584 LINE",
"559 682 LINE",
"59 682 LINE"
);
},
{
closed = 1;
nodes = (
"300 734 LINE",
"455 835 LINE",
"424 897 LINE",
"300 838 LINE",
"177 897 LINE",
"145 835 LINE"
);
}
);
width = 612;
}
);
leftKerningGroup = Z;
note = Zcaron;
rightKerningGroup = Z;
unicode = 017D;
},
{
glyphname = aacute;
layers = (
{
hints = (
{
horizontal = 1;
place = "{-17, 98}";
type = Stem;
},
{
horizontal = 1;
place = "{398, 81}";
type = Stem;
},
{
horizontal = 1;
place = "{758, -20}";
target = down;
type = TopGhost;
},
{
place = "{35, 115}";
type = Stem;
},
{
place = "{437, 104}";
type = Stem;
},
{
horizontal = 1;
place = "{398, 96}";
type = Stem;
},
{
horizontal = 1;
place = "{0, 81}";
type = Stem;
}
);
layerId = "D2FC741B-AB3D-47FE-B7ED-22FDCD907D24";
paths = (
{
closed = 1;
nodes = (
"541 479 LINE",
"432 479 LINE",
"432 414 LINE",
"430 414 LINE",
"401 452 OFFCURVE",
"353 494 OFFCURVE",
"273 494 CURVE SMOOTH",
"143 494 OFFCURVE",
"35 392 OFFCURVE",
"35 240 CURVE SMOOTH",
"35 69 OFFCURVE",
"157 -17 OFFCURVE",
"265 -17 CURVE SMOOTH",
"344 -17 OFFCURVE",
"396 20 OFFCURVE",
"429 61 CURVE",
"432 61 LINE",
"432 0 LINE",
"541 0 LINE"
);
},
{
closed = 1;
nodes = (
"150 318 OFFCURVE",
"197 398 OFFCURVE",
"296 398 CURVE SMOOTH",
"374 398 OFFCURVE",
"437 334 OFFCURVE",
"437 237 CURVE SMOOTH",
"437 145 OFFCURVE",
"369 81 OFFCURVE",
"295 81 CURVE SMOOTH",
"196 81 OFFCURVE",
"150 160 OFFCURVE",
"150 240 CURVE SMOOTH"
);
},
{
closed = 1;
nodes = (
"209 616 LINE",
"259 556 LINE",
"419 685 LINE",
"357 758 LINE"
);
}
);
width = 604;
}
);
leftKerningGroup = a;
note = aacute;
unicode = 00E1;
},
{
glyphname = acircumflex;
layers = (
{
hints = (
{
horizontal = 1;
place = "{-17, 98}";
type = Stem;
},
{
horizontal = 1;
place = "{398, 81}";
type = Stem;
},
{
horizontal = 1;
place = "{740, -20}";
target = down;
type = TopGhost;
},
{
place = "{35, 115}";
type = Stem;
},
{
place = "{437, 104}";
type = Stem;
},
{
horizontal = 1;
place = "{398, 96}";
type = Stem;
},
{
horizontal = 1;
place = "{0, 81}";
type = Stem;
}
);
layerId = "D2FC741B-AB3D-47FE-B7ED-22FDCD907D24";
paths = (
{
closed = 1;
nodes = (
"541 479 LINE",
"432 479 LINE",
"432 414 LINE",
"430 414 LINE",
"401 452 OFFCURVE",
"353 494 OFFCURVE",
"273 494 CURVE SMOOTH",
"143 494 OFFCURVE",
"35 392 OFFCURVE",
"35 240 CURVE SMOOTH",
"35 69 OFFCURVE",
"157 -17 OFFCURVE",
"265 -17 CURVE SMOOTH",
"344 -17 OFFCURVE",
"396 20 OFFCURVE",
"429 61 CURVE",
"432 61 LINE",
"432 0 LINE",
"541 0 LINE"
);
},
{
closed = 1;
nodes = (
"150 318 OFFCURVE",
"197 398 OFFCURVE",
"296 398 CURVE SMOOTH",
"374 398 OFFCURVE",
"437 334 OFFCURVE",
"437 237 CURVE SMOOTH",
"437 145 OFFCURVE",
"369 81 OFFCURVE",
"295 81 CURVE SMOOTH",
"196 81 OFFCURVE",
"150 160 OFFCURVE",
"150 240 CURVE SMOOTH"
);
},
{
closed = 1;
nodes = (
"291 740 LINE",
"137 613 LINE",
"182 554 LINE",
"291 633 LINE",
"400 554 LINE",
"445 613 LINE"
);
}
);
width = 604;
}
);
leftKerningGroup = a;
note = acircumflex;
unicode = 00E2;
},
{
glyphname = adieresis;
layers = (
{
hints = (
{
horizontal = 1;
place = "{-17, 98}";
type = Stem;
},
{
horizontal = 1;
place = "{398, 81}";
type = Stem;
},
{
horizontal = 1;
place = "{593, 102}";
type = Stem;
},
{
place = "{35, 115}";
type = Stem;
},
{
place = "{329, 105}";
type = Stem;
},
{
place = "{437, 104}";
type = Stem;
},
{
horizontal = 1;
place = "{398, 96}";
type = Stem;
},
{
horizontal = 1;
place = "{0, 81}";
type = Stem;
},
{
place = "{149, 105}";
type = Stem;
}
);
layerId = "D2FC741B-AB3D-47FE-B7ED-22FDCD907D24";
paths = (
{
closed = 1;
nodes = (
"541 479 LINE",
"432 479 LINE",
"432 414 LINE",
"430 414 LINE",
"401 452 OFFCURVE",
"353 494 OFFCURVE",
"273 494 CURVE SMOOTH",
"143 494 OFFCURVE",
"35 392 OFFCURVE",
"35 240 CURVE SMOOTH",
"35 69 OFFCURVE",
"157 -17 OFFCURVE",
"265 -17 CURVE SMOOTH",
"344 -17 OFFCURVE",
"396 20 OFFCURVE",
"429 61 CURVE",
"432 61 LINE",
"432 0 LINE",
"541 0 LINE"
);
},
{
closed = 1;
nodes = (
"150 318 OFFCURVE",
"197 398 OFFCURVE",
"296 398 CURVE SMOOTH",
"374 398 OFFCURVE",
"437 334 OFFCURVE",
"437 237 CURVE SMOOTH",
"437 145 OFFCURVE",
"369 81 OFFCURVE",
"295 81 CURVE SMOOTH",
"196 81 OFFCURVE",
"150 160 OFFCURVE",
"150 240 CURVE SMOOTH"
);
},
{
closed = 1;
nodes = (
"149 593 LINE",
"254 593 LINE",
"254 695 LINE",
"149 695 LINE"
);
},
{
closed = 1;
nodes = (
"329 593 LINE",
"434 593 LINE",
"434 695 LINE",
"329 695 LINE"
);
}
);
width = 604;
}
);
leftKerningGroup = a;
note = adieresis;
unicode = 00E4;
},
{
glyphname = agrave;
layers = (
{
hints = (
{
horizontal = 1;
place = "{-17, 98}";
type = Stem;
},
{
horizontal = 1;
place = "{398, 81}";
type = Stem;
},
{
horizontal = 1;
place = "{758, -20}";
target = down;
type = TopGhost;
},
{
place = "{35, 115}";
type = Stem;
},
{
place = "{437, 104}";
type = Stem;
},
{
horizontal = 1;
place = "{398, 96}";
type = Stem;
},
{
horizontal = 1;
place = "{0, 81}";
type = Stem;
}
);
layerId = "D2FC741B-AB3D-47FE-B7ED-22FDCD907D24";
paths = (
{
closed = 1;
nodes = (
"541 479 LINE",
"432 479 LINE",
"432 414 LINE",
"430 414 LINE",
"401 452 OFFCURVE",
"353 494 OFFCURVE",
"273 494 CURVE SMOOTH",
"143 494 OFFCURVE",
"35 392 OFFCURVE",
"35 240 CURVE SMOOTH",
"35 69 OFFCURVE",
"157 -17 OFFCURVE",
"265 -17 CURVE SMOOTH",
"344 -17 OFFCURVE",
"396 20 OFFCURVE",
"429 61 CURVE",
"432 61 LINE",
"432 0 LINE",
"541 0 LINE"
);
},
{
closed = 1;
nodes = (
"150 318 OFFCURVE",
"197 398 OFFCURVE",
"296 398 CURVE SMOOTH",
"374 398 OFFCURVE",
"437 334 OFFCURVE",
"437 237 CURVE SMOOTH",
"437 145 OFFCURVE",
"369 81 OFFCURVE",
"295 81 CURVE SMOOTH",
"196 81 OFFCURVE",
"150 160 OFFCURVE",
"150 240 CURVE SMOOTH"
);
},
{
closed = 1;
nodes = (
"163 685 LINE",
"323 556 LINE",
"373 616 LINE",
"226 758 LINE"
);
}
);
width = 604;
}
);
leftKerningGroup = a;
note = agrave;
unicode = 00E0;
},
{
glyphname = aring;
layers = (
{
hints = (
{
horizontal = 1;
place = "{-17, 98}";
type = Stem;
},
{
horizontal = 1;
place = "{398, 81}";
type = Stem;
},
{
horizontal = 1;
place = "{530, 66}";
type = Stem;
},
{
horizontal = 1;
place = "{716, 66}";
type = Stem;
},
{
place = "{35, 115}";
type = Stem;
},
{
place = "{166, 65}";
type = Stem;
},
{
place = "{352, 66}";
type = Stem;
},
{
place = "{437, 104}";
type = Stem;
},
{
horizontal = 1;
place = "{398, 96}";
type = Stem;
},
{
horizontal = 1;
place = "{0, 81}";
type = Stem;
}
);
layerId = "D2FC741B-AB3D-47FE-B7ED-22FDCD907D24";
paths = (
{
closed = 1;
nodes = (
"541 479 LINE",
"432 479 LINE",
"432 414 LINE",
"430 414 LINE",
"401 452 OFFCURVE",
"353 494 OFFCURVE",
"273 494 CURVE SMOOTH",
"143 494 OFFCURVE",
"35 392 OFFCURVE",
"35 240 CURVE SMOOTH",
"35 69 OFFCURVE",
"157 -17 OFFCURVE",
"265 -17 CURVE SMOOTH",
"344 -17 OFFCURVE",
"396 20 OFFCURVE",
"429 61 CURVE",
"432 61 LINE",
"432 0 LINE",
"541 0 LINE"
);
},
{
closed = 1;
nodes = (
"150 318 OFFCURVE",
"197 398 OFFCURVE",
"296 398 CURVE SMOOTH",
"374 398 OFFCURVE",
"437 334 OFFCURVE",
"437 237 CURVE SMOOTH",
"437 145 OFFCURVE",
"369 81 OFFCURVE",
"295 81 CURVE SMOOTH",
"196 81 OFFCURVE",
"150 160 OFFCURVE",
"150 240 CURVE SMOOTH"
);
},
{
closed = 1;
nodes = (
"231 690 OFFCURVE",
"259 716 OFFCURVE",
"293 716 CURVE SMOOTH",
"326 716 OFFCURVE",
"352 690 OFFCURVE",
"352 657 CURVE SMOOTH",
"352 623 OFFCURVE",
"326 596 OFFCURVE",
"293 596 CURVE SMOOTH",
"259 596 OFFCURVE",
"231 623 OFFCURVE",
"231 657 CURVE SMOOTH"
);
},
{
closed = 1;
nodes = (
"166 586 OFFCURVE",
"221 530 OFFCURVE",
"293 530 CURVE SMOOTH",
"362 530 OFFCURVE",
"418 586 OFFCURVE",
"418 657 CURVE SMOOTH",
"418 726 OFFCURVE",
"362 782 OFFCURVE",
"293 782 CURVE SMOOTH",
"221 782 OFFCURVE",
"166 726 OFFCURVE",
"166 657 CURVE SMOOTH"
);
}
);
width = 604;
}
);
leftKerningGroup = a;
note = aring;
unicode = 00E5;
},
{
glyphname = atilde;
layers = (
{
hints = (
{
horizontal = 1;
place = "{-17, 98}";
type = Stem;
},
{
horizontal = 1;
place = "{398, 81}";
type = Stem;
},
{
horizontal = 1;
place = "{581, 79}";
type = Stem;
},
{
place = "{35, 115}";
type = Stem;
},
{
place = "{437, 104}";
type = Stem;
},
{
horizontal = 1;
place = "{398, 96}";
type = Stem;
},
{
horizontal = 1;
place = "{0, 81}";
type = Stem;
},
{
horizontal = 1;
place = "{639, 79}";
type = Stem;
}
);
layerId = "D2FC741B-AB3D-47FE-B7ED-22FDCD907D24";
paths = (
{
closed = 1;
nodes = (
"541 479 LINE",
"432 479 LINE",
"432 414 LINE",
"430 414 LINE",
"401 452 OFFCURVE",
"353 494 OFFCURVE",
"273 494 CURVE SMOOTH",
"143 494 OFFCURVE",
"35 392 OFFCURVE",
"35 240 CURVE SMOOTH",
"35 69 OFFCURVE",
"157 -17 OFFCURVE",
"265 -17 CURVE SMOOTH",
"344 -17 OFFCURVE",
"396 20 OFFCURVE",
"429 61 CURVE",
"432 61 LINE",
"432 0 LINE",
"541 0 LINE"
);
},
{
closed = 1;
nodes = (
"150 318 OFFCURVE",
"197 398 OFFCURVE",
"296 398 CURVE SMOOTH",
"374 398 OFFCURVE",
"437 334 OFFCURVE",
"437 237 CURVE SMOOTH",
"437 145 OFFCURVE",
"369 81 OFFCURVE",
"295 81 CURVE SMOOTH",
"196 81 OFFCURVE",
"150 160 OFFCURVE",
"150 240 CURVE SMOOTH"
);
},
{
closed = 1;
nodes = (
"199 590 LINE",
"201 622 OFFCURVE",
"212 639 OFFCURVE",
"229 639 CURVE SMOOTH",
"243 639 OFFCURVE",
"255 631 OFFCURVE",
"282 610 CURVE SMOOTH",
"307 591 OFFCURVE",
"332 581 OFFCURVE",
"363 581 CURVE SMOOTH",
"429 581 OFFCURVE",
"463 626 OFFCURVE",
"466 709 CURVE",
"395 709 LINE",
"394 670 OFFCURVE",
"381 660 OFFCURVE",
"365 660 CURVE SMOOTH",
"348 660 OFFCURVE",
"330 669 OFFCURVE",
"305 688 CURVE SMOOTH",
"279 708 OFFCURVE",
"259 718 OFFCURVE",
"230 718 CURVE SMOOTH",
"162 718 OFFCURVE",
"132 663 OFFCURVE",
"128 590 CURVE"
);
}
);
width = 604;
}
);
leftKerningGroup = a;
note = atilde;
unicode = 00E3;
},
{
glyphname = ccedilla;
layers = (
{
hints = (
{
horizontal = 1;
place = "{-243, 72}";
type = Stem;
},
{
horizontal = 1;
place = "{400, 95}";
type = Stem;
},
{
place = "{32, 115}";
type = Stem;
},
{
place = "{307, 83}";
type = Stem;
}
);
layerId = "D2FC741B-AB3D-47FE-B7ED-22FDCD907D24";
paths = (
{
closed = 1;
nodes = (
"130 495 OFFCURVE",
"32 381 OFFCURVE",
"32 241 CURVE SMOOTH",
"32 98 OFFCURVE",
"127 4 OFFCURVE",
"245 -13 CURVE",
"213 -94 LINE",
"277 -94 OFFCURVE",
"307 -110 OFFCURVE",
"307 -137 CURVE SMOOTH",
"307 -161 OFFCURVE",
"287 -171 OFFCURVE",
"255 -171 CURVE SMOOTH",
"233 -171 OFFCURVE",
"198 -165 OFFCURVE",
"184 -159 CURVE",
"160 -226 LINE",
"187 -235 OFFCURVE",
"229 -243 OFFCURVE",
"266 -243 CURVE SMOOTH",
"349 -243 OFFCURVE",
"390 -198 OFFCURVE",
"390 -136 CURVE SMOOTH",
"390 -89 OFFCURVE",
"358 -48 OFFCURVE",
"304 -39 CURVE",
"313 -16 LINE",
"429 -6 OFFCURVE",
"491 69 OFFCURVE",
"516 151 CURVE",
"400 151 LINE",
"384 114 OFFCURVE",
"352 79 OFFCURVE",
"290 79 CURVE SMOOTH",
"203 79 OFFCURVE",
"147 149 OFFCURVE",
"147 240 CURVE SMOOTH",
"147 341 OFFCURVE",
"205 400 OFFCURVE",
"286 400 CURVE SMOOTH",
"342 400 OFFCURVE",
"378 373 OFFCURVE",
"393 335 CURVE",
"508 335 LINE",
"493 405 OFFCURVE",
"424 495 OFFCURVE",
"287 495 CURVE SMOOTH"
);
}
);
width = 547;
}
);
leftKerningGroup = a;
note = ccedilla;
rightKerningGroup = c;
unicode = 00E7;
},
{
glyphname = eacute;
layers = (
{
hints = (
{
horizontal = 1;
place = "{-17, 88}";
type = Stem;
},
{
horizontal = 1;
place = "{211, 81}";
type = Stem;
},
{
horizontal = 1;
place = "{411, 84}";
type = Stem;
},
{
horizontal = 1;
place = "{758, -20}";
target = down;
type = TopGhost;
},
{
place = "{35, 112}";
type = Stem;
}
);
layerId = "D2FC741B-AB3D-47FE-B7ED-22FDCD907D24";
paths = (
{
closed = 1;
nodes = (
"127 495 OFFCURVE",
"35 379 OFFCURVE",
"35 244 CURVE SMOOTH",
"35 91 OFFCURVE",
"143 -17 OFFCURVE",
"290 -17 CURVE SMOOTH",
"411 -17 OFFCURVE",
"480 52 OFFCURVE",
"512 125 CURVE",
"397 125 LINE",
"372 91 OFFCURVE",
"339 71 OFFCURVE",
"290 71 CURVE SMOOTH",
"213 71 OFFCURVE",
"147 136 OFFCURVE",
"147 211 CURVE",
"517 211 LINE",
"519 221 OFFCURVE",
"519 234 OFFCURVE",
"519 244 CURVE SMOOTH",
"519 366 OFFCURVE",
"443 494 OFFCURVE",
"278 495 CURVE SMOOTH"
);
},
{
closed = 1;
nodes = (
"351 411 OFFCURVE",
"400 356 OFFCURVE",
"407 292 CURVE",
"148 292 LINE",
"154 354 OFFCURVE",
"201 411 OFFCURVE",
"278 411 CURVE SMOOTH"
);
},
{
closed = 1;
nodes = (
"194 616 LINE",
"244 556 LINE",
"404 685 LINE",
"342 758 LINE"
);
}
);
width = 551;
}
);
leftKerningGroup = a;
note = eacute;
rightKerningGroup = e;
unicode = 00E9;
},
{
glyphname = ecircumflex;
layers = (
{
hints = (
{
horizontal = 1;
place = "{-17, 88}";
type = Stem;
},
{
horizontal = 1;
place = "{211, 81}";
type = Stem;
},
{
horizontal = 1;
place = "{411, 84}";
type = Stem;
},
{
horizontal = 1;
place = "{740, -20}";
target = down;
type = TopGhost;
},
{
place = "{35, 112}";
type = Stem;
}
);
layerId = "D2FC741B-AB3D-47FE-B7ED-22FDCD907D24";
paths = (
{
closed = 1;
nodes = (
"127 495 OFFCURVE",
"35 379 OFFCURVE",
"35 244 CURVE SMOOTH",
"35 91 OFFCURVE",
"143 -17 OFFCURVE",
"290 -17 CURVE SMOOTH",
"411 -17 OFFCURVE",
"480 52 OFFCURVE",
"512 125 CURVE",
"397 125 LINE",
"372 91 OFFCURVE",
"339 71 OFFCURVE",
"290 71 CURVE SMOOTH",
"213 71 OFFCURVE",
"147 136 OFFCURVE",
"147 211 CURVE",
"517 211 LINE",
"519 221 OFFCURVE",
"519 234 OFFCURVE",
"519 244 CURVE SMOOTH",
"519 366 OFFCURVE",
"443 494 OFFCURVE",
"278 495 CURVE SMOOTH"
);
},
{
closed = 1;
nodes = (
"351 411 OFFCURVE",
"400 356 OFFCURVE",
"407 292 CURVE",
"148 292 LINE",
"154 354 OFFCURVE",
"201 411 OFFCURVE",
"278 411 CURVE SMOOTH"
);
},
{
closed = 1;
nodes = (
"276 740 LINE",
"122 613 LINE",
"167 554 LINE",
"276 633 LINE",
"385 554 LINE",
"430 613 LINE"
);
}
);
width = 551;
}
);
leftKerningGroup = a;
note = ecircumflex;
rightKerningGroup = e;
unicode = 00EA;
},
{
glyphname = edieresis;
layers = (
{
hints = (
{
horizontal = 1;
place = "{-17, 88}";
type = Stem;
},
{
horizontal = 1;
place = "{211, 81}";
type = Stem;
},
{
horizontal = 1;
place = "{411, 84}";
type = Stem;
},
{
horizontal = 1;
place = "{593, 102}";
type = Stem;
},
{
place = "{35, 112}";
type = Stem;
},
{
place = "{314, 105}";
type = Stem;
},
{
place = "{134, 105}";
type = Stem;
}
);
layerId = "D2FC741B-AB3D-47FE-B7ED-22FDCD907D24";
paths = (
{
closed = 1;
nodes = (
"127 495 OFFCURVE",
"35 379 OFFCURVE",
"35 244 CURVE SMOOTH",
"35 91 OFFCURVE",
"143 -17 OFFCURVE",
"290 -17 CURVE SMOOTH",
"411 -17 OFFCURVE",
"480 52 OFFCURVE",
"512 125 CURVE",
"397 125 LINE",
"372 91 OFFCURVE",
"339 71 OFFCURVE",
"290 71 CURVE SMOOTH",
"213 71 OFFCURVE",
"147 136 OFFCURVE",
"147 211 CURVE",
"517 211 LINE",
"519 221 OFFCURVE",
"519 234 OFFCURVE",
"519 244 CURVE SMOOTH",
"519 366 OFFCURVE",
"443 494 OFFCURVE",
"278 495 CURVE SMOOTH"
);
},
{
closed = 1;
nodes = (
"351 411 OFFCURVE",
"400 356 OFFCURVE",
"407 292 CURVE",
"148 292 LINE",
"154 354 OFFCURVE",
"201 411 OFFCURVE",
"278 411 CURVE SMOOTH"
);
},
{
closed = 1;
nodes = (
"134 593 LINE",
"239 593 LINE",
"239 695 LINE",
"134 695 LINE"
);
},
{
closed = 1;
nodes = (
"314 593 LINE",
"419 593 LINE",
"419 695 LINE",
"314 695 LINE"
);
}
);
width = 551;
}
);
leftKerningGroup = a;
note = edieresis;
rightKerningGroup = e;
unicode = 00EB;
},
{
glyphname = egrave;
layers = (
{
hints = (
{
horizontal = 1;
place = "{-17, 88}";
type = Stem;
},
{
horizontal = 1;
place = "{211, 81}";
type = Stem;
},
{
horizontal = 1;
place = "{411, 84}";
type = Stem;
},
{
horizontal = 1;
place = "{758, -20}";
target = down;
type = TopGhost;
},
{
place = "{35, 112}";
type = Stem;
}
);
layerId = "D2FC741B-AB3D-47FE-B7ED-22FDCD907D24";
paths = (
{
closed = 1;
nodes = (
"127 495 OFFCURVE",
"35 379 OFFCURVE",
"35 244 CURVE SMOOTH",
"35 91 OFFCURVE",
"143 -17 OFFCURVE",
"290 -17 CURVE SMOOTH",
"411 -17 OFFCURVE",
"480 52 OFFCURVE",
"512 125 CURVE",
"397 125 LINE",
"372 91 OFFCURVE",
"339 71 OFFCURVE",
"290 71 CURVE SMOOTH",
"213 71 OFFCURVE",
"147 136 OFFCURVE",
"147 211 CURVE",
"517 211 LINE",
"519 221 OFFCURVE",
"519 234 OFFCURVE",
"519 244 CURVE SMOOTH",
"519 366 OFFCURVE",
"443 494 OFFCURVE",
"278 495 CURVE SMOOTH"
);
},
{
closed = 1;
nodes = (
"351 411 OFFCURVE",
"400 356 OFFCURVE",
"407 292 CURVE",
"148 292 LINE",
"154 354 OFFCURVE",
"201 411 OFFCURVE",
"278 411 CURVE SMOOTH"
);
},
{
closed = 1;
nodes = (
"148 685 LINE",
"308 556 LINE",
"358 616 LINE",
"211 758 LINE"
);
}
);
width = 551;
}
);
leftKerningGroup = a;
note = egrave;
rightKerningGroup = e;
unicode = 00E8;
},
{
glyphname = iacute;
layers = (
{
hints = (
{
horizontal = 1;
place = "{0, 21}";
target = up;
type = BottomGhost;
},
{
horizontal = 1;
place = "{479, -20}";
target = down;
type = TopGhost;
},
{
horizontal = 1;
place = "{758, -20}";
target = down;
type = TopGhost;
},
{
place = "{68, 112}";
type = Stem;
}
);
layerId = "D2FC741B-AB3D-47FE-B7ED-22FDCD907D24";
paths = (
{
closed = 1;
nodes = (
"68 0 LINE",
"180 0 LINE",
"180 479 LINE",
"68 479 LINE"
);
},
{
closed = 1;
nodes = (
"42 616 LINE",
"92 556 LINE",
"252 685 LINE",
"190 758 LINE"
);
}
);
width = 242;
}
);
leftKerningGroup = i;
note = iacute;
rightKerningGroup = i;
unicode = 00ED;
},
{
glyphname = icircumflex;
layers = (
{
hints = (
{
horizontal = 1;
place = "{0, 21}";
target = up;
type = BottomGhost;
},
{
horizontal = 1;
place = "{479, -20}";
target = down;
type = TopGhost;
},
{
horizontal = 1;
place = "{740, -20}";
target = down;
type = TopGhost;
},
{
place = "{68, 112}";
type = Stem;
}
);
layerId = "D2FC741B-AB3D-47FE-B7ED-22FDCD907D24";
paths = (
{
closed = 1;
nodes = (
"68 0 LINE",
"180 0 LINE",
"180 479 LINE",
"68 479 LINE"
);
},
{
closed = 1;
nodes = (
"124 740 LINE",
"-30 613 LINE",
"15 554 LINE",
"124 633 LINE",
"233 554 LINE",
"278 613 LINE"
);
}
);
width = 242;
}
);
leftKerningGroup = i;
note = icircumflex;
rightKerningGroup = i;
unicode = 00EE;
},
{
glyphname = idieresis;
layers = (
{
hints = (
{
horizontal = 1;
place = "{0, 21}";
target = up;
type = BottomGhost;
},
{
horizontal = 1;
place = "{479, -20}";
target = down;
type = TopGhost;
},
{
horizontal = 1;
place = "{593, 102}";
type = Stem;
},
{
place = "{68, 112}";
type = Stem;
},
{
place = "{-18, 105}";
type = Stem;
},
{
place = "{162, 105}";
type = Stem;
}
);
layerId = "D2FC741B-AB3D-47FE-B7ED-22FDCD907D24";
paths = (
{
closed = 1;
nodes = (
"68 0 LINE",
"180 0 LINE",
"180 479 LINE",
"68 479 LINE"
);
},
{
closed = 1;
nodes = (
"-18 593 LINE",
"87 593 LINE",
"87 695 LINE",
"-18 695 LINE"
);
},
{
closed = 1;
nodes = (
"162 593 LINE",
"267 593 LINE",
"267 695 LINE",
"162 695 LINE"
);
}
);
width = 242;
}
);
leftKerningGroup = i;
note = idieresis;
rightKerningGroup = i;
unicode = 00EF;
},
{
glyphname = igrave;
layers = (
{
hints = (
{
horizontal = 1;
place = "{0, 21}";
target = up;
type = BottomGhost;
},
{
horizontal = 1;
place = "{479, -20}";
target = down;
type = TopGhost;
},
{
horizontal = 1;
place = "{758, -20}";
target = down;
type = TopGhost;
},
{
place = "{68, 112}";
type = Stem;
}
);
layerId = "D2FC741B-AB3D-47FE-B7ED-22FDCD907D24";
paths = (
{
closed = 1;
nodes = (
"68 0 LINE",
"180 0 LINE",
"180 479 LINE",
"68 479 LINE"
);
},
{
closed = 1;
nodes = (
"-4 685 LINE",
"156 556 LINE",
"206 616 LINE",
"59 758 LINE"
);
}
);
width = 242;
}
);
leftKerningGroup = i;
note = igrave;
rightKerningGroup = i;
unicode = 00EC;
},
{
glyphname = ntilde;
layers = (
{
hints = (
{
horizontal = 1;
place = "{0, 21}";
target = up;
type = BottomGhost;
},
{
horizontal = 1;
place = "{396, 99}";
type = Stem;
},
{
horizontal = 1;
place = "{581, 79}";
type = Stem;
},
{
place = "{68, 112}";
type = Stem;
},
{
place = "{401, 64}";
type = Stem;
},
{
place = "{401, 112}";
type = Stem;
},
{
horizontal = 1;
place = "{396, 83}";
type = Stem;
},
{
horizontal = 1;
place = "{639, 79}";
type = Stem;
}
);
layerId = "D2FC741B-AB3D-47FE-B7ED-22FDCD907D24";
paths = (
{
closed = 1;
nodes = (
"68 0 LINE",
"180 0 LINE",
"180 254 LINE SMOOTH",
"180 347 OFFCURVE",
"228 396 OFFCURVE",
"298 396 CURVE SMOOTH",
"362 396 OFFCURVE",
"401 352 OFFCURVE",
"401 270 CURVE SMOOTH",
"401 0 LINE",
"513 0 LINE",
"513 276 LINE SMOOTH",
"513 430 OFFCURVE",
"426 495 OFFCURVE",
"327 495 CURVE SMOOTH",
"274 495 OFFCURVE",
"219 473 OFFCURVE",
"181 419 CURVE",
"179 419 LINE",
"179 479 LINE",
"68 479 LINE"
);
},
{
closed = 1;
nodes = (
"198 590 LINE",
"200 622 OFFCURVE",
"211 639 OFFCURVE",
"228 639 CURVE SMOOTH",
"242 639 OFFCURVE",
"254 631 OFFCURVE",
"281 610 CURVE SMOOTH",
"306 591 OFFCURVE",
"331 581 OFFCURVE",
"362 581 CURVE SMOOTH",
"428 581 OFFCURVE",
"462 626 OFFCURVE",
"465 709 CURVE",
"394 709 LINE",
"393 670 OFFCURVE",
"380 660 OFFCURVE",
"364 660 CURVE SMOOTH",
"347 660 OFFCURVE",
"329 669 OFFCURVE",
"304 688 CURVE SMOOTH",
"278 708 OFFCURVE",
"258 718 OFFCURVE",
"229 718 CURVE SMOOTH",
"161 718 OFFCURVE",
"131 663 OFFCURVE",
"127 590 CURVE"
);
}
);
width = 569;
}
);
leftKerningGroup = m;
note = ntilde;
rightKerningGroup = h;
unicode = 00F1;
},
{
glyphname = oacute;
layers = (
{
hints = (
{
horizontal = 1;
place = "{-17, 100}";
type = Stem;
},
{
horizontal = 1;
place = "{396, 99}";
type = Stem;
},
{
horizontal = 1;
place = "{758, -20}";
target = down;
type = TopGhost;
},
{
place = "{35, 114}";
type = Stem;
},
{
place = "{434, 113}";
type = Stem;
}
);
layerId = "D2FC741B-AB3D-47FE-B7ED-22FDCD907D24";
paths = (
{
closed = 1;
nodes = (
"35 95 OFFCURVE",
"145 -17 OFFCURVE",
"291 -17 CURVE SMOOTH",
"440 -17 OFFCURVE",
"547 99 OFFCURVE",
"547 240 CURVE SMOOTH",
"547 385 OFFCURVE",
"441 495 OFFCURVE",
"291 495 CURVE SMOOTH",
"146 495 OFFCURVE",
"35 388 OFFCURVE",
"35 240 CURVE SMOOTH"
);
},
{
closed = 1;
nodes = (
"149 329 OFFCURVE",
"205 396 OFFCURVE",
"291 396 CURVE SMOOTH",
"380 396 OFFCURVE",
"434 325 OFFCURVE",
"434 240 CURVE SMOOTH",
"434 151 OFFCURVE",
"376 83 OFFCURVE",
"291 83 CURVE SMOOTH",
"214 83 OFFCURVE",
"149 148 OFFCURVE",
"149 240 CURVE SMOOTH"
);
},
{
closed = 1;
nodes = (
"201 616 LINE",
"251 556 LINE",
"411 685 LINE",
"349 758 LINE"
);
}
);
width = 577;
}
);
leftKerningGroup = a;
note = oacute;
rightKerningGroup = b;
unicode = 00F3;
},
{
glyphname = ocircumflex;
layers = (
{
hints = (
{
horizontal = 1;
place = "{-17, 100}";
type = Stem;
},
{
horizontal = 1;
place = "{396, 99}";
type = Stem;
},
{
horizontal = 1;
place = "{740, -20}";
target = down;
type = TopGhost;
},
{
place = "{35, 114}";
type = Stem;
},
{
place = "{434, 113}";
type = Stem;
}
);
layerId = "D2FC741B-AB3D-47FE-B7ED-22FDCD907D24";
paths = (
{
closed = 1;
nodes = (
"35 95 OFFCURVE",
"145 -17 OFFCURVE",
"291 -17 CURVE SMOOTH",
"440 -17 OFFCURVE",
"547 99 OFFCURVE",
"547 240 CURVE SMOOTH",
"547 385 OFFCURVE",
"441 495 OFFCURVE",
"291 495 CURVE SMOOTH",
"146 495 OFFCURVE",
"35 388 OFFCURVE",
"35 240 CURVE SMOOTH"
);
},
{
closed = 1;
nodes = (
"149 329 OFFCURVE",
"205 396 OFFCURVE",
"291 396 CURVE SMOOTH",
"380 396 OFFCURVE",
"434 325 OFFCURVE",
"434 240 CURVE SMOOTH",
"434 151 OFFCURVE",
"376 83 OFFCURVE",
"291 83 CURVE SMOOTH",
"214 83 OFFCURVE",
"149 148 OFFCURVE",
"149 240 CURVE SMOOTH"
);
},
{
closed = 1;
nodes = (
"291 740 LINE",
"137 613 LINE",
"182 554 LINE",
"291 633 LINE",
"400 554 LINE",
"445 613 LINE"
);
}
);
width = 577;
}
);
leftKerningGroup = a;
note = ocircumflex;
rightKerningGroup = b;
unicode = 00F4;
},
